<svg xmlns="http://www.w3.org/2000/svg" viewBox="0 0 924.75 932.51">
    <g transform="translate(-38.26 -34.17)">
        <path d="m240 441.43c1.91 5.43 1.53 7.87-3.8 10.07 8.5 1.49 8.63 1.44 11.84 9.07 4.12 9.82 9.72 19.15 9.45 30.44-.06 2.19 1.53 4.79 3.08 6.59 6.66 7.78 10.89 17.45 18.76 24.25 4.43 3.83 5.69 9.68 9.58 14 8.52 9.4 19.14 16.34 28.18 25.09a37.23 37.23 0 0 0 15.45 8.57 63.81 63.81 0 0 1 14.08 6.49c15.64 9.31 30.24 20.44 47.85 26.23 9.14 3 17.76 8 27.06 10 14.65 3.16 29.15 7.84 44.25 8.27 17 .48 33.68 4.75 50.83 2.87 8.23-.91 16.73-1.51 24.88-.46 14.8 1.9 28.72 1.74 41.35-7.67 1.74-1.29 3.29-1.73 2.81-4.14s-1.94-4.45-4.24-4.62c-5.73-.42-11.34 3.42-17.3.5-.88-.42-1.59 1.7-1.62 2.91-.2 6.57-4.45 6.09-7.85 3.57-4.53-3.35-8.34-2.18-12.37 0-2.22 1.21-4.38 1.34-6.85 1.62a171.51 171.51 0 0 1 -30.47.63c-10.75-.72-21.41 2.07-32.3-.6-6.69-1.64-13.07-4.24-20-5.44-15.17-2.64-30.64-4.16-44.95-10.86-4.33-2-9.79 0-14.63-2.78-22.56-12.69-45.95-24-66.15-40.49-13.43-11-23-25.49-34.79-38-14.22-15.11-20.31-35.85-33.09-52.17-1.18-1.51-1.7-3.57-2.4-5.41-5.59-14.76-12.64-29-16.44-44.4-4.1-16.7-15.16-30.75-17.12-48.52-1.75-15.77-1.34-31.59-1.89-47.28-.46-13.25 3.07-26.94 4.65-40.46a222.46 222.46 0 0 1 28.75-86.08c22.14-38.23 52.92-68.58 91-91.44 19.8-11.78 40.52-21.45 61.61-30.62 12.76-5.54 26.18-4.38 39.12-7.29a175.37 175.37 0 0 1 30.05-4.23c15.55-.73 31.16-.49 46.74-.3 13.07.16 26.19-1.39 39.21 1.19 23.3 4.62 45.43 13.28 68.28 19.45 5.49 1.48 9.81 5.59 15.74 6.34a48.36 48.36 0 0 1 29.2 14.21c5.51 5.54 12.34 9.76 18.58 14.58a215.35 215.35 0 0 0 -45.36-39.6c-21.76-14.17-46.1-22.68-70.76-29.98-21.31-6.32-43.82-5.78-65.7-9.29a158.07 158.07 0 0 0 -61.29 2c-31.54 7.53-60.65 21.87-90 35.31-7.54 3.45-12.82 9.87-20.16 13.67a171.89 171.89 0 0 0 -56.07 46.42c-8.62 10.85-16 22.46-24 33.66-9 12.61-15.58 26.31-22.71 39.85-9.74 18.53-14.48 38.86-21.64 58.32-5.25 14.27-8.21 29.24-7 44.26 1.72 20.86 6.17 41.44 7.71 62.39.36 4.87 1.08 9.47.4 14.47-1.74 12.72.41 24.44 9.79 34.36a57.06 57.06 0 0 1 12.67 20.48z" />
        <path d="m751.69 466.46a105.75 105.75 0 0 1 -9.69 19.27c-5.39 8.17-11.23 15.36-12.25 25.52-.31 3.1-2.5 5.68-6.36 7.21.25-5 2.27-9.19 1-15.51-3.9 4.12-7 7.17-9.86 10.48-8 9.38-15.17 19.66-24 28.14a459.12 459.12 0 0 1 -43.5 36.5 48.56 48.56 0 0 1 -10.74 6.49c-10.56 4.21-19.11 12.72-31.19 13.92-4.23.42-8.12 4-12.38 4.59-5.34.7-5.48 3.48-4.16 7.07 1.21 3.32 1.2 5.67-2.34 7.28-1.28.58-3.06 1.3-2.43 3.15.56 1.65 2.37 1.59 3.82 1.47a27.74 27.74 0 0 0 5.84-.88c28.72-8.81 54.33-22.87 75.49-44.55 2-2 3.81-5.13 6.91-5.28 15.78-.77 21.46-14.73 30.11-24 5.16-5.55 8.83-11.61 17-12.58a6.62 6.62 0 0 0 4.45-2.44c4.41-5.32 9.26-10.4 9.72-17.9.24-3.88 2.25-6.82 4.87-9.7a88 88 0 0 0 19.43-34.35c1.25-4.19-.23-8.17-3.47-9.55-3.96-1.67-5.2 2.87-6.27 5.65z" />
        <path d="m769.9 433.92a0 0 0 0 1 0 0z" />
        <path d="m771 245.4c3.41 14.81 7.54 29.27 9.78 44.49 3.86 26.25.23 52.33 1.32 78.46.84 20.13-5.14 39.57-12.18 58.42a9.39 9.39 0 0 0 0 7.12c3.58-1.07 5.48-3 6.1-7.17 1.63-11.07 5.49-21.79 8.59-32.4 4.66-15.95 9.27-31.81 9.7-48.27.74-28.71-2.33-57.34-7.87-85.43s-20.26-52.94-33.93-77.84c-3.13-5.72-8.43-10.25-13-15.58-1.69 3-.19 4.57.65 6.29 11.4 23.51 24.84 45.96 30.84 71.91z" />
        <path d="m701.25 120.93c7.49 9.88 14 20.32 26.14 25.68-2.06-19.06-10.13-27.06-26.14-25.68z" />
        <path d="m249.28 486.45c5.12-2 5.65-6.86 4.2-10.34s-6.22-4.05-9.94-2.83c-3 1-5.69 3.07-3.9 6.87 1.93 4.28 3.63 8.65 9.64 6.3z" />
        <path d="m764.81 447.35c6.46-3.17 6.1-8.15 5.05-13.37-2.61 3.96-6.98 7.32-5.05 13.37z" />
        <path d="m769.9 433.92h-.06v.08z" />
        <path d="m592.83 942.83c5.52-1.63 7.93-1.12 9.86 4.31 1.92-8.41 1.87-8.54 9.66-11.36 10-3.62 19.62-8.74 30.88-7.88 2.19.16 4.86-1.3 6.74-2.75 8.11-6.26 18-10 25.18-17.5 4-4.23 10-5.18 14.45-8.85 9.82-8 17.29-18.29 26.49-26.87 4.47-4.16 7.31-9.38 9.34-15a63.89 63.89 0 0 1 7.26-13.72c10.09-15.14 22-29.15 28.63-46.45 3.47-9 8.88-17.32 11.36-26.51 3.91-14.47 9.31-28.71 10.51-43.77 1.35-16.92 6.46-33.39 5.45-50.62-.48-8.26-.65-16.79.81-24.87 2.65-14.68 3.2-28.59-5.55-41.69-1.2-1.8-1.56-3.37-4-3s-4.55 1.72-4.83 4c-.71 5.7 2.84 11.49-.38 17.3-.47.86 1.61 1.67 2.82 1.77 6.56.53 5.85 4.74 3.17 8-3.58 4.35-2.6 8.21-.6 12.35 1.1 2.28 1.12 4.44 1.26 6.92a170.25 170.25 0 0 1 -.92 30.47c-1.26 10.69 1 21.49-2.24 32.22-2 6.61-4.9 12.84-6.45 19.66-3.41 15-5.71 30.39-13.14 44.34-2.24 4.22-.55 9.78-3.52 14.47-13.82 21.88-26.27 44.67-43.8 64-11.65 12.85-26.64 21.67-39.73 32.8-15.82 13.43-36.84 18.45-53.8 30.39-1.56 1.1-3.64 1.51-5.52 2.12-15 4.84-29.57 11.15-45.18 14.16-16.88 3.24-31.49 13.57-49.33 14.63-15.84.94-31.61-.27-47.31-.53-13.26-.21-26.75-4.44-40.18-6.7a222.32 222.32 0 0 1 -84.49-33.1c-37.06-24.05-65.8-56.34-86.69-95.54-10.84-20.33-19.42-41.51-27.5-63-4.89-13-3-26.37-5.28-39.44a175.21 175.21 0 0 1 -2.7-30.22c.06-15.57 1.1-31.15 2.08-46.7.83-13-.06-26.22 3.19-39.1 5.8-23 15.58-44.69 22.9-67.2 1.76-5.4 6.08-9.51 7.13-15.4a48.37 48.37 0 0 1 15.68-28.44c5.81-5.21 10.38-11.82 15.5-17.8a215.89 215.89 0 0 0 -41.85 43.27c-15.26 21-25 44.88-33.54 69.11-7.39 21-8 43.47-12.62 65.14a158.06 158.06 0 0 0 -1.12 61.31c5.92 31.89 18.76 61.69 30.69 91.7 3.06 7.7 9.2 13.31 12.63 20.83a171.92 171.92 0 0 0 43.49 58.36c10.4 9.16 21.62 17.12 32.4 25.69 12.13 9.65 25.48 16.9 38.64 24.71 18 10.67 38.07 16.44 57.14 24.58 14 6 28.79 9.69 43.85 9.22 20.92-.65 41.7-4 62.7-4.51 4.88-.11 9.52-.6 14.47.34 12.62 2.38 24.43.82 34.82-8a57.07 57.07 0 0 1 21.09-11.65z" />
        <path d="m643.89 433.11a105.13 105.13 0 0 1 18.74 10.61c7.89 5.81 14.78 12 24.87 13.53 3.08.47 5.54 2.79 6.88 6.72-5-.5-9.07-2.73-15.44-1.75 3.91 4.1 6.8 7.39 10 10.38 9 8.49 18.87 16.15 26.87 25.44a458.38 458.38 0 0 1 34.19 45.31 48.76 48.76 0 0 1 6 11.06c3.67 10.76 11.73 19.73 12.31 31.85.21 4.26 3.61 8.32 4 12.6.44 5.38 3.21 5.65 6.85 4.52 3.39-1 5.73-.91 7.16 2.71.52 1.31 1.14 3.12 3 2.59 1.68-.48 1.71-2.29 1.67-3.75a28 28 0 0 0 -.59-5.87c-7.33-29.13-20.08-55.42-40.64-77.66-1.94-2.09-4.94-4.07-4.93-7.18 0-15.8-13.62-22.18-22.46-31.29-5.27-5.44-11.14-9.41-11.69-17.59a6.65 6.65 0 0 0 -2.21-4.57c-5.1-4.67-9.91-9.77-17.39-10.62-3.85-.44-6.69-2.59-9.43-5.35a88.09 88.09 0 0 0 -33.32-21.16c-4.12-1.46-8.17-.18-9.71 3-1.93 3.76 2.54 5.25 5.27 6.47z" />
        <path d="m612.32 413.26s0 0 0 0z" />
        <path d="m424.09 402.55c15-2.64 29.62-6 44.93-7.49 26.42-2.52 52.27 2.43 78.43 2.67 20.15.19 39.25 7.15 57.72 15.15a9.41 9.41 0 0 0 7.11.39c-.88-3.63-2.67-5.62-6.85-6.46-11-2.2-21.48-6.6-31.92-10.23-15.69-5.46-31.29-10.87-47.71-12.14-28.64-2.21-57.39-.6-85.72 3.51s-53.91 17.53-79.47 29.91c-5.87 2.84-10.66 7.91-16.22 12.15 2.9 1.83 4.55.41 6.32-.33 24.03-10.17 47.17-22.49 73.38-27.13z" />
        <path d="m296.24 465.88c10.24-7 21-13 27-24.8-19.17 1.08-27.57 8.74-27 24.8z" />
        <path d="m638.26 935.88c-1.73-5.21-6.57-6-10.12-4.73s-4.35 6-3.32 9.79c.83 3.06 2.77 5.84 6.65 4.25 4.38-1.71 8.83-3.19 6.79-9.31z" />
        <path d="m625.47 419c-2.84-6.61-7.83-6.51-13.1-5.73 3.83 2.84 6.95 7.37 13.1 5.73z" />
        <path d="m612.32 413.26v.05h.08z" />
        <path d="m721.68 222.23c-3.44-.29-7 .46-10.41.47-8.86 0-17.63 2.14-26.61.29-6.82-1.41-13.84-4.58-20.68-2.93-9.58 2.31-19.21 1.85-28.79 2.38-15 .84-30.22 1.53-44.64 5.58-26.07 7.32-50.41 19.17-73.45 33.28-5.52 3.38-12.08 4.71-16.86 9.32a153.56 153.56 0 0 1 -15.48 12.92c-9 6.65-19 12.35-26.11 21-9.6 11.62-20.72 21.67-31 32.59-8.92 9.49-17.14 19.62-20.18 32.65-3.49 15-5.42 30.48-13 44.11-3.29 5.91-2.1 13.73-6.2 18.07-4.75 5-6.86 10.88-9.74 16.56-3.76 7.42-3.53 14.92 1.17 22a14.1 14.1 0 0 1 2.41 9.16c-2.84 21.53-3.38 43.18-4 64.83-.1 3.87.53 8.16-2.86 11.31-.93.86-1.75 1.87-1.31 3.26 3.4 10.61.88 22.51 7.19 32.52.71 1.13.31 2.94.45 4.43a127.67 127.67 0 0 0 16.58 52.46c6.91 12.08 18.22 21.1 24.36 33.87a107.29 107.29 0 0 0 8.76 14.77c19.68 28.21 46.86 48.34 74.78 67.27 14.7 10 31 17.62 46.44 26.54 21.81 12.6 45.3 19.8 69.68 24.08 22 3.86 44.32 2.34 66.58 1.52 15.7-.58 29.94-7.25 45.39-9.22 18.6-2.37 34.38-13.25 50.38-22.43 13.18-7.55 25.58-16.63 38.65-24.2 17-9.84 33.25-20.34 47.11-34.1a475.24 475.24 0 0 0 35.46-38.59c10.73-13.29 21.22-26.9 28.48-42.71 4-8.65 5.55-18 8.29-26.87 1.89-6.16 8.65-8.71 8.55-14.78-.17-10.47 5.83-18.47 9.54-27.42.92-2.22.72-4.9 1-7.37 1-7.55-2.15-14.82-1.29-22.43 1.87-16.46 1.61-33 .46-49.47-.42-6 .39-12.82-5.08-19.59-2.08 13.55-3.73 25.59-3.46 37.73.83 37.88-10.36 73.25-23.35 108-7.06 18.89-19.64 35.3-28.51 53.59-10.53 21.73-29.38 37.36-47 53.18a226.82 226.82 0 0 1 -63.57 40.66c-15.48 6.5-31.21 13.28-47.66 15.93-17.24 2.77-34.18 7.27-51.7 8.81-11.78 1-24 .2-35.29 5.2a3.71 3.71 0 0 1 -2.78-.51c-9.24-5.28-19.91-4.53-29.6-4.74-10.6-.23-21.08-2-31-3.91a167.3 167.3 0 0 1 -51.28-18.33c-3.2-1.81-7.18-3.67-10.61-3.37-6.3.56-10.26-2.67-14.77-5.92-7-5-12-12.6-19.07-17-11.11-7-20.87-15.21-30.42-24-3-2.78-4.15-8.83-9.07-8.07-4.68.71-6.47-2.09-8.64-4.49a123.15 123.15 0 0 1 -10.59-13.31c-8-11.69-15.23-23.9-23.62-35.28a79.79 79.79 0 0 1 -14.22-31.73c-3.18-15.88-8.91-31-12.08-47-2.05-10.31-2.59-20.72-4.26-31-2.72-16.7 1.65-33.52 1.72-50.36 0-11 4.14-21.53 3.32-32.65-.52-7 6.2-14.23-.43-21.18 4-4.47 3.43-10.59 5.64-15.71 9.26-21.54 18.47-43 30.21-63.49 17.63-30.81 40.75-56.33 67.87-78.49 14.72-12 32.3-19.41 49.47-27.36 16-7.4 32.67-12.14 49.85-15.57 16.45-3.28 33-4.93 49.76-6.16 15.25-1.11 30.39-2.35 45.62-.86a110.58 110.58 0 0 1 35.92 9.37c6.91 3.17 15.27 4.48 23 6.65 39.38 11.01 73.9 31.89 107.12 54.66a234.84 234.84 0 0 1 52.08 49.24c.88 1.12 1.85 3.12 3.91 1.74-6.56-18.61-21.7-30.62-34.14-44.47s-28.15-24.35-42-36.72c43.73 23.76 72.93 61.71 99 102.72-5.18-13.13-10.41-25.77-18-37.4-5.29-8.11-12.92-13.81-18.7-21.38a222 222 0 0 0 -56.27-52c-10.27-6.65-21.41-12-31.58-18.78-25.84-17.23-53.68-28.73-84.84-31.37z" />
        <path d="m957.77 427.77c-5.31-5.63-11.22-10.68-15.72-17.32 6.26 13.45 9 27.89 13.89 41.59 8.66-8.58 9.48-16.16 1.83-24.27z" />
        <path d="m291.2 804c3.45.16 7-.72 10.39-.86 8.84-.36 17.53-2.81 26.58-1.29 6.86 1.15 14 4.06 20.78 2.15 9.48-2.67 19.12-2.57 28.67-3.46 15-1.41 30.14-2.67 44.4-7.25 25.78-8.3 49.65-21.06 72.14-36 5.4-3.59 11.9-5.16 16.5-10a155 155 0 0 1 15-13.5c8.73-7 18.49-13 25.3-22 9.15-12 19.89-22.44 29.73-33.74 8.55-9.81 16.38-20.24 18.93-33.38 2.93-15.1 4.28-30.66 11.36-44.57 3.07-6 1.59-13.8 5.52-18.29 4.56-5.21 6.45-11.13 9.11-16.91 3.48-7.56 3-15-2-21.92a14 14 0 0 1 -2.75-9.07c2-21.62 1.74-43.27 1.53-64.93 0-3.87-.84-8.14 2.44-11.41.89-.9 1.68-1.94 1.18-3.31-3.79-10.47-1.72-22.46-8.4-32.23-.75-1.09-.43-2.92-.62-4.4a127.51 127.51 0 0 0 -18.54-51.8c-7.36-11.81-19-20.4-25.62-32.93a106.9 106.9 0 0 0 -9.31-14.43c-20.72-27.42-48.64-46.47-77.25-64.37-15.07-9.41-31.65-16.45-47.41-24.78-22.27-11.77-46-18.09-70.53-21.44-22.12-3-44.38-.68-66.59 1-15.67 1.17-29.65 8.37-45 10.92-18.5 3.06-33.86 14.54-49.51 24.31-12.88 8-24.93 17.58-37.71 25.63-16.62 10.48-32.46 21.58-45.8 35.85a477.39 477.39 0 0 0 -34 39.89c-10.22 13.68-20.19 27.68-26.85 43.75-3.62 8.77-4.87 18.15-7.24 27.14-1.66 6.22-8.33 9-8 15.09.57 10.45-5.13 18.67-8.49 27.76-.84 2.25-.55 4.92-.78 7.4-.72 7.59 2.71 14.73 2.13 22.37-1.25 16.51-.37 33 1.4 49.46.65 6 .09 12.82 5.81 19.38 1.58-13.62 2.77-25.71 2-37.84-2.2-37.81 7.65-73.59 19.3-108.77 6.35-19.14 18.3-36 26.47-54.62 9.71-22.11 28-38.44 45-54.91a226.75 226.75 0 0 1 62-43c15.23-7.08 30.69-14.45 47-17.71 17.12-3.42 33.88-8.56 51.33-10.75 11.73-1.47 24-1.1 35.06-6.52a3.69 3.69 0 0 1 2.8.4c9.44 4.93 20.07 3.78 29.76 3.63 10.6-.18 21.14 1.23 31.11 2.74a167.46 167.46 0 0 1 51.93 16.39c3.27 1.69 7.31 3.39 10.72 3 6.28-.79 10.37 2.29 15 5.36 7.19 4.79 12.48 12.15 19.7 16.31 11.36 6.55 21.43 14.42 31.3 22.87 3.1 2.66 4.48 8.66 9.36 7.73 4.66-.9 6.55 1.83 8.81 4.15a126.23 126.23 0 0 1 11.09 12.91c8.41 11.38 16.11 23.3 24.92 34.36a79.87 79.87 0 0 1 15.41 31.18c3.77 15.74 10.06 30.67 13.83 46.49 2.46 10.16 3.4 20.55 5.4 30.77 3.35 16.59-.38 33.57.18 50.4.37 10.95-3.33 21.66-2.09 32.75.78 7-5.66 14.45 1.22 21.15-3.86 4.61-3 10.71-5 15.91-8.45 21.87-16.85 43.63-27.8 64.58-16.46 31.44-38.6 57.82-64.87 81-14.26 12.56-31.55 20.6-48.41 29.19-15.68 8-32.19 13.36-49.23 17.44-16.31 3.9-32.81 6.17-49.49 8-15.2 1.69-30.28 3.49-45.56 2.58a110.18 110.18 0 0 1 -36.24-8c-7-2.9-15.44-3.9-23.22-5.78-39.73-9.58-75-29.14-109.06-50.64a235.11 235.11 0 0 1 -53.9-47.25c-.92-1.09-2-3-4-1.59 7.26 18.35 22.84 29.78 35.79 43.15s29 23.28 43.3 35.12c-44.56-22.15-75.16-59.01-102.72-99.01 5.67 12.93 11.37 25.36 19.4 36.7 5.59 7.9 13.43 13.31 19.49 20.66a222.17 222.17 0 0 0 58.21 49.86c10.52 6.26 21.85 11.18 32.27 17.58 26.44 16.26 54.73 26.71 85.93 28.2z" />
        <path d="m47.55 607.46c5.52 5.43 11.62 10.25 16.36 16.72-6.76-13.2-10-27.54-15.44-41-8.34 8.82-8.87 16.46-.92 24.28z" />
    </g>
</svg>