<svg id="Layer_1" version="1.1" xmlns="http://www.w3.org/2000/svg"
  xmlns:xlink="http://www.w3.org/1999/xlink" x="0px" y="0px" viewbox="0 0 196.83 35.4"
  style="enable-background:new 0 0 196.83 35.4;" xml:space="preserve">
                    <g>
                        <path class="st0"
                            d="M41.03,6.51c-0.02,0.42-0.11,0.83-0.27,1.22s-0.37,0.78-0.61,1.15c-0.25,0.37-0.51,0.73-0.78,1.07                  c-0.28,0.34-0.54,0.66-0.78,0.97c-0.68,0.85-1.4,1.67-2.15,2.45c-0.75,0.78-1.51,1.55-2.29,2.31c-1.71,1.65-3.46,3.25-5.24,4.78                  c-1.78,1.54-3.65,2.98-5.61,4.33c-0.36,0.25-0.76,0.52-1.21,0.83c-0.45,0.3-0.91,0.58-1.4,0.84c-0.48,0.26-0.97,0.46-1.47,0.61                  c-0.49,0.15-0.97,0.2-1.42,0.14c-0.42-0.06-0.74-0.22-0.97-0.48c-0.23-0.27-0.39-0.57-0.5-0.93c-0.1-0.35-0.15-0.73-0.14-1.12                  s0.04-0.76,0.1-1.08c0.17-1.03,0.44-2.04,0.8-3.03c0.36-1,0.73-1.98,1.11-2.95l1.45-3.5c0.15-0.34,0.33-0.72,0.53-1.12                  c0.2-0.41,0.35-0.82,0.44-1.24c-0.32,0.08-0.65,0.18-0.97,0.3c-0.32,0.12-0.63,0.25-0.91,0.38c-0.8,0.34-1.58,0.72-2.35,1.12                  c-0.77,0.41-1.53,0.83-2.29,1.27c-1.44,0.85-2.85,1.77-4.21,2.73c-1.37,0.97-2.68,2.01-3.93,3.13c-0.57,0.51-1.12,1.04-1.65,1.59                  c-0.53,0.55-1.02,1.13-1.45,1.74c-0.17,0.23-0.35,0.49-0.54,0.78c-0.19,0.29-0.35,0.6-0.48,0.93c-0.13,0.32-0.22,0.65-0.26,0.97                  c-0.04,0.32,0.02,0.64,0.17,0.94c0.08,0.19,0.1,0.39,0.07,0.6c-0.03,0.21-0.1,0.38-0.21,0.53c-0.11,0.14-0.26,0.23-0.44,0.26                  c-0.18,0.03-0.38-0.06-0.58-0.27c-0.21-0.19-0.36-0.43-0.44-0.71C0.04,27.75,0,27.45,0,27.15c0-0.3,0.03-0.61,0.09-0.91                  c0.06-0.3,0.13-0.57,0.23-0.8c0.25-0.72,0.59-1.41,1.04-2.05c0.45-0.65,0.94-1.26,1.49-1.84c0.55-0.58,1.13-1.12,1.74-1.64                  s1.2-1.01,1.77-1.48c1.31-1.08,2.67-2.09,4.07-3.02c1.4-0.93,2.85-1.82,4.33-2.68c0.66-0.38,1.33-0.74,2.01-1.1                  c0.67-0.35,1.37-0.67,2.09-0.95c0.36-0.15,0.75-0.31,1.18-0.47c0.43-0.16,0.84-0.22,1.24-0.18c0.42-0.02,0.69,0.13,0.81,0.44                  s0.15,0.71,0.09,1.18c-0.07,0.47-0.2,1-0.4,1.58c-0.2,0.58-0.41,1.14-0.63,1.68c-0.22,0.54-0.43,1.02-0.63,1.42                  c-0.2,0.41-0.33,0.69-0.38,0.84c-0.36,0.87-0.71,1.75-1.05,2.63c-0.34,0.88-0.65,1.78-0.91,2.69c-0.04,0.13-0.1,0.35-0.18,0.66                  c-0.09,0.3-0.16,0.62-0.21,0.95c-0.06,0.33-0.08,0.64-0.06,0.93s0.11,0.47,0.28,0.57c0.23,0.04,0.47,0.02,0.73-0.06                  c0.26-0.08,0.51-0.18,0.77-0.3c0.26-0.12,0.5-0.26,0.74-0.4c0.24-0.14,0.46-0.27,0.67-0.38c1.42-0.87,2.77-1.8,4.04-2.79                  c1.25-0.93,2.46-1.89,3.62-2.88c1.16-0.99,2.3-2.01,3.42-3.08c1.08-1.03,2.14-2.07,3.16-3.15c1.02-1.07,1.98-2.21,2.88-3.4                  c0.32-0.44,0.6-0.87,0.83-1.31c0.23-0.44,0.43-0.9,0.6-1.4c0.08-0.21,0.16-0.39,0.26-0.56c0.09-0.16,0.27-0.24,0.54-0.24                  c0.23,0,0.42,0.09,0.57,0.26C40.96,6.11,41.03,6.3,41.03,6.51z">
                        </path>
                        <path class="st0"
                            d="M37.02,19.98c0.25,0.02,0.44,0.08,0.57,0.19c0.13,0.1,0.22,0.24,0.27,0.4c0.05,0.16,0.06,0.34,0.04,0.53                  c-0.02,0.19-0.05,0.38-0.09,0.57c0.17-0.04,0.34-0.06,0.5-0.07c0.16-0.01,0.3-0.03,0.41-0.07c0.47-0.11,0.96-0.26,1.45-0.43                  c0.63-0.21,1.26-0.41,1.89-0.61c0.64-0.2,1.29-0.35,1.95-0.44h0.31c0.27-0.36,0.55-0.71,0.84-1.04c0.29-0.33,0.57-0.64,0.83-0.93                  c0.26-0.28,0.48-0.53,0.68-0.73c0.2-0.2,0.35-0.34,0.44-0.41l0.43-0.43h-0.03c-0.4,0.04-0.79,0.07-1.18,0.09                  c-0.39,0.02-0.79,0.06-1.21,0.11c-0.1,0-0.2,0.01-0.31,0.04c-0.11,0.03-0.22,0.02-0.31-0.01c-0.19-0.09-0.28-0.24-0.26-0.44                  c0.02-0.2,0.12-0.32,0.31-0.36c1.33-0.23,2.71-0.4,4.13-0.51c0.51-0.49,1.03-0.97,1.57-1.44c0.53-0.47,1.07-0.93,1.62-1.41                  c0.25-0.23,0.54-0.52,0.87-0.87c0.33-0.35,0.67-0.57,1.01-0.67c0.19-0.06,0.36-0.05,0.5,0.01s0.25,0.17,0.33,0.31                  s0.1,0.3,0.09,0.47c-0.02,0.17-0.09,0.32-0.23,0.46c-0.59,0.49-1.16,0.98-1.72,1.47c-0.56,0.48-1.12,0.97-1.67,1.47                  c0.53-0.02,1.08-0.03,1.64-0.03c0.56,0,1.11,0.02,1.67,0.06c0.55,0.04,1.09,0.11,1.62,0.21c0.53,0.1,1.03,0.26,1.48,0.47                  c0.21,0.09,0.39,0.23,0.54,0.4c0.15,0.17,0.25,0.39,0.28,0.66c0.02,0.25-0.04,0.44-0.18,0.57c-0.14,0.13-0.3,0.21-0.48,0.24                  c-0.18,0.03-0.36,0-0.54-0.07c-0.18-0.08-0.3-0.22-0.36-0.43c-0.15-0.09-0.33-0.17-0.53-0.21c-0.2-0.05-0.4-0.09-0.61-0.11                  c-0.21-0.03-0.42-0.05-0.63-0.07c-0.21-0.02-0.39-0.04-0.54-0.06c-0.55-0.06-1.1-0.1-1.64-0.14c-0.54-0.04-1.09-0.07-1.64-0.09                  l-1.57-0.06l-0.26,0.26c-0.78,0.74-1.6,1.54-2.46,2.41c-0.86,0.86-1.54,1.79-2.04,2.78c0.66-0.15,1.32-0.37,1.96-0.67                  c0.65-0.29,1.28-0.56,1.91-0.78c0.38-0.13,0.76-0.25,1.15-0.36c0.39-0.1,0.78-0.18,1.18-0.21c0.17-0.02,0.34,0,0.51,0.06                  c0.17,0.06,0.31,0.14,0.43,0.26c0.11,0.11,0.19,0.25,0.21,0.41c0.03,0.16-0.02,0.34-0.16,0.53c-0.15,0.21-0.38,0.32-0.68,0.34                  c-0.3,0.02-0.57,0.06-0.8,0.11c-0.51,0.1-1.02,0.24-1.51,0.43c-0.49,0.19-0.99,0.39-1.48,0.6s-1.03,0.43-1.59,0.66                  c-0.57,0.23-1.14,0.33-1.71,0.31c-0.68-0.04-1.08-0.24-1.18-0.6s-0.02-0.82,0.24-1.37l-0.8,0.2c-0.57,0.15-1.13,0.31-1.69,0.48                  c-0.56,0.17-1.12,0.35-1.67,0.54c-0.32,0.11-0.7,0.24-1.12,0.38s-0.82,0.16-1.18,0.04c-0.23-0.1-0.39-0.22-0.5-0.38                  c-0.1-0.16-0.17-0.34-0.2-0.54s-0.02-0.4,0.01-0.61c0.04-0.21,0.09-0.41,0.14-0.6c-0.08-0.11-0.11-0.25-0.11-0.4                  c0-0.15,0.03-0.29,0.09-0.41c0.06-0.12,0.15-0.23,0.27-0.31S36.83,19.98,37.02,19.98z M44.31,14.65c0,0.21-0.03,0.37-0.09,0.48                  s-0.14,0.19-0.26,0.24c-0.11,0.05-0.25,0.06-0.4,0.04c-0.15-0.02-0.3-0.05-0.46-0.09c0,0.36-0.13,0.67-0.4,0.94                  c-0.19,0.19-0.48,0.34-0.87,0.46c-0.39,0.11-0.81,0.18-1.27,0.2c-0.46,0.02-0.91,0-1.37-0.07s-0.85-0.19-1.2-0.36                  c-0.34-0.17-0.59-0.4-0.74-0.68c-0.15-0.28-0.14-0.64,0.03-1.05c0.13-0.36,0.36-0.64,0.67-0.84c0.31-0.2,0.66-0.35,1.05-0.44                  c0.39-0.09,0.79-0.15,1.2-0.17c0.41-0.02,0.77-0.02,1.1,0c0.19,0,0.45,0.02,0.78,0.06c0.33,0.04,0.66,0.1,0.98,0.2                  c0.32,0.1,0.6,0.23,0.84,0.4C44.16,14.14,44.29,14.37,44.31,14.65z M42.09,15.48c0.08-0.21,0.03-0.39-0.14-0.54                  c-0.04-0.02-0.07-0.03-0.09-0.03s-0.04-0.01-0.06-0.03c-0.21-0.04-0.47-0.08-0.78-0.13c-0.31-0.05-0.64-0.07-0.97-0.07                  c-0.33,0-0.64,0.04-0.93,0.13c-0.28,0.08-0.49,0.22-0.63,0.41c0,0.02-0.01,0.04-0.03,0.06c0.04,0.15,0.18,0.27,0.41,0.36                  c0.24,0.09,0.5,0.15,0.78,0.19c0.28,0.04,0.56,0.06,0.83,0.06c0.27,0,0.45,0,0.54,0c0.19-0.04,0.37-0.08,0.56-0.13                  C41.77,15.7,41.93,15.61,42.09,15.48z">
                        </path>
                        <path class="st0"
                            d="M51.51,19.98c0.25,0.02,0.44,0.08,0.57,0.19c0.13,0.1,0.22,0.24,0.27,0.4c0.05,0.16,0.06,0.34,0.04,0.53                  c-0.02,0.19-0.05,0.38-0.09,0.57c0.17-0.04,0.34-0.06,0.5-0.07c0.16-0.01,0.3-0.03,0.41-0.07c0.47-0.11,0.96-0.26,1.45-0.43                  c0.63-0.21,1.26-0.41,1.89-0.61c0.64-0.2,1.29-0.35,1.95-0.44c0.19-0.02,0.39,0,0.61,0.06c0.22,0.06,0.4,0.15,0.54,0.28                  c0.14,0.13,0.22,0.29,0.23,0.47c0.01,0.18-0.11,0.37-0.36,0.56c-0.13,0.09-0.27,0.14-0.41,0.14c-0.14,0-0.29,0.01-0.44,0.03                  c-0.28,0.04-0.57,0.09-0.85,0.14c-0.28,0.06-0.56,0.12-0.83,0.2c-0.57,0.15-1.13,0.31-1.69,0.48c-0.56,0.17-1.12,0.35-1.67,0.54                  c-0.32,0.11-0.7,0.24-1.12,0.38s-0.82,0.16-1.18,0.04c-0.23-0.1-0.39-0.22-0.5-0.38c-0.1-0.16-0.17-0.34-0.2-0.54                  s-0.02-0.4,0.01-0.61c0.04-0.21,0.09-0.41,0.14-0.6c-0.08-0.11-0.11-0.25-0.11-0.4c0-0.15,0.03-0.29,0.09-0.41                  c0.06-0.12,0.15-0.23,0.27-0.31C51.16,20.02,51.32,19.98,51.51,19.98z M58.8,14.65c0,0.21-0.03,0.37-0.09,0.48                  s-0.14,0.19-0.26,0.24c-0.11,0.05-0.25,0.06-0.4,0.04c-0.15-0.02-0.3-0.05-0.46-0.09c0,0.36-0.13,0.67-0.4,0.94                  c-0.19,0.19-0.48,0.34-0.87,0.46c-0.39,0.11-0.81,0.18-1.27,0.2c-0.46,0.02-0.91,0-1.37-0.07s-0.85-0.19-1.2-0.36                  c-0.34-0.17-0.59-0.4-0.74-0.68c-0.15-0.28-0.14-0.64,0.03-1.05c0.13-0.36,0.36-0.64,0.67-0.84s0.66-0.35,1.05-0.44                  c0.39-0.09,0.79-0.15,1.2-0.17s0.77-0.02,1.1,0c0.19,0,0.45,0.02,0.78,0.06c0.33,0.04,0.66,0.1,0.98,0.2                  c0.32,0.1,0.6,0.23,0.84,0.4C58.65,14.14,58.78,14.37,58.8,14.65z M56.58,15.48c0.08-0.21,0.03-0.39-0.14-0.54                  c-0.04-0.02-0.07-0.03-0.09-0.03c-0.02,0-0.04-0.01-0.06-0.03c-0.21-0.04-0.47-0.08-0.78-0.13c-0.31-0.05-0.64-0.07-0.97-0.07                  c-0.33,0-0.64,0.04-0.93,0.13c-0.28,0.08-0.49,0.22-0.63,0.41c0,0.02-0.01,0.04-0.03,0.06c0.04,0.15,0.18,0.27,0.41,0.36                  c0.24,0.09,0.5,0.15,0.78,0.19c0.28,0.04,0.56,0.06,0.83,0.06c0.27,0,0.45,0,0.54,0c0.19-0.04,0.37-0.08,0.56-0.13                  C56.26,15.7,56.43,15.61,56.58,15.48z">
                        </path>
                        <path class="st0"
                            d="M58.91,19.98c0.15,0,0.3,0.02,0.44,0.07c0.14,0.05,0.26,0.13,0.36,0.24c0.17,0.21,0.25,0.4,0.24,0.58                  c-0.01,0.18-0.06,0.36-0.16,0.53c0.49-0.09,0.99-0.21,1.48-0.34c0.49-0.13,0.99-0.27,1.48-0.4c0.23-0.06,0.47-0.12,0.74-0.2                  c0.27-0.08,0.54-0.13,0.81-0.17c0.28-0.04,0.55-0.05,0.83-0.04c0.27,0.01,0.53,0.07,0.75,0.19c0.32,0.15,0.51,0.33,0.57,0.54                  s0.04,0.43-0.06,0.65c0.27-0.08,0.53-0.15,0.8-0.21c0.27-0.07,0.53-0.15,0.8-0.24c0.51-0.15,1.03-0.31,1.55-0.47                  c0.52-0.16,1.05-0.32,1.58-0.47c0.25-0.08,0.54-0.16,0.87-0.24c0.33-0.09,0.62-0.04,0.87,0.13c0.15,0.11,0.25,0.25,0.28,0.41                  c0.04,0.16,0.03,0.32-0.01,0.48c-0.05,0.16-0.14,0.29-0.27,0.4c-0.13,0.1-0.28,0.16-0.46,0.16c-0.72,0.06-1.45,0.23-2.19,0.51                  c-0.74,0.28-1.45,0.53-2.14,0.74c-0.21,0.06-0.45,0.13-0.73,0.23c-0.28,0.09-0.56,0.18-0.84,0.26c-0.28,0.08-0.57,0.12-0.85,0.14                  c-0.28,0.02-0.54-0.02-0.77-0.11c-0.27-0.11-0.45-0.31-0.56-0.58c-0.1-0.28-0.12-0.56-0.04-0.84c-0.42,0.04-0.83,0.1-1.22,0.2                  c-0.4,0.1-0.8,0.19-1.2,0.28c-0.27,0.08-0.55,0.16-0.84,0.26c-0.29,0.1-0.59,0.19-0.88,0.28s-0.59,0.17-0.88,0.23                  s-0.58,0.08-0.87,0.06c-0.17-0.02-0.34-0.08-0.51-0.17c-0.23-0.15-0.36-0.31-0.4-0.48c-0.04-0.17-0.02-0.34,0.04-0.51                  c0.07-0.17,0.16-0.34,0.28-0.51c0.12-0.17,0.24-0.33,0.36-0.48c-0.08-0.25-0.05-0.49,0.07-0.73                  C58.37,20.09,58.59,19.98,58.91,19.98z">
                        </path>
                        <path class="st0"
                            d="M100.4,16.22c-0.65,0.55-1.3,1.11-1.95,1.67c-0.66,0.56-1.3,1.14-1.92,1.75c2.37-0.34,4.7-0.83,6.99-1.47                  c2.29-0.64,4.47-1.5,6.56-2.61c0.3-0.15,0.67-0.37,1.1-0.64c0.43-0.27,0.85-0.57,1.27-0.9c0.42-0.32,0.79-0.67,1.12-1.04                  c0.33-0.37,0.55-0.74,0.66-1.1c0.1-0.36,0.06-0.71-0.14-1.04c-0.2-0.33-0.61-0.63-1.24-0.9c-0.8-0.34-1.64-0.58-2.53-0.72                  c-0.89-0.14-1.8-0.23-2.72-0.27c-0.92-0.04-1.84-0.03-2.75,0.03c-0.91,0.06-1.79,0.11-2.65,0.17c-1.46,0.1-2.96,0.25-4.5,0.47                  c-1.54,0.22-3.05,0.54-4.53,0.95c-1.48,0.42-2.9,0.97-4.26,1.65c-1.36,0.68-2.59,1.55-3.69,2.59c-0.57,0.55-1.05,1.16-1.44,1.82                  c-0.39,0.67-0.63,1.34-0.71,2.04c-0.09,0.69,0.01,1.37,0.28,2.02c0.27,0.66,0.8,1.23,1.58,1.72c0.19,0.13,0.36,0.27,0.51,0.41                  c0.15,0.14,0.2,0.35,0.14,0.61c-0.06,0.27-0.21,0.46-0.46,0.57c-0.25,0.11-0.48,0.1-0.71-0.03c-0.61-0.36-1.15-0.8-1.64-1.31                  s-0.86-1.1-1.12-1.77c-0.27-0.74-0.36-1.48-0.28-2.21c0.08-0.73,0.27-1.43,0.58-2.11c0.31-0.67,0.71-1.31,1.2-1.89                  c0.48-0.59,1-1.12,1.55-1.59c1.27-1.08,2.68-1.96,4.21-2.62c1.54-0.66,3.1-1.21,4.7-1.65c1.44-0.37,2.89-0.66,4.34-0.85                  c1.45-0.2,2.92-0.34,4.4-0.43c1.65-0.11,3.32-0.16,5-0.14c1.68,0.02,3.33,0.24,4.94,0.67c0.65,0.19,1.3,0.45,1.95,0.78                  c0.66,0.34,1.14,0.83,1.47,1.47c0.32,0.66,0.37,1.32,0.13,1.96c-0.24,0.65-0.57,1.22-1.01,1.71c-0.46,0.51-0.96,0.98-1.52,1.4                  c-0.56,0.42-1.15,0.8-1.78,1.14c-0.63,0.34-1.26,0.65-1.91,0.93c-0.65,0.28-1.28,0.53-1.91,0.75c-1.67,0.65-3.36,1.19-5.07,1.62                  c-1.71,0.44-3.45,0.81-5.21,1.11l0.63,0.2c0.47,0.17,0.92,0.41,1.34,0.73c0.42,0.31,0.74,0.67,0.98,1.07s0.35,0.83,0.34,1.3                  c-0.01,0.47-0.21,0.94-0.61,1.44c-0.32,0.38-0.7,0.7-1.14,0.97c-0.44,0.27-0.9,0.48-1.38,0.64c-0.48,0.16-0.98,0.28-1.48,0.36                  c-0.5,0.08-0.99,0.12-1.47,0.14c-0.32,0.02-0.66,0.02-1,0c-0.34-0.02-0.67-0.07-1-0.16c-0.32-0.09-0.63-0.21-0.91-0.38                  s-0.51-0.41-0.68-0.71c-0.23-0.38-0.33-0.78-0.31-1.2c0.02-0.42,0.1-0.83,0.26-1.24c0.15-0.41,0.36-0.81,0.61-1.2                  c0.26-0.39,0.52-0.75,0.78-1.1c-0.32,0-0.67,0.02-1.03,0.07c-0.36,0.05-0.69,0.03-1-0.04c-0.19-0.04-0.35-0.09-0.48-0.14                  c-0.13-0.06-0.24-0.19-0.31-0.4c-0.13-0.34-0.1-0.59,0.11-0.75c0.21-0.16,0.45-0.26,0.71-0.3c0.08-0.08,0.18-0.11,0.31-0.1                  c0.13,0.01,0.28,0.02,0.43,0.04c0.47-0.04,0.95-0.08,1.42-0.13c0.47-0.05,0.96-0.09,1.45-0.13c0.53-0.57,1.08-1.12,1.65-1.65                  c0.57-0.53,1.15-1.06,1.74-1.59c0.32-0.28,0.67-0.63,1.04-1.02c0.37-0.4,0.75-0.67,1.15-0.83c0.21-0.08,0.4-0.08,0.57,0                  c0.17,0.08,0.3,0.19,0.4,0.36c0.09,0.16,0.13,0.34,0.11,0.53C100.67,15.92,100.57,16.08,100.4,16.22z M94.99,22                  c-0.1-0.02-0.19-0.03-0.3-0.04c-0.1-0.01-0.2-0.01-0.3-0.01c-0.46,0.53-0.89,1.13-1.31,1.79c-0.17,0.27-0.32,0.54-0.44,0.81                  c-0.12,0.27-0.18,0.53-0.18,0.75s0.08,0.43,0.24,0.6c0.16,0.17,0.44,0.28,0.84,0.34c0.55,0.09,1.11,0.12,1.67,0.07                  c0.56-0.05,1.1-0.15,1.61-0.3c0.21-0.06,0.49-0.17,0.84-0.33s0.67-0.36,0.97-0.58c0.29-0.23,0.5-0.48,0.61-0.75                  c0.11-0.28,0.05-0.57-0.2-0.87c-0.23-0.27-0.5-0.49-0.83-0.67c-0.32-0.18-0.67-0.32-1.04-0.43c-0.37-0.1-0.74-0.19-1.12-0.24                  C95.67,22.08,95.31,22.04,94.99,22z">
                        </path>
                        <path class="st0"
                            d="M120.19,12.97c-0.95,0.55-1.84,1.2-2.68,1.95c-0.84,0.75-1.65,1.51-2.45,2.29c-0.46,0.44-0.9,0.88-1.34,1.34                  c-0.44,0.46-0.87,0.91-1.31,1.37c-0.23,0.27-0.47,0.53-0.73,0.78c-0.26,0.26-0.51,0.53-0.75,0.81c0.4-0.09,0.79-0.21,1.18-0.34                  c0.39-0.13,0.74-0.25,1.07-0.34c0.28-0.06,0.59-0.13,0.91-0.23c0.32-0.09,0.65-0.18,0.97-0.24c0.32-0.07,0.65-0.1,0.98-0.11                  c0.33-0.01,0.64,0.04,0.93,0.16c0.36,0.13,0.58,0.36,0.65,0.68c0.06,0.21,0.04,0.41-0.06,0.6c0.32-0.09,0.64-0.2,0.95-0.31                  c0.31-0.11,0.61-0.22,0.9-0.31c0.55-0.17,1.1-0.35,1.65-0.53c0.55-0.18,1.11-0.33,1.68-0.44c0.15-0.04,0.34-0.06,0.56-0.07                  c0.22-0.01,0.41,0.01,0.58,0.07s0.3,0.16,0.38,0.3c0.09,0.14,0.09,0.35,0.01,0.61c-0.06,0.17-0.17,0.31-0.34,0.41                  c-0.17,0.1-0.37,0.18-0.6,0.24s-0.46,0.1-0.68,0.13c-0.23,0.03-0.41,0.06-0.54,0.1c-0.65,0.19-1.28,0.38-1.91,0.58                  c-0.63,0.2-1.25,0.39-1.88,0.58c-0.32,0.09-0.67,0.19-1.05,0.3s-0.74,0.12-1.08,0.04c-0.13-0.02-0.28-0.08-0.43-0.17                  c-0.32-0.25-0.47-0.47-0.46-0.68c0.02-0.21,0.1-0.42,0.26-0.63h-0.34c-0.68,0.11-1.37,0.26-2.05,0.43                  c-0.55,0.15-1.11,0.32-1.67,0.51c-0.56,0.19-1.13,0.31-1.72,0.37c-0.21,0.02-0.42-0.01-0.63-0.1c-0.21-0.09-0.36-0.25-0.46-0.5                  c-0.06-0.19-0.05-0.39,0.01-0.6c0.07-0.21,0.17-0.41,0.31-0.61s0.29-0.38,0.46-0.56c0.16-0.17,0.3-0.32,0.41-0.46                  c0.97-1.1,1.97-2.16,3.02-3.17c1.04-1.02,2.12-2.01,3.22-2.98c0.47-0.42,0.96-0.83,1.45-1.22c0.49-0.4,1-0.77,1.51-1.11                  c0.21-0.15,0.44-0.25,0.7-0.3c0.26-0.05,0.47,0.06,0.64,0.33c0.09,0.17,0.12,0.36,0.07,0.56C120.47,12.7,120.36,12.86,120.19,12.97                  z">
                        </path>
                        <path class="st0"
                            d="M127.34,19.95c0.09,0.04,0.18,0.08,0.26,0.13c0.08,0.05,0.14,0.1,0.2,0.16c0.38-0.04,0.76,0.02,1.14,0.17                  c0.38,0.21,0.58,0.43,0.6,0.67c0.02,0.24-0.05,0.49-0.2,0.75c0.42-0.06,0.84-0.15,1.27-0.28c0.43-0.13,0.85-0.28,1.27-0.46                  c0.42-0.17,0.83-0.34,1.24-0.51c0.41-0.17,0.8-0.31,1.18-0.43c0.21-0.06,0.43-0.11,0.67-0.17c0.24-0.06,0.46-0.01,0.67,0.14                  c0.17,0.13,0.28,0.28,0.31,0.43s0.03,0.3-0.03,0.44s-0.15,0.27-0.28,0.38c-0.13,0.11-0.28,0.18-0.46,0.2                  c-0.61,0.1-1.21,0.27-1.79,0.53c-0.59,0.26-1.17,0.48-1.74,0.67c-0.27,0.1-0.55,0.2-0.85,0.31c-0.3,0.11-0.62,0.21-0.94,0.28                  c-0.32,0.08-0.65,0.12-0.97,0.13c-0.32,0.01-0.63-0.03-0.91-0.13c-0.32-0.15-0.53-0.35-0.61-0.58c-0.09-0.24-0.08-0.49,0.01-0.75                  c-0.38,0.06-0.76,0.14-1.14,0.26c-0.49,0.15-0.98,0.32-1.47,0.51c-0.48,0.19-0.97,0.33-1.47,0.43c-0.32,0.06-0.66,0.06-1,0                  c-0.34-0.06-0.6-0.25-0.77-0.57c-0.21-0.4-0.22-0.77-0.04-1.12c0.18-0.35,0.46-0.66,0.83-0.91c0.37-0.26,0.77-0.46,1.21-0.63                  c0.44-0.16,0.8-0.26,1.08-0.3c0.47-0.06,0.94-0.06,1.4-0.01C126.46,19.72,126.9,19.81,127.34,19.95z M123.58,21.63                  c0.19-0.04,0.38-0.09,0.57-0.14c0.19-0.06,0.38-0.12,0.57-0.2C124.26,21.34,123.88,21.46,123.58,21.63z">
                        </path>
                        <path class="st0"
                            d="M135.23,19.98c0.38,0.02,0.63,0.13,0.74,0.34s0.15,0.46,0.11,0.74c0.49-0.42,0.9-0.89,1.22-1.42                  c0.08-0.11,0.15-0.24,0.21-0.37c0.07-0.13,0.14-0.26,0.23-0.37c0.08-0.11,0.18-0.2,0.3-0.27c0.11-0.07,0.26-0.09,0.43-0.07                  c0.28,0.04,0.46,0.16,0.54,0.37c0.08,0.21,0.11,0.43,0.11,0.66c0.09,0.19,0.34,0.32,0.74,0.38s0.84,0.1,1.32,0.11s0.94,0,1.38-0.03                  c0.44-0.03,0.74-0.04,0.91-0.04s0.37-0.01,0.58-0.04c0.22-0.03,0.44-0.05,0.67-0.07c0.23-0.02,0.45-0.01,0.66,0.01                  c0.21,0.03,0.39,0.1,0.54,0.21c0.15,0.11,0.25,0.25,0.3,0.41c0.05,0.16,0.04,0.32-0.01,0.47c-0.06,0.15-0.15,0.28-0.27,0.38                  c-0.12,0.1-0.28,0.16-0.47,0.16c-0.3,0.08-0.63,0.1-0.98,0.07s-0.68-0.03-0.98-0.01c-0.51,0-1.03,0-1.54,0                  c-0.51,0-1.02-0.02-1.54-0.06c-0.36-0.04-0.74-0.1-1.14-0.2c-0.4-0.09-0.75-0.25-1.05-0.46c-0.21,0.25-0.43,0.49-0.66,0.73                  s-0.46,0.46-0.68,0.67c-0.23,0.21-0.47,0.42-0.71,0.64c-0.25,0.22-0.53,0.37-0.85,0.44c-0.4,0.11-0.74,0.03-1.03-0.26                  c-0.13-0.15-0.21-0.31-0.23-0.47c-0.02-0.16,0-0.33,0.04-0.5c0.05-0.17,0.1-0.34,0.17-0.51c0.07-0.17,0.13-0.33,0.18-0.48                  c-0.09-0.25-0.08-0.5,0.06-0.77C134.68,20.11,134.9,19.98,135.23,19.98z">
                        </path>
                        <path class="st0"
                            d="M159.69,12.29c-0.87,0.72-1.74,1.46-2.59,2.21c-0.85,0.75-1.69,1.52-2.51,2.32c-0.4,0.38-0.81,0.77-1.24,1.17                  c-0.43,0.4-0.84,0.81-1.25,1.24s-0.79,0.87-1.15,1.34c-0.36,0.47-0.66,0.94-0.88,1.44c0.66-0.13,1.31-0.35,1.95-0.65                  c0.64-0.3,1.28-0.57,1.92-0.8c0.38-0.13,0.76-0.25,1.15-0.36c0.39-0.1,0.78-0.18,1.18-0.21c0.17-0.02,0.34,0,0.51,0.06                  c0.17,0.06,0.31,0.14,0.43,0.26c0.11,0.11,0.18,0.25,0.21,0.41c0.03,0.16-0.02,0.34-0.16,0.53c-0.15,0.21-0.38,0.32-0.68,0.34                  c-0.3,0.02-0.57,0.06-0.8,0.11c-0.51,0.1-1.01,0.24-1.49,0.43c-0.48,0.19-0.97,0.39-1.47,0.6c-0.51,0.21-1.05,0.43-1.62,0.66                  c-0.57,0.23-1.14,0.33-1.71,0.31c-0.61-0.04-0.98-0.21-1.11-0.51c-0.13-0.3-0.12-0.67,0.03-1.11c-0.63,0.27-1.28,0.52-1.96,0.75                  c-0.68,0.24-1.36,0.37-2.02,0.41c-0.21,0-0.4-0.02-0.57-0.06c-0.17-0.04-0.33-0.13-0.48-0.28c-0.25-0.25-0.34-0.5-0.28-0.75                  c0.06-0.26,0.18-0.5,0.38-0.74c0.2-0.24,0.43-0.45,0.7-0.64c0.27-0.19,0.49-0.33,0.68-0.43c0.68-0.34,1.41-0.55,2.19-0.63                  c0.78-0.08,1.54-0.02,2.28,0.17c0.02,0.02,0.05,0.03,0.09,0.03c0.08-0.04,0.15-0.06,0.21-0.07c0.07-0.01,0.13-0.02,0.18-0.04                  c0.27-0.34,0.54-0.66,0.81-0.97c0.27-0.3,0.53-0.58,0.77-0.84s0.45-0.47,0.63-0.65c0.18-0.18,0.31-0.31,0.38-0.38                  c0.76-0.76,1.53-1.5,2.32-2.22c0.79-0.72,1.59-1.43,2.41-2.14c0.25-0.23,0.54-0.52,0.87-0.87c0.33-0.35,0.67-0.57,1.01-0.67                  c0.19-0.06,0.36-0.05,0.5,0.01c0.14,0.07,0.25,0.17,0.33,0.31c0.08,0.14,0.1,0.3,0.09,0.47C159.89,12,159.82,12.15,159.69,12.29z">
                        </path>
                        <path class="st0"
                            d="M156.52,19.98c0.19,0,0.36,0.04,0.51,0.11c0.21,0.1,0.35,0.2,0.43,0.31c0.08,0.11,0.11,0.24,0.11,0.38                  s-0.02,0.29-0.06,0.44c-0.04,0.15-0.07,0.3-0.09,0.46c0.23,0.02,0.47,0,0.73-0.06c0.26-0.06,0.51-0.13,0.77-0.23                  c0.26-0.09,0.5-0.19,0.74-0.3c0.24-0.1,0.45-0.19,0.64-0.27c0.49-0.19,0.99-0.39,1.48-0.61c0.49-0.22,1.01-0.38,1.54-0.5                  c0.28,0,0.49,0.04,0.61,0.11c0.12,0.08,0.2,0.18,0.24,0.3c0.04,0.12,0.05,0.27,0.03,0.44s-0.04,0.34-0.06,0.51                  c0.8-0.23,1.58-0.51,2.35-0.85c0.77-0.34,1.56-0.56,2.38-0.66c0.8-0.08,1.63-0.06,2.49,0.06c0.86,0.11,1.69,0.2,2.49,0.26                  c0.15,0,0.35,0,0.58-0.01c0.24-0.01,0.48-0.01,0.73-0.01c0.25,0,0.48,0.02,0.71,0.06c0.23,0.04,0.42,0.11,0.57,0.23                  c0.17,0.13,0.27,0.31,0.3,0.53c0.03,0.22-0.02,0.41-0.16,0.58c-0.15,0.21-0.35,0.31-0.58,0.31s-0.46-0.01-0.67-0.03                  c-1.06-0.04-2.12-0.09-3.16-0.16c-1.04-0.07-2.09-0.15-3.13-0.24c-0.38,0.11-0.74,0.22-1.1,0.33c-0.35,0.1-0.69,0.22-1.01,0.36                  c-0.47,0.15-0.98,0.34-1.51,0.57c-0.53,0.23-1.04,0.36-1.54,0.4c-0.08,0-0.15,0-0.21,0.01c-0.07,0.01-0.15,0-0.24-0.01                  c-0.38-0.09-0.62-0.26-0.71-0.5c-0.1-0.24-0.13-0.5-0.11-0.78c-0.84,0.27-1.65,0.58-2.43,0.94c-0.79,0.36-1.61,0.61-2.46,0.74                  c-0.17,0.04-0.35,0.05-0.53,0.04c-0.18-0.01-0.36-0.04-0.53-0.1c-0.44-0.17-0.67-0.42-0.7-0.74c-0.03-0.32-0.01-0.66,0.04-1.02                  c-0.11-0.11-0.19-0.25-0.23-0.4c-0.04-0.15-0.03-0.3,0.01-0.44s0.13-0.27,0.24-0.38C156.15,20.03,156.32,19.98,156.52,19.98z">
                        </path>
                        <path class="st0"
                            d="M179.9,19.95c0.09,0.04,0.18,0.08,0.26,0.13c0.08,0.05,0.14,0.1,0.2,0.16c0.38-0.04,0.76,0.02,1.14,0.17                  c0.38,0.21,0.58,0.43,0.6,0.67c0.02,0.24-0.05,0.49-0.2,0.75c0.42-0.06,0.84-0.15,1.27-0.28c0.43-0.13,0.85-0.28,1.27-0.46                  c0.42-0.17,0.83-0.34,1.24-0.51c0.41-0.17,0.8-0.31,1.18-0.43c0.21-0.06,0.43-0.11,0.67-0.17c0.24-0.06,0.46-0.01,0.67,0.14                  c0.17,0.13,0.28,0.28,0.31,0.43s0.03,0.3-0.03,0.44c-0.06,0.14-0.15,0.27-0.28,0.38c-0.13,0.11-0.28,0.18-0.46,0.2                  c-0.61,0.1-1.21,0.27-1.79,0.53c-0.59,0.26-1.17,0.48-1.74,0.67c-0.27,0.1-0.55,0.2-0.85,0.31c-0.3,0.11-0.62,0.21-0.94,0.28                  c-0.32,0.08-0.65,0.12-0.97,0.13c-0.32,0.01-0.63-0.03-0.91-0.13c-0.32-0.15-0.53-0.35-0.61-0.58c-0.09-0.24-0.08-0.49,0.01-0.75                  c-0.38,0.06-0.76,0.14-1.14,0.26c-0.49,0.15-0.98,0.32-1.47,0.51c-0.48,0.19-0.97,0.33-1.47,0.43c-0.32,0.06-0.66,0.06-1,0                  c-0.34-0.06-0.6-0.25-0.77-0.57c-0.21-0.4-0.22-0.77-0.04-1.12c0.18-0.35,0.46-0.66,0.83-0.91c0.37-0.26,0.77-0.46,1.21-0.63                  c0.44-0.16,0.8-0.26,1.08-0.3c0.47-0.06,0.94-0.06,1.4-0.01C179.02,19.72,179.47,19.81,179.9,19.95z M176.14,21.63                  c0.19-0.04,0.38-0.09,0.57-0.14c0.19-0.06,0.38-0.12,0.57-0.2C176.83,21.34,176.45,21.46,176.14,21.63z">
                        </path>
                        <path class="st0"
                            d="M196.05,21.57c-1.03-0.04-2.05,0.05-3.08,0.26c-1.03,0.21-2.02,0.48-2.99,0.83l-0.11,0.26                  c-0.34,0.74-0.83,1.41-1.47,2.01s-1.29,1.13-1.95,1.61c-0.23,0.15-0.52,0.35-0.88,0.58c-0.36,0.24-0.74,0.45-1.12,0.64                  c-0.39,0.19-0.77,0.32-1.15,0.38c-0.38,0.07-0.72,0.01-1.03-0.16c-0.32-0.21-0.48-0.5-0.48-0.87c0-0.37,0.09-0.7,0.26-0.98                  c0.21-0.3,0.46-0.59,0.75-0.85c0.29-0.27,0.61-0.51,0.95-0.74c0.34-0.23,0.68-0.44,1.03-0.64c0.34-0.2,0.67-0.38,1-0.56                  c0.44-0.25,0.88-0.48,1.34-0.71c0.46-0.23,0.91-0.45,1.37-0.66v-0.06c-0.06-0.11-0.12-0.19-0.2-0.23                  c-0.08-0.04-0.16-0.07-0.26-0.09c-0.1-0.02-0.19-0.04-0.3-0.06c-0.1-0.02-0.21-0.07-0.33-0.15c-0.13-0.1-0.22-0.21-0.27-0.35                  s-0.06-0.28-0.03-0.42c0.03-0.14,0.09-0.28,0.17-0.39c0.09-0.12,0.2-0.2,0.36-0.26c0.27-0.09,0.56-0.1,0.88-0.01                  c0.32,0.09,0.59,0.21,0.8,0.36c0.19,0.12,0.34,0.26,0.46,0.44c0.11,0.17,0.2,0.37,0.26,0.58l0.94-0.35                  c0.78-0.27,1.56-0.49,2.35-0.67c0.79-0.17,1.59-0.29,2.41-0.35c0.3-0.02,0.56,0.05,0.75,0.22c0.2,0.16,0.32,0.35,0.36,0.55                  c0.04,0.2-0.01,0.39-0.13,0.57S196.35,21.57,196.05,21.57z M185.85,25.04c0.27-0.21,0.53-0.42,0.8-0.64                  c0.27-0.22,0.52-0.46,0.77-0.73c-0.76,0.36-1.5,0.77-2.22,1.24c-0.72,0.46-1.3,1.02-1.74,1.67c0.21-0.06,0.43-0.15,0.65-0.28                  c0.23-0.13,0.45-0.28,0.66-0.44c0.21-0.16,0.41-0.31,0.6-0.46C185.56,25.26,185.72,25.14,185.85,25.04z M194.17,16.07                  c0,0.08,0,0.15,0,0.21c0,0.07-0.02,0.15-0.06,0.24c-0.15,0.44-0.45,0.75-0.88,0.94c-0.44,0.19-0.85,0.29-1.25,0.31                  c-0.34,0.02-0.75-0.04-1.22-0.19c-0.47-0.14-0.89-0.34-1.24-0.6c-0.35-0.26-0.58-0.56-0.7-0.93c-0.11-0.36,0.01-0.75,0.37-1.17                  c0.25-0.3,0.56-0.52,0.94-0.66c0.38-0.13,0.78-0.21,1.21-0.24c0.43-0.03,0.85-0.01,1.27,0.06c0.42,0.07,0.8,0.14,1.14,0.21                  c0.27,0.06,0.56,0.13,0.87,0.23c0.31,0.1,0.56,0.25,0.75,0.46c0.27,0.19,0.37,0.45,0.31,0.77c-0.06,0.32-0.25,0.53-0.57,0.63                  c-0.15,0.06-0.29,0.06-0.43,0.01c-0.13-0.05-0.27-0.12-0.4-0.21L194.17,16.07z M193.09,16.33c0.23-0.17,0.25-0.32,0.06-0.46                  c-0.19-0.13-0.4-0.24-0.63-0.31c-0.17,0-0.4,0-0.68,0c-0.28,0-0.56,0.01-0.84,0.03c-0.28,0.02-0.5,0.05-0.68,0.09                  c-0.18,0.04-0.25,0.09-0.21,0.14v0.06c0.06,0.25,0.22,0.44,0.48,0.57c0.27,0.13,0.56,0.21,0.87,0.24s0.63,0.01,0.94-0.04                  S192.93,16.48,193.09,16.33z">
                        </path>
                    </g>
                </svg>