<svg id="Layer_1" data-name="Layer 1" xmlns="http://www.w3.org/2000/svg" viewBox="0 0 156.47 703.01">
  <g>
    <path d="M183.68,6.85a2.61,2.61,0,0,1,1.57-.16,1.76,1.76,0,0,0,1.09.32V6.85h.32c0,.16.16.32.47.16a1,1,0,0,1,.94.16,2.26,2.26,0,0,1,1.42.15c0,.16,0,.16.15.16a1,1,0,0,1,1,0,44.76,44.76,0,0,1,9.89,5.65,74.35,74.35,0,0,1,7.69,6.6,17.39,17.39,0,0,1,3.93,5.65A33,33,0,0,1,216,31.82a32.14,32.14,0,0,1-1.09,16.33c-.32,1.57-.63,3.14-.79,4.71a11,11,0,0,0-.79,3.93,5.59,5.59,0,0,0-.47,3.14,24.2,24.2,0,0,1-.78,3.61c-.47,3.45-.79,6.75-1.1,10.05-.31,2.2-.63,4.55-1.1,6.75a66.16,66.16,0,0,1-.78,8.33c-.16,1.72-.16,3.45-.32,4.86-.16,2-.31,3.93-.47,6a2.67,2.67,0,0,0,.16,1.57,2.13,2.13,0,0,0,0,1.41,27.55,27.55,0,0,0,.31,7.23,2.15,2.15,0,0,1,.32-.94,1.5,1.5,0,0,0-.16,1.41l.16-.16a4.5,4.5,0,0,0-.16,2.51c.16-.47.16-.78.31-1.25a7.24,7.24,0,0,0-.15,2.51h.15a4.66,4.66,0,0,0,0,2,12.3,12.3,0,0,0,.79,3.61h-.16a18.54,18.54,0,0,1,.79,4.4,6.58,6.58,0,0,0,.47,1.1c0,.47.15.94.15,1.26a58.43,58.43,0,0,1,.79,17.27,7.22,7.22,0,0,1-3.46,5.81,25.91,25.91,0,0,1-5.49,2.83h.47a5.4,5.4,0,0,1-1.26.78,2.71,2.71,0,0,0-1.88-.15,17.35,17.35,0,0,1-2.36.62c-1.1.47-2,.95-2.82,1.26-.47.16-.63.16-.79,0a4.47,4.47,0,0,1-1.41.31.69.69,0,0,0,.15-.78,4.81,4.81,0,0,0-2.66.31,3.16,3.16,0,0,1-.79-1.41,4.79,4.79,0,0,0-1.26-.63c-1.1-.16-2.2-.31-3-.47-.63-.31-1.57-.63-2.36-.94a35,35,0,0,1-13.34-8.32c-5.66-3.62-11.15-7.54-16.65-11.47a1.67,1.67,0,0,1-.78.16,2,2,0,0,0-1.1-2,26.81,26.81,0,0,1-3.3-4.08,1.63,1.63,0,0,1-.79-1,1.66,1.66,0,0,1-.94-1.1v-.15c-.16.15-.31-.16-.78-.79s-1.26-1.57-2.2-2.67c-.16.16-.16.16-.32,0a.58.58,0,0,1-.47-.16,2.28,2.28,0,0,1-1.73-.15l-.31-.32a4.29,4.29,0,0,1-2.83,0,8.83,8.83,0,0,0-3.14,1.89c-.15.15-.31.31-.15.47a2.74,2.74,0,0,1,.15,1.57,4.85,4.85,0,0,1-2.19,1.88c-.79.48-1.42.79-1.89,1.1A16.23,16.23,0,0,1,127,127.3a15.15,15.15,0,0,0-1.73.94,3.06,3.06,0,0,0-1.26.63,3.8,3.8,0,0,0,.94,2.35,4.26,4.26,0,0,0-.47,1.57c-.15,0-.15-.16-.15-.31a3,3,0,0,1-.16,1.25.7.7,0,0,1,0,.79,1.49,1.49,0,0,0-1.57-.31,1.7,1.7,0,0,0-1.26.15,7.69,7.69,0,0,1-2.67,1.57,4,4,0,0,1-4.39,1.42,3.78,3.78,0,0,1-1.89-.47,58.82,58.82,0,0,1-5.81-4.56c-1.57-1.88-3.14-3.61-4.87-5.34a14.49,14.49,0,0,1-2-3.3c.16-.15.16-.31.32-.62.15,0,.15,0,.15-.16a13.7,13.7,0,0,1-3.92-10.37c.15-.47.15-1.09.31-1.72a73.21,73.21,0,0,0,4.24-13.35,149.93,149.93,0,0,0,3.93-35.33,53.83,53.83,0,0,0-.94-12.1c-1.1-4.71-2.2-9.26-3.46-14a2.85,2.85,0,0,1,1.41-3.14,18.34,18.34,0,0,1,3.93,2,25.49,25.49,0,0,1,3.3,5.65c.63,1.73,1.1,3.61,1.57,5.34a2,2,0,0,0,1.57-.63c-1.1.32-1.57.79-1.42,1.57a41.61,41.61,0,0,0,.95,6.44,30.76,30.76,0,0,1-.16,5.34c-.47,8.32-1.1,16.65-1.73,25a5.47,5.47,0,0,0-.15,2.2,20.45,20.45,0,0,0-1,4.71,5.16,5.16,0,0,0-.62,2.67,9.7,9.7,0,0,0-.63,2.36c-.16.78-.47,1.56-.63,2.35-.32,1.26-.63,2.36-.94,3.61a24.32,24.32,0,0,0-1.1,4.71c-.16,1.42-.32,3-.47,4.4.47,1.1.94,2,1.25,2.67a36.66,36.66,0,0,0,5.5,5.5,35.14,35.14,0,0,0,5.65-.48,9.52,9.52,0,0,1,1.1-.47,1.82,1.82,0,0,1-.63,1.57,41.82,41.82,0,0,0,8.64-1.1c4.24-1.09,8.48-2.19,12.88-3.29v-.16c-1.1-1.26-2.2-2.36-3.3-3.77-.32-.63-.63-1.25-.94-1.73a13.6,13.6,0,0,1-.94-3.14,2.24,2.24,0,0,1,.62-1.57h-.15c.15.32.31.47.78.32v-.79c.16,0,.16,0,.31.16a1.31,1.31,0,0,0,0-1.1c0,.16,0,.16.16.16a6.27,6.27,0,0,1,1.41-1.42c.48.32.95.16,1.1-.47v-.47a.34.34,0,0,0,.32.32c0-.16,0-.16.16-.32.15.16.31.32.47.47v-.47c.15.16.15.32.31.47v-.94c0,.16.16.16.32.31a1.41,1.41,0,0,1,.31-1.41c.16,0,.16,0,.31-.16a4.37,4.37,0,0,1,1.1,2c.47.78,1.1,1.72,1.57,2.51a85.43,85.43,0,0,0,10.05-8.64,5.82,5.82,0,0,0-.15-6c-1.1-.78-2.36-1.41-3.46-2a21,21,0,0,1-2.67-.63c-2-.31-4.24-.94-6.59-1.41-1-.16-1.89-.47-2.83-.63-.63.32-1.1.63-1.41.79a19.27,19.27,0,0,0-6,4.71,27.82,27.82,0,0,0-4.24,5.65,20.83,20.83,0,0,1-5.5,5.66,7.94,7.94,0,0,1-4.55,1.88c.16-.79.31-1.41.47-2.2,0,.16,0,.16.16.16v-.32c1.57-4.39,3.14-8.63,4.55-13.19a80.48,80.48,0,0,1,4.71-14.29c-.78-.15-1.41-.47-2.2-.62a6.07,6.07,0,0,1-3.14-2.2A3.23,3.23,0,0,1,117.41,69c.78-1,1.72-1.89,2.51-2.83a14.85,14.85,0,0,1,2.2-2.67v-.31c.47-.16.78-.32.78-.79a4.63,4.63,0,0,0,1.42-1.57c1.1-.47,2.35-1.1,3.77-1.73a2.88,2.88,0,0,0,2.35-1.88c0,.16.16.16.31.16A12.11,12.11,0,0,0,132,54.9c.32-.94.63-2,.94-3.29l.16-.16-.16-.16a1.8,1.8,0,0,0-.15.79,1.8,1.8,0,0,1,.15-.79c0,.16,0,.16.16.16a3.53,3.53,0,0,0,.94-1.89h-.15a1.35,1.35,0,0,0-.47.95,1.61,1.61,0,0,1,.62-1.26c0,.16,0,.16.16.16v-.63c0,.16,0,.16.16.16a5.48,5.48,0,0,1,.62-1.42c1.1-2.35,2-4.86,3.15-7.22a48.66,48.66,0,0,1,3.92-6.6l.79-.78a1.94,1.94,0,0,0,1.72-.47c.16-.32.48-.63.79-1.1-.16.31-.31.63-.16.78.47-.15.79-.31.94-.78a1.21,1.21,0,0,0,1.57-.32,13.61,13.61,0,0,1,1.73-3.29,3.3,3.3,0,0,0,2.36-1.1c0,.15,0,.15.15,0h.48c0,.15,0,.15.15.31.16-.16.16-.31.32-.47V27c0,.16.15.16.31.16a1.62,1.62,0,0,1,1.26-.94h-.16c.16.15.47.15.63.31,0-.16,0-.16.16-.31a4,4,0,0,0,2.51.78.29.29,0,0,0,0,.47,4.49,4.49,0,0,0,1.41.32,3.31,3.31,0,0,1,1.1,2.35,38.53,38.53,0,0,1,4.4,7.23,4.89,4.89,0,0,0,.47,2.19v2.05a3.79,3.79,0,0,0-.63,2,7.88,7.88,0,0,0,.79,2,2.73,2.73,0,0,0,1.88,2c2.67,1.26,5.18,2.51,7.85,3.77a40.57,40.57,0,0,1,7.7,6.91,2.79,2.79,0,0,0,1.25,1.73c.16.47.32,1.09.47,1.57a2,2,0,0,1,.48,1.1c-.48.15-.95.31-1.1.78a3.66,3.66,0,0,0-1,1.41,15,15,0,0,1-2.67,1.42h-.15c-.16.31-.32.47-.63.47a3.94,3.94,0,0,1-1.89-.16,28.57,28.57,0,0,1-3.76,1.41c-1.89.79-3.93,1.57-6,2.2a13.28,13.28,0,0,1-2.83.79,8.81,8.81,0,0,0-2.51,1.73,15,15,0,0,1-2.83.94,13.21,13.21,0,0,0-2.35,4.39c1.25.79,2.35,1.42,3.45,2,1.1.47,2,1.09,3.14,1.57.47.31.79.62,1.1.78l1.41.94c.48.48,1.1,1,1.57,1.42a42.53,42.53,0,0,1,4.56,2.82l.63.63a47.68,47.68,0,0,1,6.28,7.54c2,2,2.51,4.24,1.57,6.59-.16.63-.47.79-.94.48a1.31,1.31,0,0,0-1.1,0c-.16.15-.16.15-.16,0a1.3,1.3,0,0,1-1.1-.16,1.9,1.9,0,0,1-1.26.16,1.71,1.71,0,0,1-1.57.62,2.37,2.37,0,0,0-2.19-1.1c-.16-.15-.48-.15-.48-.31a3,3,0,0,0-1.57-.47,21.55,21.55,0,0,1-4.24-1.1c-.31,0-.47,0-.62-.16-.32.16-.63,0-1-.15a4.59,4.59,0,0,0-1.25-.63,41.52,41.52,0,0,1-6.13.16,27,27,0,0,0-4.24,1.25,16.31,16.31,0,0,1-2.35,2.36,6.51,6.51,0,0,1-3.14,2.67c-.95.31-1.73.62-2.51.94,1.25,1.41,2.66,2.83,4.08,4.24,0,.16,0,.16.16.16l.15-.16a2.43,2.43,0,0,0,.94,1.25,27.37,27.37,0,0,0,5-.78,3.18,3.18,0,0,0,2.83-.94V111a1.2,1.2,0,0,0,1.25.16.34.34,0,0,1-.31-.31h1.57a4.12,4.12,0,0,0,2.35-.16c.16.16.32.31.48.31v-.15c0,.15.15.15.31.15a.72.72,0,0,1,.78,0,1.43,1.43,0,0,0,1-.62,9.39,9.39,0,0,1,2.19-.16,3.16,3.16,0,0,0,1.73,0,.58.58,0,0,0,.47.16c.16-.16.32-.16.79-.16a3,3,0,0,1,1.25.16,35.42,35.42,0,0,1,9.11,6.59,6.73,6.73,0,0,1,3,6.6l-1,1.41a5.12,5.12,0,0,1-4.55-.63H178l-4.24-1.41a5.46,5.46,0,0,1-3.45-1.57v.16a6.24,6.24,0,0,0-4.56,1.57,1.24,1.24,0,0,0-1.41.31,14.31,14.31,0,0,0-3,2h.15c.16.16.47.32.63.16-.16.16-.16.16,0,.31h.32a1.86,1.86,0,0,0,.78.79,2.75,2.75,0,0,0,.94.47c-.15,0-.31,0-.15.16a1.21,1.21,0,0,0,.78.31c0,.16,0,.31.16.31l.16-.15c-.16.31-.16.62.15.78.16-.16.32-.31.16-.63.16.16.16.32.31.47-.15,0-.15,0-.15.16.15.16.31.32.47.16v-.16a1.53,1.53,0,0,0,.78.63c.16.31.47.47.63.63a1.7,1.7,0,0,1,.79.16,3.61,3.61,0,0,0,1.57,1.1H170c-.15,0-.15,0-.15-.16.15.16.15.16.15.31l.16-.15c-.16.15-.16.15,0,.31,0,.16.16.16.31.16l.16-.16h-.16c1.42.94,2.67,1.73,4.09,2.67a.58.58,0,0,0,.47-.16c-.16.16-.32.16-.32.32a.58.58,0,0,0,.79-.32c-.16,0-.16,0-.16-.16a2.44,2.44,0,0,1,.94-.62,1.4,1.4,0,0,0,1.26-.32,1,1,0,0,0-.94.16,9.72,9.72,0,0,0,2.2-.94c0,.31.16.31.31.15v-.31c.63-.47,1.41-1.1,2.2-1.73a15.29,15.29,0,0,1,2.36-1.41,9.94,9.94,0,0,0,1.25-1.26c0-.15.16-.31.32-.47.94-.78,1.88-1.72,3-2.82.16-.16,0-.32-.16-.48v-.15c.16.15.32,0,.47-.32a12.58,12.58,0,0,0-1.25.47,11.39,11.39,0,0,0,1.25-10.36c-.78-5.34-1.72-10.84-2.67-16.18-.15,0-.31,0-.31-.15a179.81,179.81,0,0,1,1.1-29c1.1-11.15,2.51-22.15,4.55-33.45a22.13,22.13,0,0,0-.94-12.72A27.56,27.56,0,0,0,183.52,15a11.44,11.44,0,0,0-4.71.47c-.95.15-1.89.47-3,.63a5.9,5.9,0,0,1-1.57-1.1.89.89,0,0,0-.94.15V15a2.73,2.73,0,0,1-1.57,0c-.16.15-.31.15-.31.31l.15-.16a2.13,2.13,0,0,1-1.41,0c-.16.16-.16.32-.16.16a.81.81,0,0,0-.62.31c-.16.16-.16,0-.32-.15a39.56,39.56,0,0,0-9.73,3.45,6,6,0,0,0-1.58,1.1c-2,1.57-4.08,3-6,4.4A34.25,34.25,0,0,1,145.36,29,19.53,19.53,0,0,1,140,31.82a4,4,0,0,1-2.36,1.57c-1.88.94-3.76,1.73-5.33,2.51a105,105,0,0,0-15.24,11.62c-.47.16-.63.16-.63-.15a8.53,8.53,0,0,1,1.89-3.15,5,5,0,0,1,2.35-3.29,10.52,10.52,0,0,0,3.15-2.2v.16a6.61,6.61,0,0,0,.78-1c-.16.16,0,.32.16.16,0-.16,0-.16.15-.31v.15a1.11,1.11,0,0,1,.79-.62v-.16l3.77-2.83h0a318.45,318.45,0,0,1,26.07-19.16,10.47,10.47,0,0,1,1.72-.62,3.24,3.24,0,0,1,1.1-.63c-.15,0-.15,0-.15-.16.15.16.15.16.31.16v-.16a4.23,4.23,0,0,0,1.57-.94v-.16c.16,0,.16,0,.31-.16-.15,0-.15,0-.31.16a15.21,15.21,0,0,0,4.24-1.57,92.93,92.93,0,0,1,11.78-3.45l5-.95c-.15,0-.15,0-.15-.15a3.94,3.94,0,0,0,2.67,0C183.52,6.69,183.52,6.85,183.68,6.85Zm-39.26,100.5c-.16,0-.16,0-.32-.15l-.15.15c.62.79,1.41,1.57,2,2.36-.47-.47-.94-.79-1.42-1.26v.16c0,.16,0,.16.16.16,0,.15,0,.31-.16.31v-.16a3.4,3.4,0,0,1,.48.79,19.42,19.42,0,0,0,3.14,3.14c.15,0,.15-.16.15-.32,0,.32.16.48.63.32a1.6,1.6,0,0,1-.78-.94l.94.94h.16a10,10,0,0,1-.63-.79c-.16-.15-.16-.15,0-.31a1.83,1.83,0,0,0,.78.78,3.85,3.85,0,0,1-.78-.94c.47.32.78.63,1.25.94l-5.34-5.33Zm.15,0a45.18,45.18,0,0,0,3.77,3.93v.31a1.41,1.41,0,0,1-.94-.94,1.18,1.18,0,0,0,.79,1.1c-.16-.16-.48-.31-.63-.47-.32.31-.32.63,0,.78l-.47-.47c0,.16.15.16.31.32v-.79h-.31l.15-.16L146,109.71a1.93,1.93,0,0,0,1.1.78,28.66,28.66,0,0,1-3-3.14,2.1,2.1,0,0,0,.63.47A.58.58,0,0,0,144.57,107.35Zm-.15,1.89-.32.31a2.09,2.09,0,0,0,1,1.1c-.16.16-.16.16-.32.16a13.12,13.12,0,0,0,2,2h.16c-.16-.16-.32-.16-.47-.32s0-.15.15-.31l.63.63c-.15,0-.15,0-.15.16.15,0,.15,0,.31-.16,0,.16,0,.16.16.16-.16-.16-.16-.16-.32-.16s-.15-.16,0-.32a1.23,1.23,0,0,1-.63-.62,3.41,3.41,0,0,0,1.26.94Zm.47-1.42a24,24,0,0,0,3.45,3.46A12,12,0,0,1,144.89,107.82Zm2.82,11.47a3.09,3.09,0,0,0,.95,1.1h.15c0,.15,0,.15.16.15l-.16.16v-.16a.87.87,0,0,0,.48.79l-.48-.47c0-.16.16-.16.32-.32a1.39,1.39,0,0,1,.47.95h-.16a9,9,0,0,0,1.73,2.51h.16a15.28,15.28,0,0,0,2.2,2.35c.31.47.31.79.15,1a2.43,2.43,0,0,0,.94,1.25c.16,0,.16-.16.32-.31l-.32.15c-.15,0-.15,0-.15-.15a3.3,3.3,0,0,0-.63-.94,1.33,1.33,0,0,1,.94.47c-.16-.16-.16-.32-.31-.47a3.55,3.55,0,0,1-1.42-1.57c-.31.15-.47,0-.47-.16a.3.3,0,0,1,0-.47.74.74,0,0,1-.47-.79l-.16.16a6.8,6.8,0,0,1-1.09-1.1c-.16-.16-.32-.31-.16-.47a1.63,1.63,0,0,1-.79-1.26,16.44,16.44,0,0,0,1.42,1.73,22.72,22.72,0,0,1-2.83-3.93A.71.71,0,0,1,147.71,119.29Zm.63-1c.79,1.1,1.73,2.2,2.52,3.3.15,0,.15,0,.31-.15v.15c-.16-.15-.31-.15-.31-.31a2.79,2.79,0,0,1-1.26-1.73c-.16-.16-.16-.16-.16,0a1.6,1.6,0,0,1-.78-.94A.34.34,0,0,1,148.34,118.34Zm.79-.47v.63a.34.34,0,0,1-.32-.31c.95,1.25,2.05,2.51,3.14,3.92a1.15,1.15,0,0,1-.62.16c.31.16.47.16.62.31l-.15.16c-.47.47-.32.94.47,1.26l-.16.16c-.16,0-.16,0-.31-.16a1.13,1.13,0,0,0,.63.31c-.16,0-.16,0-.16-.15-.16,0-.16,0,0-.16a11.82,11.82,0,0,0,3.3,3.61l-1.1-1.1a11.46,11.46,0,0,1-1.42-1.73c-.31-.31-.47-.47-.31-.47h.16c-.16,0-.32-.15-.47-.31a1.32,1.32,0,0,1-.48-1.26c0,.16,0,.16.16.16-.16,0-.16,0-.16-.16.32-.31.48-.16.79.32l-.16.15c.16.16.16.16.32.16-.47.31-.32.63.15.94a1,1,0,0,1-.15-.94,13.41,13.41,0,0,0,2,2.36,15.39,15.39,0,0,0,1.25,1.57c-.15-.16-.31-.16-.47-.32-.47-.16-.62-.47-.78-.94v.16c-.32.15-.47,0-.32-.32a5.86,5.86,0,0,1-.78-.94l-.16.16c-.15-.16-.15-.32-.31-.47s0-.16.16-.16c-.16.16-.32,0-.32-.16.16.47.32.79.79,1l-.16.15a3.34,3.34,0,0,1,1.1.94,3.4,3.4,0,0,0,.63.79c.31.31.62.31.78-.16a15.68,15.68,0,0,1-2.82-2.82,1.06,1.06,0,0,1-.48-1.26,1.1,1.1,0,0,0,.63.78v.16c.16.16.32.16.47.32,0,.15,0,.15.16.31a.33.33,0,0,0,.31.31c0,.48.32.63.79.79v.16c0,.15.16.15.31.31v-.16a1.65,1.65,0,0,0,1.1.94A3.23,3.23,0,0,1,156,126c-.16-.16-.16-.16,0-.16a4.27,4.27,0,0,0-1.1-1.25,4,4,0,0,1,.78.94v.16c-.62-.16-.94-.63-1.1-1.42a23.09,23.09,0,0,1-3.92-4.87Zm1.41,2,.16-.16a8,8,0,0,0,.47,1.1,26.8,26.8,0,0,1-2-2.36c0,.16,0,.16.16.16,0-.16,0-.16.15-.32a17.39,17.39,0,0,0,1.1,1.58Zm-.47-2.67c-.16.15-.31.15-.47.31h.31a.94.94,0,0,1,.16.63c.16.15.31.15.63.15a.69.69,0,0,0,.16.79c0,.16.15.16.31,0,0,.16,0,.16.16.16l-.16.15a3.26,3.26,0,0,0,.63,1,.29.29,0,0,1,.47,0v.15c.16.16.16.16.16.32a4.12,4.12,0,0,0,1.1,1.41V122a2.65,2.65,0,0,0,.94,1.41c.15.31.31.47.47.31,0,.16,0,.16.16.32a1.2,1.2,0,0,0,.78.94l-.16.16a2.65,2.65,0,0,0,1.1.63c.16.15.32.31.16.47a.57.57,0,0,0,.78-.32,33.92,33.92,0,0,1-6.43-7.06,3.61,3.61,0,0,0-1-1.42h-.31C149.91,117.4,149.91,117.4,150.07,117.25Zm.79-.63-.16.31v.16a53.79,53.79,0,0,0,7.38,8.64,4.14,4.14,0,0,1-.79-1,2.45,2.45,0,0,0,1.1.63,16.92,16.92,0,0,1-1.57-1.73h-.31c-.16-.15-.32-.31-.32-.47a.33.33,0,0,1-.31-.31v.16c-.16,0-.16,0-.16-.16-.15-.16-.15-.16,0-.32l-.15.16a1.19,1.19,0,0,1-.32-.63c-.15-.15-.15-.15,0-.31-.15,0-.15,0-.15-.16a1.26,1.26,0,0,0-.79-.31.94.94,0,0,1-.16-.63l-.15.16c-.16-.16-.32-.32-.32-.47,0,.15,0,.15.16.15,0,.16,0,.32-.16.32a1,1,0,0,1-.47-.94l.32.31a3.63,3.63,0,0,0-.48-.79,1.17,1.17,0,0,1-.62-1.1h-.16c-.16,0-.16,0-.32-.15s0-.16.16-.32c0,.16,0,.16.16.16-.16-.16-.32-.47-.47-.63h-.32c-.15,0-.15,0-.15-.15l.15-.16a.34.34,0,0,1-.31-.32C151,116.77,150.86,116.77,150.86,116.62Zm0,.31,2.19,2.83A26.27,26.27,0,0,1,150.86,116.93Zm4.86-3a6.23,6.23,0,0,0-3,1.1,22,22,0,0,1,1.73,2.35c.15,0,.15,0,.31.16l-.16.16c-.31,0-.47-.16-.47-.32v-.31a1.12,1.12,0,0,1-.78-.63,2.85,2.85,0,0,0-.79-1.1l-.15.16v-.16c0,.16,0,.32-.16.16a.94.94,0,0,1,.16.63h-.16a.34.34,0,0,0-.32-.32c.32.16.48.32.32.63a3.4,3.4,0,0,0-.79-.63.33.33,0,0,1-.31.32,36.46,36.46,0,0,0,4.24,5.49,10.59,10.59,0,0,0,2.67,2.67c.16.16.16.16.16,0h.31a1.39,1.39,0,0,1-.94-.94c.31.31.31.63.15.79-.31-.48-.62-.79-.94-1.26-.15-.16-.31-.32-.47-.47.47.15.94.31,1.1.78v-.31a1.86,1.86,0,0,0,.79.78l.78.79c0,.16,0,.16.16.16v-.16a2.42,2.42,0,0,1-1.1-1.57,11.56,11.56,0,0,0,1.26,1.41,2,2,0,0,1-.48-.63H159c0,.16.32.48.63.63-.16-.15-.16-.15,0-.31s.47-.32.78-.63a7.07,7.07,0,0,0,2.67-7.85A13.31,13.31,0,0,0,155.72,114ZM154.15,129c0-.15,0-.15.16-.15l-.47-.48v.16a4.38,4.38,0,0,1-.79-.94,3.39,3.39,0,0,1-.62-.79A5.62,5.62,0,0,0,154.15,129Zm-.62-11.15c0,.16,0,.16.15.16a2.12,2.12,0,0,0,.47,1.26,8.12,8.12,0,0,0,1.42,2,5.56,5.56,0,0,1-1.73-2.2H154a1.14,1.14,0,0,0-.63-.94c.16.15.16,0,.31-.16a3.74,3.74,0,0,1-.94-1.41,1.68,1.68,0,0,0,.94,1.1Zm1.25-.15c-.16.15,0,.31.16.47l.16-.16c-.16.47,0,.63.47.79-.32,0-.47-.16-.47-.32-.16.16,0,.32.31.47,0,.16,0,.32.16.32s.15-.16.15-.32a10.71,10.71,0,0,0,1.26,1.42c-.31.31-.16.47.31.62v.32a.29.29,0,0,0,0-.47c.32.31.63.63,1.1,1.1-.15.15-.15.15-.15.31s.15.16.31.31v-.47c.16.16.16.32.31.32-.15.15-.31.31-.15.31,0,.16.15.16.31.16-.16,0-.16,0-.16.16s0,.15.16.15c0-.15,0-.15.16-.31a1,1,0,0,0,.78.78c-.15,0-.31,0-.31-.15-.16.15-.16.31-.31.15-.16,0-.16-.15-.32-.31.16.16.16,0,.16-.16l-.16-.15c-1.1-1.1-2.2-2.36-3.3-3.46,0-.16,0-.16.16-.16-.16,0-.16,0-.16-.15h-.15a12.49,12.49,0,0,1-2.2-2.67l1.25,1.57C154.47,118,154.62,117.87,154.78,117.72Zm0,1.25c-.16.16-.16.16-.31,0-.16,0-.16-.15-.32-.31.16.16.32.16.47.31a2.65,2.65,0,0,1-.47-.94c.47.47.95,1.1,1.42,1.57A1.56,1.56,0,0,1,154.78,119Zm1.73,2h.31a28.59,28.59,0,0,0,2,2.36,7.84,7.84,0,0,1-1.88-2,3.73,3.73,0,0,0,.78,1.57v-.16c-.15.16-.15.16,0,.32-.15,0-.15,0-.15-.16l.15-.16-1.41-1.41a4.23,4.23,0,0,0,.94,1.57,1.24,1.24,0,0,1-.31-.79l-.16.16c0,.16,0,0,.16-.16a1.91,1.91,0,0,1-.79-.78h.16l-1.41-1.89a10.78,10.78,0,0,0,1.88,1.89Zm-.94,8.48c.47.48.94.79,1.41,1.26-.16.16-.16.32,0,.32,0,.15,0,.15.16,0-.16-.16-.32-.16-.32-.32a4.52,4.52,0,0,1,1.42,1.1c-.32.16-.48,0-.63-.31v.15h.15l.32.32v.15a12.14,12.14,0,0,1-2.36-1.88v-.16c.16.16.47.32.63.47l-.94-.94v.16h.16v.31c-.16,0-.32-.15-.47-.31a4.61,4.61,0,0,0,2.35,2.2c.63.15,1.26.47,1.57.47a.8.8,0,0,1-.78-.63,3.13,3.13,0,0,0,1.41.78l-.16.16.16-.16c0,.16.16.16.31.16-.15.16-.15.32-.15.16.47.31,1.1.63,1.57.94h-.16c-.16.16-.31.16-.31,0,.15.16.31.16.47.32-.16,0-.16,0-.16-.16l.16-.16c.15.16.31.16.62.32l-.15.15v-.15c.15.31.15.47.15.31h.16a1.61,1.61,0,0,0,.79.63c-.16,0-.16,0-.16-.16-.16,0-.16,0,0-.16-.31.16-.47,0-.47-.31a3.74,3.74,0,0,1,1.41.94h-.15a.7.7,0,0,0,.94.32c.15,0,.31,0,.31.15.16.16.32.47.47.63l6.13,4.24a3.42,3.42,0,0,1-.79-.47,6.38,6.38,0,0,1,1.73,1.1v.16a.34.34,0,0,1-.32-.32c0,.16.32.47.48.63-.16,0-.16-.16-.16-.31v-.16a10.35,10.35,0,0,0,2.67,1.88c-.16.16,0,.32.16.32H175v-.16a.57.57,0,0,0,.47.16,8.26,8.26,0,0,1-1.26-1.1.79.79,0,0,1-.62-.32,4.22,4.22,0,0,1-1.89-1.41,10.2,10.2,0,0,0-1.26-1.57c-.15.16-.15.16-.15.31a5.12,5.12,0,0,1-1.57-.94c0-.16.15-.16.31-.16-.16-.15-.31-.15-.31-.31-.16,0-.16,0-.16.16-1.73-1.1-3.14-2-4.71-3,0-.16.16-.16.47-.16-.16,0-.16,0-.16-.16l-.15.16c-.16,0-.16-.16-.32-.32a.34.34,0,0,0,.32.32c-.16.16-.16.16-.32.16s-.15-.16-.15-.32c-.48-.16-1-.31-1.1-.78-.16,0-.16-.16,0-.32,0,.16.15.16.31.32a3.63,3.63,0,0,1-.79-.48c0,.16.16.16.32.16l-.16.16a3.2,3.2,0,0,1-1.25-.63c.15-.16.47,0,.94.16a2.33,2.33,0,0,1-.63-.47c-.16.15-.31.15-.31.31a3.65,3.65,0,0,0-.79-.47c0-.16.16-.16.31-.16a.34.34,0,0,1-.31-.31c-.16,0-.16,0,0-.16v.16c-.16,0-.16,0-.16-.16a.68.68,0,0,1-.78,0c0-.16.16-.16.31,0l-.47-.47c-.31.47-.63.31-.78-.31h.15c-.15-.47-.31-.47-.63-.32a1.17,1.17,0,0,1-.78-1.1c-.16-.15-.31-.15-.47-.31,0,.16,0,.31-.16.31A3.86,3.86,0,0,0,155.57,129.49Zm1.25-.78c.79.78,1.57,1.57,2.52,2.36Zm.79-.63a.57.57,0,0,0-.16.47c-.16,0-.16,0-.16-.16l-.15.16.47.47c-.16-.15,0-.31.15-.47a32,32,0,0,0,3.46,3c.16.15.47.15.78.31a1.2,1.2,0,0,0,1.1.63,1,1,0,0,1,.63.15l-.15.16c-.16,0-.16,0-.16-.16,0,.16,0,.16.16.16a44,44,0,0,0,4.39,3,20.75,20.75,0,0,1,2.51,1.57l-.15.15a.58.58,0,0,1,.47.16h.31c-.15,0-.31,0-.31-.16a1.86,1.86,0,0,1-.79-.78c.16,0,.16,0,.32-.16a1.53,1.53,0,0,0,.78.63c-1.25-.94-2.51-1.88-3.77-3-.47-.16-.94-.48-1.41-.63,1.41,1.1,2.83,2.2,4.24,3.14H170A87.54,87.54,0,0,1,157.61,128.08Zm.15-.16a35.72,35.72,0,0,0,7.86,5.66,1.19,1.19,0,0,0-.32-.63,6.45,6.45,0,0,0-1.57-.63,6.27,6.27,0,0,1-1.88-1.57c-.32.16-.47.32-.47.16-.16-.16-.16-.16,0-.32a9,9,0,0,1-3.3-2.67Zm2.2.16c-.47-.47-.94-.78-1.41-.63,0,.16.16.32.47.16a2.62,2.62,0,0,0,1.57,1.57c-.16.16-.16.31,0,.31.16.16.16.16.32,0a3,3,0,0,0,1.57,1.1v-.15l.31.31c.16.32.16.32.31,0,.16.16.32.47.48.63v-.16a.33.33,0,0,0,.31.32h.16c.15.15.15.15.31.15,0,.16,0,.16.16.16a.86.86,0,0,0,.78.47v.16a.8.8,0,0,1,.63.31.29.29,0,0,0,.47,0c0,.16,0,.16.16.32a31.41,31.41,0,0,1,3.3,2.35c0,.16,0,.16.15.16l.32.31h-.16c0-.15,0-.15.16-.15s.15,0,.31.15l.16-.15.47.47c.16.31.31.47.78.31-.31.16-.47,0-.47-.16h.16l-.47-.47a.29.29,0,0,0,.47,0,.59.59,0,0,1-.47-.15c0,.15,0,.15-.16.15s-.31,0-.31-.15c.16,0,.16,0,.31-.16a.46.46,0,0,0-.31-.16c.16.16.16.16,0,.32-.16,0-.32-.16-.47-.32h.31v-.15h-.16c0,.15,0,.15-.15.15-.16-.15-.16-.31-.32-.47a.29.29,0,0,1,0,.47,1.64,1.64,0,0,1-.78-.63.29.29,0,0,1,0-.47c.16.32.31.47.63.47a4.14,4.14,0,0,1-1.42-1.1c0,.16,0,.16.16.32-.16.16-.16.16-.16,0l-.47-.47-.16.15a1.21,1.21,0,0,1-.31-.62v.15a2.1,2.1,0,0,1-.63-.47v-.16l-.47.16a7.14,7.14,0,0,1-2.67-1.72c-.15,0-.15-.16-.15-.32l-.16.16a6.26,6.26,0,0,1-1.57-1.26v.16c-.16,0-.32,0-.32-.16-.15,0-.15,0,0-.16Zm-.47-1.41a12.14,12.14,0,0,0,3.46,2.82h.15a34.69,34.69,0,0,0,3,2c1.25.78,2.51,1.41,3.77,2.19a4.78,4.78,0,0,0,1.1,1c.15.15.31.31.47.15a1.16,1.16,0,0,0,.62.63c0,.16,0,.16.16.16.16-.16.32,0,.32.16-4.24-3-8.33-6-12.57-9Zm2-.79a1.18,1.18,0,0,1,.47.16l.32-.16c0,.16,0,.32.16.32h-.16a1.63,1.63,0,0,0,.94.78,5.45,5.45,0,0,1,1.26.79v-.16c-.16.31,0,.47.31.63l.16-.16v-.16c-.16.32,0,.47.31.63.16,0,.32,0,.32-.16a.3.3,0,0,0,0,.48V129a1.35,1.35,0,0,1-1-.47l-.31-.31a4.11,4.11,0,0,1-.94-.79c-.16,0-.32,0-.32.16a1.22,1.22,0,0,0,1,.78v.16a5.51,5.51,0,0,1-1.57-1.73c-.16,0-.16,0-.16-.15-.32.31-.16.63.31.78l.16-.15a.58.58,0,0,1-.16.47c0,.15,0,.31.16.31a.33.33,0,0,1-.31-.31c.15.15.15,0,.31-.16a5.83,5.83,0,0,0-1.41-.63c0,.16,0,.16.15.16-.15,0-.31,0-.15.16l-.47-.48a.56.56,0,0,0,.47.16c-.16-.16-.16-.31-.32-.63-.15,0-.15,0-.31-.15a8.82,8.82,0,0,0,1.1.47c0,.15,0,.15.15.15.16-.31,0-.47-.47-.62h-.15c0-.16-.16-.32-.32-.47l.32-.32a1.92,1.92,0,0,0,.62.47l-.47-.31C161.38,125.73,161.38,125.73,161.53,125.88Zm1.57,6.91a21.84,21.84,0,0,0,2.2,1.73c.32.16.47.31.79.47Zm9,3-2.51-1.89,2.83,2Zm0,2a21.48,21.48,0,0,0,4.24,3.14,3.59,3.59,0,0,1-.94-.63C174.25,139.39,173,138.6,172.05,137.82Zm.32.78c.78.63,1.57,1.42,2.35,2h-.15c.47.32,1.1.63,1.72,1.1A37.43,37.43,0,0,0,172.37,138.6ZM186,93.06l-.16.16a.21.21,0,0,1-.31,0,1.23,1.23,0,0,1,.31,1.26c-.15-.16-.15-.32-.31-.47a3.82,3.82,0,0,0,.31,1.25.72.72,0,0,1,0-.78A.58.58,0,0,0,186,95Zm-.16,4.56v-.48H186v-.78a29.72,29.72,0,0,0,.31,3.93C186.19,99.5,186,98.56,185.87,97.62Zm1.42-6.76c.15,2.2.15,4.24.31,6.44a170.22,170.22,0,0,1,3.3,21.52c0,.15,0,.15.16.15v3.77a34.69,34.69,0,0,0-.32-8.95c-1.1-6.28-2-12.72-3-19.16a13.24,13.24,0,0,0,.15-2.51,6.17,6.17,0,0,0-.15,1.57,4.25,4.25,0,0,0-.16-1.41c-.16-.32-.16-.47,0-.63-.16-.16-.16-.32-.16-.63v.16C187.29,91.18,187.13,91,187.29,90.86Zm.31-6.43a3,3,0,0,0-.16,1.09,40.25,40.25,0,0,0,.47,6A36.06,36.06,0,0,1,187.6,84.43Z" transform="translate(-70.86 -6.54)"/>
    <path d="M189.88,187.85c2.2,1.73,4.55,3.45,6.75,5.5,1.42,1.88,2.83,3.61,4.24,5.49a.41.41,0,0,0,.47.47c2.2,3.61,4.4,7.38,6.44,11.15a14.15,14.15,0,0,1,.94,6.13,5,5,0,0,1-2,5.81,2,2,0,0,0-1.1.78,28.77,28.77,0,0,1-5,5.81,49.22,49.22,0,0,1-6.44,4.87,4.82,4.82,0,0,1-2,.94c-.79.47-1.42.94-2,1.26v.16c-.63.62-1.42,1.25-2,1.88a2,2,0,0,0-.63.47c-.16.16-.32.32-.32.47a.56.56,0,0,1-.47.16l1.1-1.1a7.31,7.31,0,0,0,2.2-2.2,8,8,0,0,0-3,1.89c-.16,0-.16-.16-.16-.32-.16.16-.16.16-.32.16v-.16a4,4,0,0,1-1.57.94.58.58,0,0,0-.47-.15c-.15.15-.31.31-.47.15a3.64,3.64,0,0,0-.78,1.1,10.9,10.9,0,0,0,.63-.94,7.42,7.42,0,0,0-2.36.94,5.27,5.27,0,0,0-3.14,1.42c-1.1.31-1.89.63-2.83.94a1.56,1.56,0,0,0,.79-.63c-.16-.16-.32-.16-.32-.31a8.47,8.47,0,0,0-1.25.94,2.58,2.58,0,0,1,.31-.79,13.73,13.73,0,0,1-3.77,1.1,3.66,3.66,0,0,0-1.41.32,6.43,6.43,0,0,1-2,1.25l.47-.15c-.31,0-.47,0-.47-.16-.32.31-.63.47-.79.63a.47.47,0,0,0,0-.63c-.31.31-.63.47-.78.63v.15a8.49,8.49,0,0,1-2,1.1l.31-.31a15,15,0,0,0-4.4,1.73,8.84,8.84,0,0,1-2,1.1c-.15-.32.16-.47.63-.63a1.12,1.12,0,0,1,.79-.63,3,3,0,0,0-1.73.79c-.32-.16-.32,0-.47.15-.16,1.89-.47,3.93-.63,6,.16.31.47.31.78-.16a5.47,5.47,0,0,0,1.89-1.57,1.16,1.16,0,0,1,.16-1.25c.31.15.47.47.62.62a3.23,3.23,0,0,0,1.26-.94c-.16-.16-.16-.31.16-.47a5.43,5.43,0,0,0,1.1-.94c0-.32.15-.63.62-1.1a3.26,3.26,0,0,0,.95-.63,1.49,1.49,0,0,1,1.72-.63.5.5,0,0,1,.63,0,2.75,2.75,0,0,0,1.26,1.1,5.25,5.25,0,0,1,2.67-.15,58.26,58.26,0,0,0,5.49,2c1.57.62,3.14,1.25,4.71,1.72,1.1.63,2.2,1.26,3.15,1.73a2.35,2.35,0,0,0,.94.47,4.37,4.37,0,0,1,2.82,2.67,17.35,17.35,0,0,1,2,2.67,3,3,0,0,1-1.1,3.46,3.45,3.45,0,0,0-1.42,1.1c-.15.31-.31.47-.47.47a5.83,5.83,0,0,1-1.41.63c-1.41.15-2,.62-2.2,1.56a3.42,3.42,0,0,1-.47.79c-.63,0-.79.16-.63.63,0,.16-.16.16-.47,0-.16,0-.16,0-.31-.16a7.67,7.67,0,0,1-2.67.79,26.34,26.34,0,0,0-3.14,1.41c-.48.16-.79.16-.95.31a4.64,4.64,0,0,1-2.67,1.26,7.17,7.17,0,0,0-2.19,1.26,12.34,12.34,0,0,1-2.52,1.25,2.28,2.28,0,0,1,1.42-1.25,9.07,9.07,0,0,0-1.42.31,18.8,18.8,0,0,0-1.72.94,1.36,1.36,0,0,0-1.1.95c-.16-.16-.16-.16-.32-.16a3.09,3.09,0,0,1-.63.78,2.75,2.75,0,0,0-.94.47.29.29,0,0,0,.47,0,2.26,2.26,0,0,0-1.1.32A4.31,4.31,0,0,0,163,276h2.35a.34.34,0,0,0,.32-.32v-.47a31.44,31.44,0,0,1,10.83,1.26,5.42,5.42,0,0,0,2.2,0c-.16.15,0,.15.16.15.15.16.31.16.78,0h-.15c0,.16,0,.16.15.16l.16-.16a7,7,0,0,1,1.73.16,3.61,3.61,0,0,0,1.25.32,59.59,59.59,0,0,1,8,3.61,57.24,57.24,0,0,1,14,10.83c1.25,2,2.51,3.93,3.61,6a3.7,3.7,0,0,1,.16,2.2c.15,1.1.31,1.88.47,2.82a44.19,44.19,0,0,1-2.51,3.93A5,5,0,0,1,204,307a3.32,3.32,0,0,1-1.73.16,2.59,2.59,0,0,0-2.51.31.91.91,0,0,1-.62.16,1.4,1.4,0,0,0-.32-1.26,2.17,2.17,0,0,1-.94.31,7.45,7.45,0,0,0-1.1.48v-.32a9.24,9.24,0,0,1-3.46.79,12.56,12.56,0,0,1-3.14,1.72c-1.57.79-3.14,1.57-4.55,2.2a24.54,24.54,0,0,0,6.75-4.24V306.1a12.62,12.62,0,0,1-2.35.31,20.94,20.94,0,0,1-3,.63c-.31,0-.47,0-.63.16a1,1,0,0,0,.63.15,2.26,2.26,0,0,0-1.1.32,3.3,3.3,0,0,0-1.88.47,10.9,10.9,0,0,0,3.3-1.73,2.34,2.34,0,0,0-1.1.31c-2.2.95-4.09,1.89-6,2.83h-.63a28.32,28.32,0,0,0,8-3.77c0-.16,0-.16.16-.31a5.26,5.26,0,0,0-2.67,1.25c.16-.15,0-.31-.16-.47a3.81,3.81,0,0,1-1.25.16v-.16c-.16.16-.16.16-.32.16,0,.16,0,.16.16.16h-.47a.34.34,0,0,0,.31-.32.89.89,0,0,0-.94.16h-.16a1.31,1.31,0,0,1-1.1,0,9.29,9.29,0,0,1-4.39,1.26h-.95a.58.58,0,0,1-.47-.16,4.64,4.64,0,0,0,3.14-1.26h-1.25a3.31,3.31,0,0,1-1.89.47c.16-.15.32-.31.32-.47-.16,0-.16,0-.16-.15l.16-.16c-.16.16,0,.31.31.31a6.53,6.53,0,0,0,2.2-.94,3.23,3.23,0,0,0,.94-.63c-.16-.15-.31-.47-.47-.62-.31.31-.63.47-.94.31-.16.31-.47.47-.63.31h.16c-.16,0-.16,0-.32-.15,0,.47,0,.62-.31.47v-.32c-.32.16-.47.16-.47.32h-.63c0-.16.16-.32.47-.47.31,0,.47-.16.63-.47-.16-.16-.32-.32-.63-.16a1.67,1.67,0,0,1-1.88.16,2.16,2.16,0,0,0,1.25-.79H175a2,2,0,0,0,2-.79c-.15,0-.15,0-.15-.15-.16.15-.48.15-.95.31-.31,0-.47-.16-.31-.31a1.91,1.91,0,0,0,2-1.1v-.16c.16,0,.32-.16.47-.31-.15-.16-.15-.16-.15-.32-.48-.31-.79-.31-.95,0a1.23,1.23,0,0,1,.16-.47c-.16,0-.16,0-.16-.16a1,1,0,0,1-.94,0c.16,0,.16-.15,0-.31h-.47a8.89,8.89,0,0,0,1.1-.63,8.11,8.11,0,0,0-1.73-.15,2.48,2.48,0,0,0-1.41-.47.7.7,0,0,1-.79-.16c-.15.16-.15.16-.31.16a2.69,2.69,0,0,1-.94-.16l-.16.16c0,.15,0,.15.16.15-.16.32-.32.32-.63.16-.32.16-.47.47-.79.63a1.4,1.4,0,0,0,1.26-.32c-.94.63-1.57,1.26-2.36,1.73-2,.63-3.92,1.1-5.49,1.57v.16a1.18,1.18,0,0,0,.63-.16c-.47.16-1.1.31-1.57.47a3.26,3.26,0,0,1-.95.63.68.68,0,0,0-.78,0c0,.16.15.16.47.16-.47.15-.79.31-.94.15a9.18,9.18,0,0,1-4.24,1.89l.15-.16c0,.16,0,.16.16.16a6.26,6.26,0,0,1,1.57-1.26,9.07,9.07,0,0,1,2.2-.78c-.16-.16,0-.32.16-.47h-.16a16.16,16.16,0,0,1,1.88-.48,3.29,3.29,0,0,0-1.72,0c-.16,0-.16,0-.16-.15a.5.5,0,0,1-.31.15,2.63,2.63,0,0,0-.95.48h.16c-.16,0-.16,0-.16-.16a2.1,2.1,0,0,0,1.26-.47,11.62,11.62,0,0,0-1.73.47c.16-.16.32-.16.63-.32-.16,0-.16,0-.16-.15.16.15.16.15.32.15v-.15c0,.15,0,.15.16,0h.47c-.16,0-.32,0-.32-.16,0,.16.16.16.32.16a10,10,0,0,1,1.09-.79c-.15,0-.15,0-.31-.16.16.16.47.16.79-.15h.15c-.15,0-.15,0-.15-.16a5.12,5.12,0,0,0,1.25-.31l.16-.16.31-.16A.86.86,0,0,0,164,300c-.16,0-.16,0-.16-.16a.3.3,0,0,1,.47,0l.16-.15h-.16a6.3,6.3,0,0,0,.95-.32c-.16,0-.16,0-.16-.15l.16-.16c0,.16,0,.16.15.16l.16-.16c-.16,0-.16,0-.16-.16a.93.93,0,0,0,.94-.47h-.15c.31.16.63.16.78-.15v-.16c0,.16,0,.16.16.16.16-.16.31-.48.47-.63.63.15.94.15,1.1-.32.16,0,.16,0,.31-.15-.15.15-.15.15,0,.15l.16-.15H169a.59.59,0,0,0,.48-.16h-.32c0,.16.16.16.32.16l.15-.16c-.15,0-.15,0-.15-.16,0,.16,0,.16.15.16,0-.16,0-.16.16-.32h-.16c.16.16.47.16.79-.15v-.32c0,.16,0,.32.15.16v-.16a3.07,3.07,0,0,0,.95-.63c1.41-1.09,2.82-2.51,4.39-3.92-.15-.16,0-.32.16-.47a4.52,4.52,0,0,0,1.41-2.36,7.34,7.34,0,0,0,1.1-3.3,16.49,16.49,0,0,1-3.29-1.72,8.78,8.78,0,0,1-2.83-1.89,31.29,31.29,0,0,1-7.54-.47.57.57,0,0,1-.47-.16,10.15,10.15,0,0,1-4.08-.94c-.63.16-1.1,0-1.26-.31a5.15,5.15,0,0,0-3.14.31,7.92,7.92,0,0,0-.47,2.52,15.17,15.17,0,0,1-.16,4.71,86.32,86.32,0,0,1,0,9.1.59.59,0,0,0-.16.48,15.15,15.15,0,0,0,.48,3.76l.15,3.93v-.16c-.15.47-.15.79,0,.94-.15.48-.15.79,0,.95s.16,0,.16-.16a2.34,2.34,0,0,0-.16,1.73A8.79,8.79,0,0,1,156,310a14.64,14.64,0,0,1-.63,5.34,2.13,2.13,0,0,1-.16,1.73,1.1,1.1,0,0,0-.62,1.41,3.23,3.23,0,0,0-.94,1.26c-.16.16,0,.16.15.31h1.1c.16.47,0,.79-.47.79a4.19,4.19,0,0,0-3.61,2.2c-.16.31-.16.47-.32.47a17.27,17.27,0,0,1-3.14,2.82,2.87,2.87,0,0,1-2.67.79c-.62.31-1.25.78-2,1.26-.47.15-.78.31-1.25.47a2.61,2.61,0,0,0-.48-1.57c-.15,0-.31-.16-.47-.32-.47,0-.62,0-.78-.16-.16.16-.32.16-.32,0-.31-.15-.62-.47-.94-.62a15.94,15.94,0,0,1-3.45-5,11,11,0,0,1-4.09-4.87,2.68,2.68,0,0,1-.94-.94.83.83,0,0,1-.31-.63C125,311,120.78,307,116.39,303L115,302a18.37,18.37,0,0,1-3.61,4.87,4.81,4.81,0,0,1-.78,1.57c0,.16,0,.16.15,0a4,4,0,0,1-2.51,1.89,10.73,10.73,0,0,1-3,1.41,6.26,6.26,0,0,1-.79.94A8.46,8.46,0,0,0,101,313a19.21,19.21,0,0,0-4.24-.48,2.24,2.24,0,0,1-1.41-.94c-.63-.16-1.26-.16-1.73-.31a11.59,11.59,0,0,1-4.24-3.61c-.47,0-.63-.16-.79-.63-1.1-.79-2.2-1.73-3.29-2.67v-.31l.15-.16a.74.74,0,0,1,0-.79c.16,0,.16,0,.32.16l.15-.31c-.15,0-.31-.16-.15-.32a1,1,0,0,0,.94.16c-.32-.16-.47-.32-.32-.47a.7.7,0,0,0,.32-.95,1.74,1.74,0,0,0,.78-.15c.16,0,.32-.16.32-.47v-.16l.15-.16h.48c-.16-.15-.16-.31-.32-.47a.33.33,0,0,0,.63,0c.16.32.31.32.31-.16.16.16.32,0,.47-.15-.47-.32-.62-.63-.47-.94.16.15.16.15.32.15-.16-.15,0-.15.15-.31-.15,0-.15,0-.15-.16H90v-.47a.58.58,0,0,1,.47.16l.15-.16c-.15-.16-.31-.47-.47-.63a1.9,1.9,0,0,0,1.42-.63.33.33,0,0,1-.32-.31h.94c-.15-.16-.15-.31-.31-.47A6.23,6.23,0,0,0,95.82,294a4.27,4.27,0,0,0,2.51-1.25c3.45-2,6.59-4.4,9.89-6.75a1.21,1.21,0,0,0-1.1.15c-.15.16,0,0,.32-.15a15.53,15.53,0,0,1-7.86-1.57,27.19,27.19,0,0,1-6-5.19,5.14,5.14,0,0,1,.94-3,3.4,3.4,0,0,1,.79-.63c-.16,0-.16,0-.16-.16,0,.16,0,.16.16.16a9.87,9.87,0,0,0,1.41-1.88c.16.15.47,0,.63-.16v-.31a2.41,2.41,0,0,0,.62-.95,2.91,2.91,0,0,0,1.42-1.41,87,87,0,0,1,7.22-5.18,37.78,37.78,0,0,1,9.27-5v.16c-.32,0-.47.16-.47.31a6,6,0,0,0-1.89,1.42,1.65,1.65,0,0,0-.78.63c-.47.62-1,1.1-1.26,1.57a36.16,36.16,0,0,1-5.5,3.92,2.69,2.69,0,0,0-1.72,2.2c0,.16,0,.16.15.16a19.2,19.2,0,0,0,5.18-.32c1.1-.15,2.2-.15,3.46-.31a5.27,5.27,0,0,1,2.36-.79c.31.16.62,0,.94-.31-.16.16,0,.16.31.16a2,2,0,0,0,1.1-.63c-.16.16-.16.31-.31.31.15.16.15.16.31.16a14.27,14.27,0,0,0,3.14-.94,3.06,3.06,0,0,0,1.73-.32h-.16c0,.16.16.16.32.16.15-.16.47-.16.62-.31-.15,0-.15,0-.15-.16.15-.16.31-.16.47-.31-.16.15-.32.15-.47.31.15.31.47.31.94,0-.16-.31,0-.47.31-.63a.58.58,0,0,1-.15.47,3,3,0,0,0,1.57-.47h-.16L126,267c-.16.15.15.15.94,0a9.54,9.54,0,0,0,2.83-1.11c.47.16.78,0,1.25-.31.47-.16,1.1-.31,1.89-.63a1.21,1.21,0,0,0,.62-.15c-.15,0-.15,0-.15-.16a2.76,2.76,0,0,0,2.2-.31,69.91,69.91,0,0,1-.48-11.47,11.61,11.61,0,0,1-4.71,0c-.47.16-.78.32-1.1.16a17.43,17.43,0,0,1-4.24,1.73c1.1-.79,2-1.42,3-2a12.68,12.68,0,0,1-7.07-5.5,2.12,2.12,0,0,0-.94-1.1v-2c-.16-.47-.47-.94-.63-1.42.79-2.19,1.73-4.39,2.83-6.75,1.25-2.2,2.35-4.71,3.77-7.22a5.72,5.72,0,0,1-1.73-.79,30.55,30.55,0,0,1-3.93-2.2,5.29,5.29,0,0,1-2.67-1.72l-1.88-1.42h.16c0-.47.15-.62.63-.78a2.48,2.48,0,0,0,.62-1.1c.16-.16.32-.31.47-.47a15.83,15.83,0,0,0,1.57-1.73l1.1-1.1c.16-.15.16-.31.32-.47-.16.16-.16.16,0,.16,0-.16.15-.32.31-.63,0,.16.16.16.32,0a1.72,1.72,0,0,0,.31-.94,18.62,18.62,0,0,0,3.3-2.83c.15-.78.78-1.25,2-1.41a38.34,38.34,0,0,1,6.75-5.5,10.69,10.69,0,0,0,2.67-1.57,13.54,13.54,0,0,0,.32-5c-.48.47-.79.62-1.26.47a74.52,74.52,0,0,1-6.28,4.24v-.16a53.69,53.69,0,0,1-4.24,4.08,1.2,1.2,0,0,1-1.42.47,5.2,5.2,0,0,1-.78-3.77,28.62,28.62,0,0,1,6.12-8,98.62,98.62,0,0,1,10.52-9l.32-.16-.16-.16c.16,0,.32-.16.47-.31a1.16,1.16,0,0,0,.63-.16l.16-.31a48.76,48.76,0,0,1,16-6.91,4.24,4.24,0,0,1,2-.48A37.62,37.62,0,0,1,177,180.16a67.4,67.4,0,0,1,6.76,3.45A72.54,72.54,0,0,1,189.88,187.85Zm-79.62,2.2c.16-.16.32-.47.63-.63a.29.29,0,0,0,0,.47h-.16a10.25,10.25,0,0,0-2.35,2,14,14,0,0,0-1.88,3.77,6.92,6.92,0,0,0-2,3.77v-.16a3.48,3.48,0,0,0-.63.95,20.33,20.33,0,0,0-2.35,7.38A18.36,18.36,0,0,0,99,215.49a6.23,6.23,0,0,0,.15,3.77H99a.85.85,0,0,1,.62.94h-.15a5,5,0,0,0,.15,1.57c0,.16,0,.16.16.16l.16-.16c-.16.16-.32.16-.16.31a2.26,2.26,0,0,1,.47,2,.3.3,0,0,0,0,.47c-.15.16-.31.16-.15.32h.15c-.15.16-.15.16,0,.16,0,.15.16.15.32.15a1.8,1.8,0,0,0,.15.79c.16.47.32.94.48,1.57a4,4,0,0,0,1.41,2.51h.16a17.55,17.55,0,0,1,2.19,4.56c0,.15,0,.31.16.31l.16-.16a9.36,9.36,0,0,0,3.14,5.34h.31a3.3,3.3,0,0,0,1.1,2.2,4.86,4.86,0,0,1,1.1,2.2,5.77,5.77,0,0,0,1.42,2.51,28.89,28.89,0,0,0,4.24,2.51,4.13,4.13,0,0,0,1.25,1.1.81.81,0,0,0,.32.63l.15-.16a8.1,8.1,0,0,0,2.83,1.42c.47.16.94-.16,1.41-.79l-.63-.63H122a8.37,8.37,0,0,1,1.1,2.05,10.32,10.32,0,0,0,0,3.14,6.79,6.79,0,0,1-4.4.47,16.72,16.72,0,0,1-7.22-5,1.2,1.2,0,0,0-.94-.78,44.39,44.39,0,0,0-3.46-4.24v-.47c-2.2-3.77-4.55-7.54-6.75-11.47a30.64,30.64,0,0,1-4.87-10.52,14,14,0,0,1-.94-7.22c.47-3.14,1.26-6.44,2-9.58a2.61,2.61,0,0,1,0-1.57c.16-.47.32-1.1.47-1.57a6.22,6.22,0,0,1,.79-2.2H97.7c.16,0,.16-.16.16-.31a.58.58,0,0,1-.32-.79A6.41,6.41,0,0,1,99,198.68a19,19,0,0,1,4.08-6.75c.16-.15.31-.15.47-.31,1.1-1.26,2-2.36,3.14-3.77.63-1.41,1.41-1.41,2.51-.31A6.2,6.2,0,0,0,110.26,190.05Zm-1.57,2.51a3.23,3.23,0,0,1-.15,1.26c.15.15.15.15.15.31l-.15-.16a.56.56,0,0,1-.16.47,1.67,1.67,0,0,1,.16-.78c-.16,0-.16,0-.16-.16-.16.16-.16.32-.32.47l-.15-.15h-.16c0-.16.16-.32.31-.47h-.15c-.16.15-.16.31-.32.47.16-.16.16-.16.16-.32l.31-.31a1.19,1.19,0,0,1,.32-.63c-.16.31-.16.47.16.63A1.23,1.23,0,0,1,108.69,192.56Zm11.31,92a2.72,2.72,0,0,1-.94.16,3.23,3.23,0,0,0-.63.94c-.16,0-.16,0,0-.16l-.16.16h.16c-.31.16-.31.32-.47.47s-.16,0-.16-.15a1.25,1.25,0,0,0-.78.78c-.16,0-.32-.16-.16-.31a3.32,3.32,0,0,1-.47.78c-.16,0-.16,0-.16-.15,0,.15,0,.31.16.31a.57.57,0,0,1,.47-.16c-.16.32-.31.47-.47.47V288a.57.57,0,0,0,.47-.16,15.67,15.67,0,0,1,3.3-3.14Zm14.92-3a7.51,7.51,0,0,0-1.42.47v-.16a10.25,10.25,0,0,1-2.82.47,5.35,5.35,0,0,1-1.73.79,1.67,1.67,0,0,1-.78.16c-.16.15-.32.15-.32,0-.16,0-.16,0,0-.16h-.47V283a1.64,1.64,0,0,1-1.26.16c-.15.16-.15.31-.15.16-.16,0-.16,0-.16-.16a1.16,1.16,0,0,1-.63.16l-.47.94a1.89,1.89,0,0,1-.78.78c-.16.16-.48.32-.63.47a1.19,1.19,0,0,1-.63.32c0-.16,0-.16-.16-.32a11.23,11.23,0,0,0,2.51-2.19c-.15.15-.47.31-.47.47h-.15a3.77,3.77,0,0,1-1.42.94c-.15-.16-.31-.16-.31-.31-.31.15-.47.15-.63.31a4,4,0,0,0-3.14,1.73,1,1,0,0,0-.78.94,17.13,17.13,0,0,0-1.42,2.51.85.85,0,0,0,.63-.47v.16l.31-.32c0,.16,0,.16.16.16a26,26,0,0,1,4.71-3.45c-.63.62-1.25,1.1-1.73,1.57-.47.15-.78.31-.78.62.16,0,.16,0,.31.16a3.62,3.62,0,0,1-1.41.94c-.16,0-.16,0-.16-.15-.15.31-.47.47-.62.62.15,0,.31-.15.47-.47,0,.16,0,.16.15.16-.15.31-.15.47-.31.63a1.62,1.62,0,0,1-.16,1.25.74.74,0,0,0,0,.79l-.15.16v.15c.15,0,.15,0,.31-.15.16.15.31.15.16.31s-.16.32-.16.16c-.31.16-.31.31,0,.47h-.16v.31c-.15.16-.47.32-.63.16a.48.48,0,0,0,.16.63,4.39,4.39,0,0,0-1.41,2.2l.94.47a2.58,2.58,0,0,1-.47.94c1.26.79,2.35,1.73,3.45,2.51a18.58,18.58,0,0,0,7.07,4.71c.79-.31,1.41-.62,2.2-.94a12.57,12.57,0,0,0,4.24-2.35,9.85,9.85,0,0,1,.63-1.57,11.24,11.24,0,0,1,2.35-3.46,125.06,125.06,0,0,0-.63-15.39A1.73,1.73,0,0,1,134.92,281.6Zm-2.36-51.67a3.84,3.84,0,0,0-1.1,3.77,3.2,3.2,0,0,0-.15,2.67c1.1-.15,2.35-.31,3.76-.63a41.58,41.58,0,0,0-.47-6.28A2.29,2.29,0,0,0,132.56,229.93Zm29.21-41.45a19.44,19.44,0,0,1-4.08.47c-.16.15-.16.15-.16.31-.16,0-.16,0-.16-.16a17.4,17.4,0,0,0-6.44,2.05v.31a1.68,1.68,0,0,1,.79.16c0,.31,0,.63-.16.78a.87.87,0,0,0,.47.79,5.13,5.13,0,0,0,1.73,1.88,1.07,1.07,0,0,0,.94,1.42,2.19,2.19,0,0,1-.78,1.57v.62c-.16.63.16,1.1.94,1.26a15.21,15.21,0,0,1,3.77,2.67,3,3,0,0,0,.63,1.26c.16.31.16.47.31.31a2.53,2.53,0,0,1,.94,2.83,3.11,3.11,0,0,1,.47,1.72.71.71,0,0,0,.32,1h-1.1V210a3.64,3.64,0,0,0-1.88,1.89c-.63,1.41-.95,2.66-1.42,3.92a4.67,4.67,0,0,1-.31,1.26,2.61,2.61,0,0,1-.79,1.88.5.5,0,0,0,0,.63,20.07,20.07,0,0,0-.15,4.24,19.36,19.36,0,0,0,4.71-4.08l.62-.63-.15.16c-.16,0-.16,0-.16-.16a1.14,1.14,0,0,0,.79-.63c2.82-3.77,6.12-7.69,9.58-11.46a26.65,26.65,0,0,0,5.49-10.68,1.92,1.92,0,0,1-1.1-1.1,22.47,22.47,0,0,1-5-4.24,40.62,40.62,0,0,0-6.44-2.36,5.24,5.24,0,0,0-1.57.16,1.7,1.7,0,0,1-.79.16c.16-.16.32-.16.47-.32C161.93,188.79,161.77,188.63,161.77,188.48Zm-2.2,116.67c0,.16,0,.32-.15.32s-.16,0-.16-.16a.7.7,0,0,1-.94.31l.15-.15c-.31.15-.47.15-.62.31a1.94,1.94,0,0,1,1.09-.78v-.16c0,.16.16.31.32.16v-.32c0,.16,0,.16.16.32l-.48.15C159.1,305.31,159.26,305.31,159.57,305.15Zm2.36-2.35a1.31,1.31,0,0,1-1.1.16h.47c-.47.15-.79.15-.94.31h.15l-.94.47Zm8.79-2.36a6.26,6.26,0,0,0-1.41.79c0,.15.16.15.31.15a4.73,4.73,0,0,0,1.57-.78,8.59,8.59,0,0,1,1.1-.31c-.16.15-.16.15,0,.15H172v.32c-.16,0-.16,0-.32-.16-.15.31-.31.47-.62.47a.73.73,0,0,0-.79.47c.16.16.16.32.31.16v.16a.59.59,0,0,0,.48-.16c-.16,0-.16,0-.16-.16,0,.16.16.16.31.16.16-.47.47-.63,1.1-.63-.16.16-.16.16-.31.16v.15a1.62,1.62,0,0,0-.94.79h.62a7.15,7.15,0,0,0-1.1.94c.16.16.32.32.48.16l.94-.47a2.77,2.77,0,0,1-.94.94c.15.16.15.32.31.32h-.16c.32,0,.47.15.32.31.15.16.15.16.31,0-.16.16-.16.16,0,.31,0,.16.16.16.31,0-.15.16-.31.16-.47.32v-.32a1.6,1.6,0,0,1-1.25.79l.15-.32c-.62.16-1.25.16-1.88.32-.16.15-.16,0,0-.16-.16,0-.16,0-.16-.16.16.16.16,0,.16-.15a2.88,2.88,0,0,0-1.26-.32c-.15.16-.15.32-.31.16l.16-.16c-.16,0-.32,0-.32-.15-.15,0-.15,0-.31-.16.16.16.31.16.63,0-.16-.16-.32-.16-.32-.31-.15-.32-.15-.48.32-.63.15-.16.63-.32,1.1-.63a5.27,5.27,0,0,1-1.73-.16c.47.16.78,0,.78-.47A.58.58,0,0,1,167,302h.16v-.31h.31v-.32a3.4,3.4,0,0,0,1.89-.78c-.16.31,0,.47.31.31a8.44,8.44,0,0,1,3.14-1.41A4.16,4.16,0,0,0,170.72,300.44Zm.94,5.5c0,.16,0,.16.16.16a.46.46,0,0,0-.16.31c-.15.16-.15.16-.15,0a1.7,1.7,0,0,0-1.26,0h-.31c.15-.16.47-.31.47-.63a5.76,5.76,0,0,1,1.72-.16C172,305.78,171.82,305.78,171.66,305.94Z" transform="translate(-70.86 -6.54)"/>
    <path d="M157.38,370.73c1.57,1.1,3.14,2.36,4.87,3.62a39.32,39.32,0,0,1,9.74,10,16,16,0,0,1,1.72,4.23,9.89,9.89,0,0,1-.15,3.77,14.92,14.92,0,0,0-.16,3.77,45.25,45.25,0,0,1,3.77,4.09,2.86,2.86,0,0,1-.63,2.66,2.16,2.16,0,0,1,0,1.42l-3.3,2.83a1.14,1.14,0,0,0-.62.31h.31a37.36,37.36,0,0,1-6,1.57,7.2,7.2,0,0,1-2.2,1.1c-.15.16-.15.16-.31.31s-.16,0-.16-.15a7.44,7.44,0,0,1-2.51,1.57c0,.15.16.15.31.15h-.31v-.15a5.61,5.61,0,0,0-1.88,1.25c-.16,0-.16,0-.16-.15-1.73,1.25-3.14,2.35-4.71,3.61a8,8,0,0,0-3.61,2.35,25.5,25.5,0,0,1-2.52,3,1.92,1.92,0,0,1-.47.62v-.15c-.15.15-.31.31-.31.47v-.16a32.24,32.24,0,0,0-3.14,3.46,16.49,16.49,0,0,0-2.2,2.51,2.69,2.69,0,0,0,.94.94c.16,0,.16,0,.32-.16-.16.16-.16.16-.32.16a39.32,39.32,0,0,1,1.73,5.18,30.05,30.05,0,0,1,1.1,3.93,9.5,9.5,0,0,1,.94,3.93,3.84,3.84,0,0,1,.31,1.09,29.75,29.75,0,0,1,1.42,7.07,8,8,0,0,1,.15,1.89c.48,1.72,1.1,3.61,1.73,5.33a14.24,14.24,0,0,0,2,7.07c.16.16.16.47.32.63s.31.47.47.63l3.3,3.29a40.28,40.28,0,0,0,4.24,4.72,15,15,0,0,0,4.08,3.61c3.92-3.61,7.54-7.07,11.31-10.84a60.12,60.12,0,0,1,6.9-7.22h.16v-.16c.16,0,.16-.16.16-.47.63-.78,1.57-1.73,2.35-2.67a14.39,14.39,0,0,1-1.57-2.51l.32.31.16-.15a1.1,1.1,0,0,1-.63-.79c-.47-.16-.47-.63-.63-1.1a32.92,32.92,0,0,1-2.2-2.51l.16-.32a8.6,8.6,0,0,0-1.1-.62c-.47.94-.79,1.72-1.1,2.51a.9.9,0,0,0,.31,1.1c-.15.78-.47,1.1-.94,1.25a7.22,7.22,0,0,1-1.57.79,4.79,4.79,0,0,1-1.88,2,3.48,3.48,0,0,0-.95.63c.16.47.16.78-.31.94-.16-.16-.31-.16-.47-.31-.16.15-.16.15-.16.31a.29.29,0,0,1,0-.47,2.54,2.54,0,0,1-1.57-.16c0,.16.16.16.32.16a.48.48,0,0,0-.16.31c0,.16,0,.16.16.16l.15-.16h.16V459c0-.16.16-.32.47-.47-.16.15-.31.47-.47.62-.47.16-.79-.15-.79-.62-.15,0-.15,0-.15-.16a2.13,2.13,0,0,1,.31-.94c-.47.31-.78.62-1.25.94a1.17,1.17,0,0,1,.31-.63c-.16-.16-.31,0-.31.16V458a7.72,7.72,0,0,0-2.83-1.25,2.26,2.26,0,0,0-1.57-.63,24.5,24.5,0,0,1-4.08-2.2,11.66,11.66,0,0,1-1.73-2.2c-.79.32-1.1.16-1.1-.31-1.1-.79-2-1.42-3.14-2.2a40.56,40.56,0,0,1-5.18-6.28c0-.16.31-.47.78-.63.32-.47.63-.78.94-1.25a10.3,10.3,0,0,1,1.89-.95,1.37,1.37,0,0,1,.47-.94c.47-.31.94-.63,1.57-1.1-.31-.47-.31-.78.16-.94-.16,0-.16-.16-.16-.31a1.52,1.52,0,0,0,1.41-1.26c1.1-.32,2.2-.79,3.46-1.26.31-.16.47-.63.47-1.25a5,5,0,0,1,2.67-.32,12.76,12.76,0,0,0,4.87-.94,7,7,0,0,0,2.51-.94h-.16c.32.16.63,0,.94-.32h-.15a2.55,2.55,0,0,1,1.41-.47,2.93,2.93,0,0,1,1.57-.78c1.57-.63,3-1.42,4.55-2.2-.15.16-.15.31,0,.31.16.16.32,0,.48-.31h-.32c.94-.32,2-.79,3.14-1.26l-.16.16c0,.16,0,.16.16.16,1.89-.79,4.08-1.57,6.13-2.52-.16,0-.16,0-.16-.15a1.65,1.65,0,0,0,.78-.16c-.15.16-.15.16,0,.16s.16,0,.32-.16v-.16c.16,0,.31-.15.47-.31-.16.16-.31.31-.47.31a3.59,3.59,0,0,0,1.25-.31,33.54,33.54,0,0,0,3.3-1.89A18.76,18.76,0,0,0,199,420a4.17,4.17,0,0,1,4.24-.78A23.42,23.42,0,0,1,210.3,423a29.46,29.46,0,0,1,2.36,2.19c.94.79,1.73,1.57,2.51,2.36a20,20,0,0,1,4.87,8c.31.78.63,1.41.94,2.2a4.25,4.25,0,0,1,.16,2,3.08,3.08,0,0,1-.94,1.88,5.83,5.83,0,0,1-1.89,3.14,2.75,2.75,0,0,0-.94.47,8,8,0,0,0-2.67-.15v.63a5.05,5.05,0,0,0-4.08-1.89.63.63,0,0,0-.32.63,2.66,2.66,0,0,0-1.88-.16c-.32.16-.78.16-1.26.32a1.78,1.78,0,0,1-1.25.47.29.29,0,0,0-.47,0c-.16.15-.16.15-.16,0-.16,0-.16-.16-.31-.32a9.55,9.55,0,0,1-2.36,1.42,18,18,0,0,0-6.75,6.12,14.57,14.57,0,0,1-1.73,3.14c.16.47.16.79.31,1.1-.78.16-1.25.63-1.09,1.41,1.41,2,3.13,3.93,4.7,6a72.13,72.13,0,0,1,13.35,16.8,9.43,9.43,0,0,0,2.51,3.46,48,48,0,0,1,3.46,6.28,16.27,16.27,0,0,1,2.51,6.12,4.63,4.63,0,0,1,.16,2.05,23.27,23.27,0,0,1-.63,3.14l-.63.63a10,10,0,0,1-3.29,3.45,12.9,12.9,0,0,0-2.67.63,19.45,19.45,0,0,1-2.83.63,9.71,9.71,0,0,1-4.24.31,3.07,3.07,0,0,0-1.57-.47,1.87,1.87,0,0,1-2.2.79,8.69,8.69,0,0,0-2,.15,11.56,11.56,0,0,1-6.13-.31c-.78-.16-1.41-.47-2-.63a1.18,1.18,0,0,1-1.1-.16,24.64,24.64,0,0,1-10.83-4.08c-4.08-2.67-8.17-5.18-11.94-8.17a76.44,76.44,0,0,1-9.1-8.32c-.79.31-1.1.31-1.42,0a1.37,1.37,0,0,1,.47-.94,67.26,67.26,0,0,1-15.07-21c-1.57-4.72-3-9.74-4.24-14.45a10.37,10.37,0,0,0-.47-1.73,98.65,98.65,0,0,0-8.95,11.15,17.69,17.69,0,0,0-3.61,11.31,1.2,1.2,0,0,0,.31.63,31.09,31.09,0,0,0,1.1,5.18,10.61,10.61,0,0,1,1.57,3.29c.16.79.47,1.73.63,2.52a.71.71,0,0,0,.47.78c.16.16.16.47.31.63a2.32,2.32,0,0,1,.63,2.2c.16.78.32,1.26.47,1.88a9.5,9.5,0,0,0,.79,1.89,3.74,3.74,0,0,0,0,1.88,1.14,1.14,0,0,1,.94.63c-.31.32-.31.63,0,.79a.6.6,0,0,1,.47.15,5.23,5.23,0,0,0-.78,2.2,7.68,7.68,0,0,0-.16,3.3c-.16-.16-.16-.31-.32-.16v.94a2.83,2.83,0,0,0-1.41-.94,3.89,3.89,0,0,0-.31,1.1,2.52,2.52,0,0,0-.95,1.26,1.15,1.15,0,0,1,.32.63A3.35,3.35,0,0,0,126,502.8a2.86,2.86,0,0,0-1.1.78,5.15,5.15,0,0,1-2.51.79c-.79.16-1.57.47-2.36.63-.79.78-1.41,1.1-2.2.94.32-1.73-.16-2.67-1.25-2.67a5.76,5.76,0,0,1-3.62-4.24,4.35,4.35,0,0,0-1.25-2.36,22.86,22.86,0,0,1-3.77-6.28c-.47-.15-.63-.62-.32-1.41h-.15a8,8,0,0,0,1.1-2.36c-.47-.31-.47-.78-.32-1.41a8.9,8.9,0,0,0,2-3.14,4,4,0,0,0,.16-2.36,8.9,8.9,0,0,0,2.35-3.45A17,17,0,0,0,115,473a2.36,2.36,0,0,1,1.57-1.41c-.16,0-.16-.16-.32-.31a.83.83,0,0,0,.32-.63,1.36,1.36,0,0,0,1.09,0,1.53,1.53,0,0,1,.95-1.42,2.36,2.36,0,0,0,.62-.94v-.16c.48.16.79.32,1.26.48a33.16,33.16,0,0,0,4.71-5.66,137.25,137.25,0,0,0,7.69-17,7,7,0,0,1,1-4.24,4.86,4.86,0,0,0,.78-2.67,9,9,0,0,1,1.1-1.41,2.61,2.61,0,0,1,.79-1.88c.16-.16.47-.32.63-.48a5.91,5.91,0,0,1,.94-2c-.79.47-1.41.94-1.89,1.26a35.78,35.78,0,0,0-4.08,4.24q-3.3,4.25-6.59,8.95a2.42,2.42,0,0,0,.78-1.41,4,4,0,0,0-1.41,1.41v-.31c-1.1,1.41-2.2,3-3.14,4.39a16.58,16.58,0,0,1-2.36,3,.85.85,0,0,1-.63.47c0-.16.16-.16.32-.32a1.13,1.13,0,0,0-.94.63c-.16,0-.16,0-.16-.16-1.1,1.89-2.2,3.77-3.3,5.34v.16l.16-.16a21.84,21.84,0,0,0-1.73,2.2l-1.41,2.36a44,44,0,0,0-2.52,4.71,3.74,3.74,0,0,0-.94,1.41.29.29,0,0,1,0,.47c-.15.16-.15.16-.31.16-.16.16-.32.47-.47.63s-.32.31-.32.47,0,.16.16.16c-.31.15-.47.31-.63.31a1.69,1.69,0,0,1-.94,1.26,20.14,20.14,0,0,0-3,3.77c-3.93,5-8.17,9.89-12.41,14.6-.47.79-.94,1.73-1.41,2.51a3.26,3.26,0,0,1-1,.63,3.42,3.42,0,0,0,.79-.78h-.47a17,17,0,0,0-3.93,3.61,21.26,21.26,0,0,0-5,5.65c.15,0,.31.16.47.31a11.62,11.62,0,0,0-.79,2.52,1.16,1.16,0,0,1-.78.31l-.47.47c-.16.16-.16.16,0,.32,0,.15.15.15.31,0l-2.83,2.35c-.47-.47-.94-.47-1.1-.16a2.17,2.17,0,0,1-2-1.41,7.41,7.41,0,0,1-1.25-3.14,3.94,3.94,0,0,1,.31-1.26A14.47,14.47,0,0,1,72,503.9a3.12,3.12,0,0,0,.94-2,83.07,83.07,0,0,0,5-8.33,43.06,43.06,0,0,1,6-8.32h.16a26.16,26.16,0,0,1,2-2,17.58,17.58,0,0,1-2.2,4.24c-.47.79-.78,1.57-1.25,2.2a16.5,16.5,0,0,0-2.36,4.71c.47.16,1.1.16,1.57.31a.81.81,0,0,0,.63.32,163.43,163.43,0,0,0,11.78-19.63V475h.15a42.42,42.42,0,0,0,3-6c.47-.16.62-.63.62-1.26a1.08,1.08,0,0,0,.63-.78.84.84,0,0,1,.47-.63c-.15,0-.15,0-.15-.16.15.16.15,0,.15-.16h.16c-.16,0-.16-.15,0-.31a.58.58,0,0,0,.16-.47v-.63a2.27,2.27,0,0,0,.94-1.57c-.16.16-.16.16-.16,0l.16-.16c0,.16,0,.16.16.16a17.42,17.42,0,0,0,1.41-3.14h.16a56,56,0,0,1,2.67-5.5,8.81,8.81,0,0,0,.94-2h.16c2.51-5.49,5.34-11,8.32-16.33l.47-.94c.16.15.32,0,.32-.32h.15c1.1-2.51,2.36-5.34,3.61-7.85a7.16,7.16,0,0,1-5.34,3,2.47,2.47,0,0,1-1.25.48.93.93,0,0,1-1.1.15,26.41,26.41,0,0,1-6.13-.31,20,20,0,0,0-4.24-.94,7.94,7.94,0,0,1-5.18-3.46v-.15c0,.15,0,.15.16.15a16,16,0,0,0,.63-1.57,2.1,2.1,0,0,0,.78-1.25v.31a1.65,1.65,0,0,1,.94-.79.58.58,0,0,1,.16-.47h.32c-.16-.15-.16,0-.16.16h.47a1,1,0,0,0,0-.94c.31.31.31.16.47-.16.16.16.16.16.31.16a.5.5,0,0,1,.16-.32c0,.32.16.32.47.32a.74.74,0,0,1,0-.79,1.9,1.9,0,0,0,1.42-.94l.15-.16c.16.32.32.47.79.32,0-.16.16-.32.47-.32.16.32.31.32.47.16v-.31a1.87,1.87,0,0,1,.63-1.73,2.73,2.73,0,0,0,.78-.31l3.46-1.73a6.15,6.15,0,0,0,3-.32,2.27,2.27,0,0,1,2.36.79c.16-.16.47-.31.63-.63v.16a14.71,14.71,0,0,0,3.92-1.73v-.16a2.11,2.11,0,0,1-1.72.16,3.32,3.32,0,0,0,1.72-1.26,76,76,0,0,0,15.55-13,17.45,17.45,0,0,0,4.55-9,38.85,38.85,0,0,0,2-10.36,9.17,9.17,0,0,1-2-2.2,2.92,2.92,0,0,0,.16-1.73,12.92,12.92,0,0,1-.79-2.2,6.94,6.94,0,0,1,1.89-2.35,6,6,0,0,0,2-1.26,3.07,3.07,0,0,1,1.57-.47,5.85,5.85,0,0,0,2.2-1.1c.47,0,.78,0,.94-.47.94-.79,2-1.57,3.14-2.36a29.83,29.83,0,0,1,6.44,3.77A3.74,3.74,0,0,1,157.38,370.73Zm-54.8,109.46c.47-.32.63-1.1.78-1.89a13.3,13.3,0,0,0,1.1-1.41,14.63,14.63,0,0,0-1.41,3.3Zm84.33-19.63a56.67,56.67,0,0,0-13.2,11.3,66.79,66.79,0,0,0-6.59,6.76v.15a45.63,45.63,0,0,0,6,3.62c1.41.47,3,.94,4.4,1.41a27.84,27.84,0,0,0,14.75,1.72,9.19,9.19,0,0,0,3.46-.78,24.8,24.8,0,0,1,1.89-5.5c-.32-1.41-.63-2.82-1-4.39a3.77,3.77,0,0,0-.94-1.73c-.47-.31-.63-.63-.47-1.1-.79-1.1-1.57-2.36-2.36-3.45v-.48c.32.16.48.48.63.63v-.31a5.75,5.75,0,0,1,1.26.78,7.58,7.58,0,0,1-1.89-2,4,4,0,0,1-.47-1.1,3.4,3.4,0,0,0,.63.79c-.63-.79-1.26-1.57-1.88-2.51h.15a10.6,10.6,0,0,0,2.51,2.67,9.48,9.48,0,0,1-2-2.67,1.85,1.85,0,0,1-.78-1.1,13,13,0,0,1-1.1-1.57,2.85,2.85,0,0,0-1.1-.79A3.43,3.43,0,0,0,186.91,460.56Zm-10.53-2.2h.16a2.31,2.31,0,0,0,.16,1.1c-.47.47-.79.47-1.26,0a3.81,3.81,0,0,1-.47-.79c-.16.16-.16.16-.16.32,0-.16,0-.16.16-.32-.16,0-.16,0-.16-.15.16-.16.48-.32.63-.48a.48.48,0,0,1,.16-.31c.16.16.16.31.31.31C175.91,458.2,176.07,458.36,176.38,458.36Zm18.69-25.44a5.43,5.43,0,0,1-1.72-.32,13,13,0,0,0-5,.95,14.25,14.25,0,0,0-7.54,3.77c-.16.15-.31.47-.16.62,1.26-.62,2.68-1.25,3.93-1.88a15.42,15.42,0,0,0-4.08,2.67,8.49,8.49,0,0,0-.95,2.2c.32.47.63.63,1.1.47a8.15,8.15,0,0,1,.79,3,9.69,9.69,0,0,0,2.67,3.46h.16a3.62,3.62,0,0,1,1.25,1.41c0-.16.16-.16.32-.31.15.15.15.47.31.62a4.56,4.56,0,0,0,1.26,1.26c.16.16.47.32.62.16.16.16.16.16.16.31h.16c0,.16,0,.16.16.16a.3.3,0,0,1-.48,0c.32.47.63.78.95,1.26a.34.34,0,0,1-.32-.32c0-.16,0-.16.16-.31a1.33,1.33,0,0,1,.47.94h.31a44.73,44.73,0,0,1,4.87-5.81A15.19,15.19,0,0,0,198.21,434a1.07,1.07,0,0,0-1.25-.32Zm-4.87,28.27a28.88,28.88,0,0,0,4.56,6A28.88,28.88,0,0,1,190.2,461.19Zm2-1.26c0,.47.16.63.63.78v-.15l.32.31c-.16.16-.16.32-.16.16v.16c0-.16,0-.16.16-.32.16.16.16.32.31.47a.3.3,0,0,0,0,.47c.16.16.16.16.31.16-.15,0-.31,0-.31-.16l.16-.15-.16.15v-.31a2.35,2.35,0,0,0-.47-.94h-.16c-.15,0-.15-.16-.15-.32C192.56,460.09,192.4,459.93,192.24,459.93Zm8.49-40.05,3.29.48A4,4,0,0,0,200.73,419.88Z" transform="translate(-70.86 -6.54)"/>
    <path d="M126.36,547.21a2.48,2.48,0,0,0,1.1,1.1h.47a7.51,7.51,0,0,0,.94,2.36,13,13,0,0,1,1.57,5.18,15.23,15.23,0,0,1,.32,4.55,57.41,57.41,0,0,0-.63,9c0,3.14,0,6.44-.16,9.58a57.72,57.72,0,0,0,7.7,5.66,15.94,15.94,0,0,1,4.24,5.81,15.85,15.85,0,0,0,.94,1.72,7.22,7.22,0,0,0-.79,1.57,19.21,19.21,0,0,0-2.51,4.09c-.47.62-.94.78-1.26.31a1,1,0,0,0-.94,0,2.44,2.44,0,0,0-.94.63,2.14,2.14,0,0,1-2.2.63,1.81,1.81,0,0,0-.31,1.72c.15,0,.15,0,.31-.15a8.92,8.92,0,0,1-1.25,2,3.48,3.48,0,0,1-1,.63v-.16h.16c-.16-.16-.16-.16-.16-.31-.63.47-1.1.78-1.57,1.09.32.16.32.48.16.79s-.31.31-.47.31v.63a.3.3,0,0,0-.47,0v.16c-.16,0-.16-.16-.16-.31a20,20,0,0,1-.94,2.35v.63c-.16.16-.16.16,0,.31,0,.16.16,0,.47-.15a64.67,64.67,0,0,0,11-1.57,9.32,9.32,0,0,0,1.89-.63,2.42,2.42,0,0,1,2.51-.16,2.58,2.58,0,0,0,.47-.94,72,72,0,0,0,.94-8.32,55.69,55.69,0,0,1,3.46-11.78,55.59,55.59,0,0,1,5.18-5.5,12,12,0,0,1,4.4-3.92h1.25a10.84,10.84,0,0,1,4.24,5.65,12,12,0,0,1-.31,5.34,6.16,6.16,0,0,0,.47,2.35c.63,3.61,1.1,7.23,1.73,10.68a14,14,0,0,0-.63,4.4A19.21,19.21,0,0,0,165,608c-.16,0-.31,0-.31.16a8.4,8.4,0,0,0,0,2.83c.15,0,.31-.16.47-.32-.16.16-.32.32-.32.47a13.48,13.48,0,0,0,1.26-1.57h-.16c-.16.16-.16,0,0-.15s.47-.63.94-1.1v.15c0-.47.32-.78.95-.94.15,0,.15-.15.15-.31V607a1.61,1.61,0,0,0,.79-.94,4.79,4.79,0,0,0,1.88-2c.16.15.16,0,.32-.16-.16,0-.16,0-.16-.16h0c.16,0,.16-.15.31-.31H171c0,.16,0,.16.15.16a14.81,14.81,0,0,0,1.89-2.52h-.16l.16-.15h.16l.15-.16.32-.16.16-.31a89.42,89.42,0,0,0,6.59-8.64,64.2,64.2,0,0,0,8.79-13.19,2.89,2.89,0,0,0-1.72.16h-1.26a6.73,6.73,0,0,1-.94.31,32.11,32.11,0,0,0-14.92,9.42,9,9,0,0,1-4.71,3.77,8.19,8.19,0,0,1,1.25-2.67c3.3-3.14,6.29-6.12,9.58-9.42a47.74,47.74,0,0,1,14.92-9.26,9.62,9.62,0,0,1,4.4-1.26h2a15.21,15.21,0,0,1,2.83.94,1.58,1.58,0,0,1,.78.63,48.29,48.29,0,0,1,7.85,6.12,36.44,36.44,0,0,1,6.75,9.58,4.28,4.28,0,0,1,.95,2.67c.16.95.47,1.73.63,2.52a3.84,3.84,0,0,1-.47,3.61,2.07,2.07,0,0,1-1.57,1.41,12,12,0,0,0-2.36.32c-.31.15-.47.15-.47-.16a5.85,5.85,0,0,0-2.36,0,16.22,16.22,0,0,1-5.49,1.88,14.9,14.9,0,0,1-5.5,2.2c-.16.16-.47.32-.63.16a50.25,50.25,0,0,0-6.28,3.61,18.36,18.36,0,0,0-6,2.67c-.31.16-.63.31-.78.16a1.54,1.54,0,0,1-.79.62,6.91,6.91,0,0,1,.94-2.19,53.67,53.67,0,0,1,9.11-6c-1.09.31-2,.63-3,.94a4.67,4.67,0,0,1-2.67,1.26,4.77,4.77,0,0,1-1.41.31,2.23,2.23,0,0,1-.95.32,5.57,5.57,0,0,0-.31-1c-.16.16-.16,0-.16-.15a3.6,3.6,0,0,0-1.88,1.25,24.39,24.39,0,0,1-5.81,4.09c-2.51,1.72-5,3.61-7.38,5.33a8.62,8.62,0,0,1-2,1.26l-1.42.47c-.62.16-1.1.47-1.57.63-1.1.94-2.2,1.88-3.29,2.67a12.68,12.68,0,0,0-.32,4.24c-.16,3-.47,5.81-.63,8.79,5-4.08,10.21-8,15.55-12.25a5.18,5.18,0,0,0,1.73-1.09h.16c.31-.16.62-.48,1.09-.79A1.45,1.45,0,0,0,182,616c.31,0,.63-.31.78-.78a6.53,6.53,0,0,0,1.57-.63,2.49,2.49,0,0,1,.95-.63c.47.16,1.1-.16,1.88-.63a14.28,14.28,0,0,1,4.4.63,14.29,14.29,0,0,0,4.87,2.51c2.35,1.73,4.87,3.3,7.22,5.34a5.94,5.94,0,0,0,1.73,1.73,22.48,22.48,0,0,1,4.24,7.22,5.33,5.33,0,0,1-.16,4.87,33.34,33.34,0,0,0-3,5.81,18.73,18.73,0,0,1-2.36,5,3.62,3.62,0,0,0-.78,1.57l-1.42,2.82a5.32,5.32,0,0,1-.78,2.2,10.25,10.25,0,0,0-2.36,3.14,10.11,10.11,0,0,0-1.88,3.93,8.72,8.72,0,0,1-1.57,1.73h.16l-.32.31a7.43,7.43,0,0,1-1.1,1.1,28.26,28.26,0,0,0-3.61,3.93,4.56,4.56,0,0,1-.94.78,1.19,1.19,0,0,1,.78.32h.16a9.05,9.05,0,0,0,2.35,1.88c-.31.16-.31.31,0,.47,0-.16,0-.16.16-.31,0,.15,0,.31.16.31v-.16c-.16.16-.16.16,0,.16a.56.56,0,0,0,.31.16v-.16a3.16,3.16,0,0,1,.63.79c0,.15,0,.15.16.15h.15a2.16,2.16,0,0,0,1.11.95v-.32c0,.16,0,.16.15.16v-.16c-.15-.16-.15-.16-.31-.31v.15a1.17,1.17,0,0,1-.79-1.1,9.89,9.89,0,0,1-1.41-1.25c1.25,1.1,2.51,2.35,3.93,3.45V673c-.16,0-.16,0-.16-.16,0,.16,0,.16.16.31a.33.33,0,0,0,.31.32c-.16,0-.16-.16-.16-.32A21.57,21.57,0,0,0,203,678h-.15c0,.16,0,.16.15.16a2.88,2.88,0,0,1,.79.31c-.16,0-.32,0-.32-.15v.15a.83.83,0,0,0,.63.32v-.16a9.86,9.86,0,0,0,3.3,2.83,21.6,21.6,0,0,1-3.77-2.83,3.41,3.41,0,0,0,.94,1.26,2.68,2.68,0,0,0,.79.62,2.45,2.45,0,0,0,1.25,1,13.55,13.55,0,0,0-1.57-.79c.16.16.16.31.32.31a.41.41,0,0,1-.47-.47c0,.16,0,.16.15.16v-.16l-.47-.47v.16c0,.16,0,.16.16.31l-.32-.31c.16.16.16,0,.16-.16a3.3,3.3,0,0,0-.94-.63c0,.32,0,.48.16.48h-.16c-1.73-1.26-3.46-2.52-4.87-3.77a1.17,1.17,0,0,1-.94-.79L198,675c-.16,0-.16,0-.16-.16-.16.16-.78-.31-1.89-1.41s-3-2.52-5.18-4.4h.32c0-.16-.16-.31-.32-.47-.15.16-.31.31-.47.16s-.31-.16-.47-.63h-.15a.3.3,0,0,0-.48,0,2.45,2.45,0,0,1-.94.47c.31.16.63.47,1.1.78a4.33,4.33,0,0,0,.94.79c-.16,0-.31-.16-.16-.32a14.74,14.74,0,0,0,1.57,1.42c.16.16.48.31.63.63,0,.15.16.31.47.31v-.16a1.61,1.61,0,0,0,.63.79,41.59,41.59,0,0,0,3.77,3.45,4.39,4.39,0,0,0,1.73,1.26c0,.16,0,.31.16.31a37.2,37.2,0,0,0,4.08,3,17.72,17.72,0,0,0,2.82,1.73c0,.15,0,.31-.15.31,0,.16,0,.16.15,0l1.89.94v.32l.31-.16c-.15.16-.15.16.16.16a.29.29,0,0,0,0,.47l.16-.32a6.58,6.58,0,0,0,1.1.47,24.13,24.13,0,0,1,2,1.57c.15-.15.31,0,.47.16a.56.56,0,0,0,.16.47l.15-.15a36.27,36.27,0,0,0,4.56,3.92h.16a4.45,4.45,0,0,1-1.26-1.26H216c-.15-.15-.31-.15-.62-.31a43.06,43.06,0,0,0-5.19-4.4,9.84,9.84,0,0,0,2.52,1.57c-.32-.15-.63-.47-1.1-.78,1.1.78,2,1.57,3,2.35l.16-.15a.68.68,0,0,0,0,.78h.79a3.45,3.45,0,0,1,.94,1.26l.15-.16c-.15.16-.15.16,0,.32a.51.51,0,0,1,.32.15h.16c0,.16,0,.16.15.16h-.15c0,.16.15.16.31.16-.16,0-.16.15,0,.31.16,0,.31-.16.63-.31-2-1.73-4.08-3.61-5.81-5.34l.31.31v-.16a8.22,8.22,0,0,1,2.67,1.89V687c-.16,0-.16,0-.16-.15.16.15.16,0,.16-.16a10.93,10.93,0,0,1-2-1.73,12.61,12.61,0,0,0,2.36,1.89l.31-.16c-.16,0-.31,0-.31-.16.15.16.31.16.46.32v-.16a2.29,2.29,0,0,0,.48.63,2.16,2.16,0,0,0-.94-1.1c2.51,2.35,5.18,4.55,8,6.91a1.74,1.74,0,0,0,1.1.47,2.43,2.43,0,0,1-.47.94c0,.16,0,.16.16.16-.16,0-.31,0-.31.15.94,1.73,1.88,3.3,2.82,5a2.55,2.55,0,0,0,.47,1.41,6.1,6.1,0,0,1-2.67,3.3,7,7,0,0,1-2.83,1.1,2.64,2.64,0,0,0-1.72.94,3.19,3.19,0,0,1-2-1.1,9.66,9.66,0,0,1-1.89-1.41A8,8,0,0,1,208.8,700a26.68,26.68,0,0,1-6.91-5.66,25.51,25.51,0,0,1-2.19-2c.15.32.31.47.46.47l.32-.15a.34.34,0,0,1-.32-.32c0,.32.16.47.32.32h.16a3.51,3.51,0,0,1-.79-.79c-.15.16-.15.16-.15,0l-.32-.31v0c-.16,0-.31,0-.16-.16l-.47-.47v.15c0,.16,0,.16.16.16-.47,0-.47-.16-.47-.47,0,.16,0,.31.31.31l.16-.15c-.16-.16-.47-.16-.63-.32l.16-.15a.29.29,0,0,0-.47,0c-.16,0-.16-.16-.16-.32h-.16c-.15-.15-.15-.15-.31-.15h.16a2.59,2.59,0,0,1-1.1-.63v-.16c-.16.31,0,.31.47.16-.16,0-.16-.16-.16-.32h.47l-.47-.47c0,.16,0,.16.16.16l.16-.16a6.72,6.72,0,0,1-1.11-.47v-.16a1.18,1.18,0,0,1-.78-.31c.16.16.16,0,.32-.16-.16-.15-.16-.31-.32-.47-.16.32-.16.32-.31.16H195c0-.16-.15-.31-.47-.47h-.31V687c-.16-.15-.31-.15-.47-.31l-.32-.32a16.1,16.1,0,0,0-1.57-.78l.16-.16a.58.58,0,0,1-.63-.63c-.15-.15-.31-.15-.63-.31-.15-.16-.31-.16-.47-.31v-.32h.16c-.16-.16-.32-.16-.32-.31-.15.15-.15.31,0,.31a2.21,2.21,0,0,1-.62-.47c-.16.16-.16.16-.16,0a2.14,2.14,0,0,0-.63-.47c0,.16.16.16.32.16a2.38,2.38,0,0,1-1.26-.95c0,.16,0,.16.16.16l.15-.16a1.21,1.21,0,0,0-.78-.31,12.73,12.73,0,0,0,3,2.83h-.16a17.78,17.78,0,0,0,2.83,1.72,3.4,3.4,0,0,0,.63.79,5.46,5.46,0,0,1,1.41.63h-.78v-.16h-.31c0,.16,0,.31-.16.16v-.32c-.16.16-.16.16.16,0-.16-.15-.16-.15-.32-.15l-.16.15c-.15,0-.15,0-.15-.15-.16.15-.16.15-.16.31a.46.46,0,0,1,.16-.31c-.16,0-.32,0-.32-.16v.16a12.31,12.31,0,0,1-3.92-3h-.32c-.47-.47-.78-.94-1.25-1.41v.16c-.16.15-.32,0-.16-.32a.93.93,0,0,1-.79-.31,1.17,1.17,0,0,0-.31-.63c-.16.16-.16.16-.32.16a.34.34,0,0,0,.32.31c.47.47.94.79,1.41,1.26a15.1,15.1,0,0,1-2.35-1.89c.31.16.47,0,.31-.15.16.15.16.31.31.31.16-.16,0-.31-.31-.47h-.15c0-.16-.16-.32-.16-.47-.16.15-.16.15,0,.15v0c-.32,0-.47,0-.32.16a3.58,3.58,0,0,1-1.09-1.1l.15-.15a.81.81,0,0,0,.31.62c.16,0,.16,0,.32-.15a2.41,2.41,0,0,1-.63-1,.29.29,0,0,1-.47,0c-.47-.15-.79-.31-.79-.78,0,.16,0,.16.16.16v-.16a1.61,1.61,0,0,0,.79.63,3.1,3.1,0,0,1-.47-.79h-.32a1,1,0,0,0-.16-.63c-.31.16-.47,0-.47-.31v.16c-.15,0-.15,0-.31-.16-.16.16,0,.31.16.31-.16-.15-.32-.15-.48-.31l.16-.16a.15.15,0,0,1-.16-.15c-.15,0-.15,0-.15.15a1.24,1.24,0,0,0-.63-.15,2,2,0,0,0,.94-.16,2.24,2.24,0,0,0-1.41-.16.47.47,0,0,0,.16-.63c-.16,0-.16,0-.16-.15a.56.56,0,0,0-.16.47,2.56,2.56,0,0,1-.47-1v.16a.59.59,0,0,1-.15-.47h-.16c-.16,0-.16,0-.16-.16l.16-.15h-.63v-.16l.16.16c.31-.16.47-.32.31-.47a2.07,2.07,0,0,0-.79-.16c.16.16.16.16.16.31a1.6,1.6,0,0,1-.94-.78,12.11,12.11,0,0,1-3.14.94,2.14,2.14,0,0,1,.63-.47v-.31c-2,.31-3.77.62-5.66.94a4.69,4.69,0,0,0-1.57.62c-1.88.48-3.45.79-5.18,1.26a30.12,30.12,0,0,0-5.65,1.42,54.8,54.8,0,0,0-7.23,1.72,3.28,3.28,0,0,0-.78,1.89,23.76,23.76,0,0,0-1.73,8.16,4.1,4.1,0,0,0-1.1,1.73c-.31.79-.63,1.26-1.1,1.41-.15.79-.47,1.42-1.1,1.57h-.47a2.65,2.65,0,0,1-.47-.94,9.87,9.87,0,0,1-.94-5c-.16-2.36-.31-4.71-.47-6.91a6.85,6.85,0,0,1-.47-1.42,18.78,18.78,0,0,1-1.1-3.61,2.17,2.17,0,0,1-1.73-.15,14.1,14.1,0,0,0,1.41-.63,2.3,2.3,0,0,0-1.57-.48.94.94,0,0,1-.94-.47,5.08,5.08,0,0,1-3.77-.47v-.15c-.47.15-.62.15-.78,0a9.32,9.32,0,0,1-1.89-.63c-.15.16-.31,0-.47-.16a17.64,17.64,0,0,1-8-1.41.59.59,0,0,0,.48.16,22.48,22.48,0,0,0-3-1.89h.16a11.44,11.44,0,0,0-1.26-.47c-.15.63-.31,1.41-.47,2.2a5,5,0,0,0-.94,2.67,17.92,17.92,0,0,0-1.42,5.34,36.86,36.86,0,0,0,.32,9.26c.16.94.47,1.89.63,3a5.42,5.42,0,0,0,.16,2.82,19.87,19.87,0,0,0,1.57,3.77c.46,1.41.94,2.67,1.25,3.77a6.49,6.49,0,0,1,.94,3.61,3.16,3.16,0,0,1,0,1.73c0,.63-.15.94-.62,1.1-.16.16-.32.16-.63,0a5.89,5.89,0,0,1-1.42-.63,15.84,15.84,0,0,1-4.71-4.4,3.85,3.85,0,0,1-1.88-3.61,1.26,1.26,0,0,1-.47-1.73c.47-.31.47-.78.31-1.41a5.32,5.32,0,0,1-.47-3.14c-.16-.47-.16-.94-.31-1.41a48.85,48.85,0,0,1,.47-9.58c-.16,0-.16,0-.16-.16a77.74,77.74,0,0,0,1.73-14.92,7.76,7.76,0,0,0-.32-3.3,41,41,0,0,0-3.76,1.89,15.25,15.25,0,0,1-2.83,1.88c-.32.16-.47.32-.32.47.16.47.63.63,1.26.32v.15a22.2,22.2,0,0,1-5.81,1.89h-.31c.47-.31,1.09-.79,1.88-1.26,0,.16,0,.16.16.16l.47-.47a5.16,5.16,0,0,0-2.36.63l-2.82.94c-1.1.94-2,1.73-3,2.51a4.53,4.53,0,0,0-1.25,1.1,10.43,10.43,0,0,1-4.4,1.73,8.48,8.48,0,0,1-2.67-1.1c-.47,0-.63-.16-.79-.63a7.22,7.22,0,0,1-4.08-.16,5.88,5.88,0,0,0-3.61.79c-.31.16-.47,0-.63-.16A27.22,27.22,0,0,1,83,668c5.65-4.87,11.3-9.89,17.11-14.92,2.2-1.72,4.56-3.45,6.92-5.34a3.42,3.42,0,0,1-1.73-.78,4.24,4.24,0,0,1-2.51-1.26,3.36,3.36,0,0,1-3.3-1.73,2.76,2.76,0,0,1-.16-2.51c.16,0,.31-.15.47-.63a4.56,4.56,0,0,0,1.57-1.1,24.36,24.36,0,0,1-3.93-4.86,11.11,11.11,0,0,1-1.72-3.3A7.86,7.86,0,0,1,91.18,633a4,4,0,0,1-1.72.47c-.48.16-.79.16-.95.32-1.57.62-3.29,1.25-4.86,1.88-1,.16-1.89.16-2.67.32a11.83,11.83,0,0,1-2-2.52,3.52,3.52,0,0,1-.31-2.51,8.09,8.09,0,0,0,1.73-1.57,2.65,2.65,0,0,1,1.1-1.26,8.46,8.46,0,0,1,1.1-1.41,2,2,0,0,0,1.41-1.1,1.43,1.43,0,0,0,.94-.94,1.17,1.17,0,0,0,.79-.16,1.52,1.52,0,0,1,1.25-1.1,9.19,9.19,0,0,1,1.57-.63c.79-.31,1.57-.62,2.52-.94,2-.94,3.92-1.88,6.12-2.82v-.48a2.09,2.09,0,0,0,2.2-1.25c.16-.16.47-.32.78-.63-.15,0-.15,0-.15-.16h.31c.32-.31.94-.78,1.41-1.25a2.91,2.91,0,0,1,1,.15,1.49,1.49,0,0,0,1.25,1.26,4.42,4.42,0,0,0,3.15-2.36,21.61,21.61,0,0,0,1.41-6.43V607c-1.1.16-1.89.32-2.67.47a34.45,34.45,0,0,1-7.85.94,10.07,10.07,0,0,1-4.4-1.88c-.16-.47-.63-.78-1.1-1.26a19.38,19.38,0,0,1,3.77-5.81,2.55,2.55,0,0,1,.94-.63,32.16,32.16,0,0,1,5.66-5.65c2-3.14,4.24-6.44,6.59-9.58a15.35,15.35,0,0,0,.31-6c.47-4.24,1-8.17,1.42-12.25.47-3,.94-5.81,1.57-8.64a5.19,5.19,0,0,1,3.45-3.93,1.82,1.82,0,0,1,.79-.47l7.06-4.71c.16.32.32.32.63.16.16-.63.63-.79,1.42-.63,0,.16,0,.16.15.16ZM104.84,654.47a68.24,68.24,0,0,0-9.1,7.22,6.27,6.27,0,0,0-1.57,1.88,9.72,9.72,0,0,0-1.73,1.89c0,.15,0,.15.16.15l-.47.48a55.29,55.29,0,0,1,9.1-2.52,16.77,16.77,0,0,1,3-1.09,12.29,12.29,0,0,1,2.67-.63,1.13,1.13,0,0,0,.62-.32h.16a10.71,10.71,0,0,0,2.2-.63c.63-.15,1.26-.15,1.73-.31a7.52,7.52,0,0,1,0-3.77,9.76,9.76,0,0,1-.63-5.65A20.81,20.81,0,0,0,104.84,654.47Zm19.79-34.87a46.36,46.36,0,0,0-8,2c-.31.15-.63.15-.94.31a9.26,9.26,0,0,0-2.51,1.1l-1.42.47-.15.16c-.94.47-1.89.94-2.67,1.25a52.17,52.17,0,0,0,2,6,1.06,1.06,0,0,0,.47,1.26A82.84,82.84,0,0,0,124.63,619.6Zm9.11,36.75a14,14,0,0,0-4.87,2.36,45,45,0,0,0-6.91,2.82,19.75,19.75,0,0,0-1.57,2.67,14.86,14.86,0,0,1-1.57,4.71,9.55,9.55,0,0,1,4.09.47l-.16.16a1.27,1.27,0,0,0,1.1,0,2,2,0,0,0,1.88.63v.16a12.31,12.31,0,0,0,4.24,1.1,1.6,1.6,0,0,1,1.41.31c.16.16.32.16.63,0v-.31a1.4,1.4,0,0,1,1.73-.79,37.19,37.19,0,0,1,7.22-.31c.16-4.09.16-8,0-12.25a6.16,6.16,0,0,0-2.35-.47,1.48,1.48,0,0,1-1.89-.47c-.47.15-.62,0-.78-.32C135.15,656.67,134.37,656.51,133.74,656.35Zm6.75-29.52a4,4,0,0,1-.94.78,6.61,6.61,0,0,1-4.08,1.89.71.71,0,0,1-.79.15,19.68,19.68,0,0,1-2.35.79,1.62,1.62,0,0,0-1.42.31,5.2,5.2,0,0,0-2.51,1.73,1.45,1.45,0,0,0,.63.94,15.76,15.76,0,0,1,3.45,3.77c-.15.79.32,1.1,1,1.57a5.56,5.56,0,0,0,1.25,1.89c-.31.78-.15,1.1.47,1.25a8.6,8.6,0,0,0-.62,1.1c0,.16,0,.16.15.32l-.15.15v.32a3.25,3.25,0,0,0-.95,1.25,13.29,13.29,0,0,1-1.25,1c-.79.15-1.57.31-2.2.47a21.52,21.52,0,0,1-3.93,1.1c-.15,1.25-.15,2.51-.31,3.61a7.73,7.73,0,0,0-1,2c-.78,1.41-1.41,2.67-2,3.93l1.88-.47c2.36-.95,4.87-1.89,7.54-3a3.18,3.18,0,0,0,.63-1.26,8.57,8.57,0,0,1,3.14-3.14.57.57,0,0,0,.78-.31c1.57.78,3,1.73,4.4,2.51,0-3.45.15-7.06.47-11-.16,0-.16,0-.16-.16l-.16.16a6.61,6.61,0,0,1-1.72-2.51,6.17,6.17,0,0,1,.15-1.57c0,.15,0,.15.16.15.16-.47.47-.47.94-.31,0-.16,0-.16.16-.31-.16,0-.16,0-.16-.16l.47-.47.32.31c-.16-.31,0-.63.16-1.1a21.48,21.48,0,0,1,.31-2.82,34.37,34.37,0,0,1,.63-6.91C142.06,625.41,141.28,626.2,140.49,626.83Zm32.19,43.81a16.68,16.68,0,0,0-2.82.16c-.47.47-.79.63-1.1.47a20.09,20.09,0,0,0-2,.47v-.16a28.37,28.37,0,0,0-3.3,1.1c-1.1.32-2,.63-2.83.79a16.4,16.4,0,0,0-3,1.1,15.53,15.53,0,0,1-2.36,1.09c-.47,0-.62.16-.62.32a6,6,0,0,0-2.67.94h.15c0,.32-.15.32-.47.32a69.59,69.59,0,0,0,7.85-1.42,1.94,1.94,0,0,1,1.26-.78,27.28,27.28,0,0,0,5.65-2c1.1-.32,2.36-.79,3.61-1.26a3.49,3.49,0,0,0,3-.94c-.16,0-.16,0,0-.16ZM155.88,657a1.16,1.16,0,0,0-.16.63,19.84,19.84,0,0,1-.15,3,6.19,6.19,0,0,0-.63,2.83,4.29,4.29,0,0,0-.31,3.14,1.16,1.16,0,0,0,.62-.32,32,32,0,0,0,5-3h-.16c.16-.16.47-.31.63-.47h.16c.47-.47.94-.79,1.41-1.26h-.16c.16-.15.32-.31.47-.47-.15.16-.31,0-.15-.16v-.15c-.16,0-.16,0-.16-.16h.31c-.15,0-.15,0-.15-.16a9.18,9.18,0,0,1-1.26-.47c.16.16.16.16.31.16-.47.16-.62,0-.62-.16-.16-.16-.16-.16,0-.31h-.32v.15a9,9,0,0,1-1.25-.47v-.15c-.16.15-.16.15-.16,0-.16,0-.31,0-.16-.16C157.92,658.39,156.82,657.61,155.88,657Zm20.73-25.44a14.32,14.32,0,0,1-2.51,1.73,3.4,3.4,0,0,0-1.89.78,1.18,1.18,0,0,1,.16-.63,7.15,7.15,0,0,0-.94,1.1c-.16-.16-.16-.47.31-.78a3.57,3.57,0,0,1-1.57.47c-.63.31-1.1.47-1.41.63.31-.32.78-.63,1.25-1.1a21.28,21.28,0,0,1-3.76,1.88,17.17,17.17,0,0,1-4.4,3.14c-.47.79-.94,1.42-1.26,2a6,6,0,0,0,2.36,3.14.73.73,0,0,0,.47.79,17.18,17.18,0,0,1,1.57,1.88c-.16.48,0,.63.47.79-.16.16-.47,0-.63-.16H165c0,.32,0,.47-.16.63.16.16.32.31.47.31-.15.48,0,.63.32.79a1.42,1.42,0,0,0,.63,1.26h.31v.15l.63.63v-.16l.16.16h.47l.47.47a1.43,1.43,0,0,1,.94.94v-.15c.16.47.63.63,1.26.63a4.42,4.42,0,0,1-1-.79,2.49,2.49,0,0,1,1.1.63c-.15,0-.15,0-.15-.16.15,0,.15-.16.31-.47a1.12,1.12,0,0,1-.63-.78,3,3,0,0,1-1.88-1.1,3.7,3.7,0,0,0,.78.47c-.15-.16-.31-.16-.31-.32-.16-.15-.16-.15,0-.31a9.87,9.87,0,0,1,1.88,1.41c.32.32.47.32.63,0-.16,0-.16,0-.16-.15h.32c.94-1.58,2-3.46,3.14-5.5,1.57-3.46,3-7.22,4.24-10.84C178.18,633.89,177.4,632.64,176.61,631.54ZM167.35,649a.56.56,0,0,0,.47.16h-.32c.16.15.32.15.47.31-.15,0-.15,0-.15-.16-.16.16-.16.16,0,.16.15.16.31.47.47.63-.32-.16-.63-.47-.94-.63l.47-.16c-.32-.15-.47-.15-.63-.31l-.16.16c0,.15,0,.15.16.15-.16-.15-.32-.31-.47-.47h.15l-.47-.47h-.15c0,.16,0,.32.15.32-.15-.16-.31-.16-.31-.32l.16-.16a1.09,1.09,0,0,1-.79-.62,8,8,0,0,1,1.41,1.1C166.87,648.81,167,649,167.35,649Zm.47,2a3.2,3.2,0,0,0,1.41.47c-.16-.15-.16-.15-.31-.31.15.31.47.47.62.63l-.31-.32c-.16.16-.16.16-.16.32a27.71,27.71,0,0,1-3.45-2.83v-.16c.78.47,1.41,1.1,2.2,1.57C167.66,650.54,167.66,650.7,167.82,651ZM181,672.68h-.16c0,.16,0,.16.16.16-.16.16-.16.16-.32.16-.15-.16-.15-.16-.31-.16a9,9,0,0,0,1.41,1.1c-.16.16,0,.31.16.31l-.16.16.47.47c-.31.31-.47.31-.63-.16l-.15.16c-.16,0-.16,0-.16-.16l.16-.15c-.32-.16-.63-.16-.79-.32v-.15c-.15-.16-.15-.16-.15-.32a.3.3,0,0,1,0,.47c-.16-.15-.16-.15-.16-.31-.16,0-.16,0,0-.16-.16-.16-.32-.31-.32-.47v-.16c0,.16.16.16.32.16v-.16c.16.16.16.16.31.16-.15-.16-.31-.16-.47-.31-.16.15-.31.47-.16.62-.15-.15-.31-.15-.31-.31h.16v-.16h-.16v.16h-.31a2.38,2.38,0,0,0,1.25.94c0,.16,0,.16.16.16h-.16a3.52,3.52,0,0,0,1.1.78c.16.16.32,0,.47-.15.16.47.32.62.63.62s.32-.15.47-.47a2,2,0,0,0,.79,1.1l.31.32v.31a.33.33,0,0,1-.31-.31l-.16.16a1.29,1.29,0,0,1-.63-.63,2.77,2.77,0,0,0,.94.94c-.15,0-.15,0-.15-.16a1.17,1.17,0,0,0,.78.32,3.59,3.59,0,0,0,.63.94h.16a2.43,2.43,0,0,0,1.25.94c.16.16.16.31.32.47A3,3,0,0,0,188.7,681a.33.33,0,0,1-.31-.31,1.2,1.2,0,0,1,.63.16c-.48-.16-.63-.47-.79-.94l-.16.15a.62.62,0,0,1-.15-.78v.15h-.16a3.62,3.62,0,0,1-.79-.62c-.31,0-.47,0-.47-.16a.46.46,0,0,1,.16-.31c0,.15.16.15.47.15v-.15c.16.15.16.15.32.15h.15c-.15,0-.15,0-.31-.15s-.16-.16,0-.32c.16.16.16.32.31.32,0,.15,0,.15.16,0a3.3,3.3,0,0,1,.63.94l-.47-.47a1.54,1.54,0,0,0,1.1,1.1v-.32c.31.47.63.79.78,1.1-.15.16-.31,0-.47-.16v.16h.16l.47.47c-.16.16-.31.16-.16.32a.46.46,0,0,0-.31-.16.58.58,0,0,1-.16-.47.46.46,0,0,0-.16.31c-.15-.16-.15-.16,0-.31L189,681c0,.16.15.16.31.32a.57.57,0,0,0,.16.47c-.16,0-.16-.16-.16-.31v-.16l.32.31a2.24,2.24,0,0,1,.94.32.87.87,0,0,1-.94-.16l.62.63h.16a.8.8,0,0,0,.63.31,1.43,1.43,0,0,1-.95-.63c.16.16.32.16.63.16v.16c0,.16.16.16.48.31l-.16.16a11.72,11.72,0,0,0,1.41,1.41c-.16.16-.16.16-.31.16s-.16,0-.16-.16l-.16.16v-.31c0,.15,0,.31-.16.31-.15-.31-.15-.63-.31-.63a1.24,1.24,0,0,1-.31-.63.64.64,0,0,0-.79.16l-.62-.63a1.44,1.44,0,0,0-1-.94l-.16.16c-.15-.16-.31-.32-.31-.47-.16.15-.31.15-.31-.16a.59.59,0,0,1,.15.47c-.15,0-.15,0,0-.16l1.42,1.42c-.16,0-.16,0-.16-.16h.16c.16,0,.16,0,.31.16H190a1.6,1.6,0,0,0,.78.94h-.15a.16.16,0,0,1-.16-.16.56.56,0,0,0,.31.16c0-.16.16-.16.32-.32.16,0,.16,0,.16.16-.16.32,0,.63.46.79a2,2,0,0,0,1.1.78c-.31.16-.47.16-.62,0a.9.9,0,0,0,.78.32c0-.16.16-.16.32-.16.15.16.31.47.15.63.16.15.16.15.32.15-.16-.15-.32-.15-.32-.31a.92.92,0,0,1,.63.16v.15a6.34,6.34,0,0,0,1.73.95.33.33,0,0,1-.31-.32.55.55,0,0,1,.46.16c.16.16.32.31.16.47h.16a2.78,2.78,0,0,1,1.1.79,1.24,1.24,0,0,0,.31.78c-.15.16-.31.16-.47-.16a3.81,3.81,0,0,0,.47.79c-.15.16-.31,0-.47-.32l.47.48v-.16h.47a12.42,12.42,0,0,0,2.36,1.57,1.61,1.61,0,0,1-.94-.79l-.16.16a.48.48,0,0,1-.16-.31c-.15,0-.31,0-.31-.16-.16-.16,0-.16.16-.16a.63.63,0,0,1-.79-.15c-.16-.16,0-.32.16-.48a3.09,3.09,0,0,0,.78.63c-.15,0-.15,0-.15-.15s0-.16.15-.32l.48.47v.32c-.16-.16-.16-.16-.32-.16a6.61,6.61,0,0,1,1.41.78c-.47-.15-.94-.31-1.09-.62v-.16a5.48,5.48,0,0,1,1.88,1.26,1,1,0,0,0,.94.47c-.31-.16-.47-.16-.63-.32s0-.15.16-.31c-.16,0-.16,0-.32-.16v.16l-.46-.47-.16.15c-.16,0-.16,0-.16-.15a.39.39,0,0,1,.63.15,2.1,2.1,0,0,1-.63-.47c-.16-.15-.16-.15,0-.31-.63,0-1.1-.16-1.25-.63-.48-.16-.95-.31-1.11-.78,0,.15.16.15.32.31a.65.65,0,0,1-.94-.47.58.58,0,0,1,.47.16c0-.16,0-.16.15-.32.32.16.63.47.95.63-.16,0-.16,0,0-.16.16.16.47.32.62.47.79.63,1.73,1.1,2.68,1.73a6.84,6.84,0,0,1-1.11-.63c0-.15,0-.15.16-.15s.16.15.32.15v-.15h.31a1.59,1.59,0,0,1,1.1.62,7.78,7.78,0,0,0-1.1-.78c-.31-.31-.47-.47-.31-.63a5.4,5.4,0,0,0,1.25.79c-.62-.47-1.25-1.1-1.88-1.57a12.46,12.46,0,0,1-2.36-1.57c-.47-.47-.63-.63-.47-.79h-.31a19.58,19.58,0,0,1-3.46-1.88c-.78-.63-1.09-.79-.94-1a3.5,3.5,0,0,1-1.57-1.09v.15a1,1,0,0,1-.63-.78h-.16a5.62,5.62,0,0,1-1.25-.79h.16a.65.65,0,0,1-.94-.47h.46a1.57,1.57,0,0,1-.78-.63c-1.1-1.1-2-2-2.83-3h-.15a10.75,10.75,0,0,1-2.67-2.67h.16c.15.16.31.16.46.31v-.15a2.12,2.12,0,0,0,.95,1.09c0,.16,0,0,.16-.47-.16.32-.16.32-.16.16a.33.33,0,0,1,0-.63l.47.47c-.16-.15-.47-.47-.47-.62v.15a.29.29,0,0,0,0,.47,1.62,1.62,0,0,1-.95-.78h.16l-.47-.47c-.15.31-.31.31-.78,0-.16,0-.32,0-.32-.16,0,.16.16.32.32.47A10.67,10.67,0,0,1,181,672.68Zm0,.32a5,5,0,0,0,1.72,1.41l-.15.16a.74.74,0,0,1-.79-.47.56.56,0,0,1,.16.47c.16.47.47.62.94.78h.32v-.16c-.16,0-.32,0-.32-.15a10.73,10.73,0,0,0,1.57,1.25h.16a3.43,3.43,0,0,0,1.88,2.36c-.15-.16-.15-.31-.31-.47.16.16.16.31.31.16-.15,0-.15,0-.15-.16v-.32a.33.33,0,0,0,.31.32V678c0,.16.16.16.31.32-.31-.16-.47-.32-.31-.63,0,.15.16.15.47.31-.31-.16-.47-.31-.47-.47a16.41,16.41,0,0,1-2.36-2.36,2.49,2.49,0,0,1-.94-1.25,1.19,1.19,0,0,1,.32.63c-.16-.16-.32-.16-.47-.32a23.51,23.51,0,0,0,3.45,3.46v.15c-.16-.15-.31-.15-.47-.31a4.3,4.3,0,0,1-1.26-1.1c-.47-.47-.78-.94-1.25-1.41l-.16.15V675l-1.89-1.89A1,1,0,0,1,181,673Zm.47-.47a4.1,4.1,0,0,0,1.25,1.09,2.25,2.25,0,0,1-.47-.62h.16c.16.15.16.15.31.15,0,.16,0,.32-.15.16.15.16.15.16.31.16-.16,0-.16,0,0-.16a3.42,3.42,0,0,1,.79.47l-1-.47v-.16c-.31-.15-.62-.47-.94-.62l.32.31A.82.82,0,0,1,181.48,672.53Zm.94,2.82c-.31.47-.31.79.16.94-.47,0-.63-.15-.79-.63l.47.48c-.15.15-.15.31-.31.15v.16c0,.16,0,.16.16,0-.16-.16,0-.16.15-.31,0,.15,0,.15.16.15-.16.16-.31.16-.16.16,0,.16,0,.16.16,0,0,.16,0,.16.16.16-.16-.16-.16-.32.31-.47,0,.15.16.15.32.15v.32c-.16,0-.32,0-.32-.16l.47.47c.48.32.79.63,1.26.94l-.32-.31v-.16c0,.16,0,.16.16.16l-.31-.31h.15a12.93,12.93,0,0,1-1.57-1.26c-.15.16-.15.16-.15.31A.86.86,0,0,1,182.42,675.35Zm2.51,3.77v.31h.32a2.37,2.37,0,0,0,1.1,1.57c-.16,0-.16,0-.16-.15,0,.15.16.15.31.15.16.16.16.16,0,.16a1.12,1.12,0,0,0,.79.63c-.16,0-.16,0-.16-.16a3.72,3.72,0,0,0-1.1-1.1h.16c-.16,0-.16,0-.16-.15a.74.74,0,0,1-.78-.79c0-.16,0,0,.16.32A3.63,3.63,0,0,1,184.93,679.12Zm1.26.31c-.16.32-.32.48-.16.63a.29.29,0,0,0,.47,0c.16.16.32.47.47.63v-.16c.16.32.32.47.48.32v-.16a.59.59,0,0,1,.15.47V681h.32l-.32-.31a.46.46,0,0,0-.31-.16c-.16,0-.16,0,0-.15-.47-.16-.63-.16-.63-.32-.16,0-.16,0,0-.15l-.16.15C186.35,680.06,186.19,679.91,186.19,679.43Zm.78-6.75a.83.83,0,0,0,.63.32v.31c-.15.16-.31,0-.15-.16-.16.32,0,.47.15.47a.56.56,0,0,1-.47.16.7.7,0,0,1-.94-.31c0,.15,0,.15.16.15l.31.32H187c.16.16.16.16.16.31a1.82,1.82,0,0,1,.79.47c0,.16,0,.32.15.16,0,.16,0,.16.16.16a7.75,7.75,0,0,1-1.1-.94c0-.16.16-.32.47-.48,0,.32,0,.48-.15.63,0-.15,0-.31.15-.31.16.16.16.16.32,0-.16-.16-.32-.16-.32-.32l.16-.15c0,.15,0,.15.16.31,0-.16.15-.16.31-.16-.16-.15-.16-.15-.16-.31l.16-.16A1.78,1.78,0,0,1,187,672.68Zm.79-3.61c.16.16.47.31.63.47a.58.58,0,0,1-.79-.31c.16.15.32.15.47.31h-.94a4.3,4.3,0,0,0,1.26,1.1h-.16a1.62,1.62,0,0,1-.78-.47c-.16-.16-.32-.16-.16-.32a1.17,1.17,0,0,1-.63-.31l-.16.16c-.15.15-.31.15-.15,0a7.15,7.15,0,0,1,1.1.94h0c.15,0,.31.16.62.31l-.15.32c0,.16.15.16.31.16v-.16c.31.16.63.47,1.1.78l.32.16c.78.79,1.57,1.41,2.19,2v-.47a1.61,1.61,0,0,0,.94.79v.15a3.2,3.2,0,0,1-.78-.47,1.44,1.44,0,0,0,.94.63c.16-.16.16,0,.32.16l-.16.15a4.57,4.57,0,0,0,2.2,2v-.16c0,.16.16.16.31.16v-.16a7.53,7.53,0,0,0,1.1.47,6.8,6.8,0,0,0,1.26,1.1c.15.16.31.31.47.16a9.41,9.41,0,0,0,1.26,1.41,3.4,3.4,0,0,1-.48-.79,3.31,3.31,0,0,1-.78-.62,3.75,3.75,0,0,1-1.57-1.57h-.16a16.82,16.82,0,0,1-3.3-2.67v-.32a7.59,7.59,0,0,1-2-1.72,25.28,25.28,0,0,1-2-1.89h-.16a.46.46,0,0,1,.16-.31h.16c.16,0,.16,0,.16.15v.16h0a.8.8,0,0,1,.78.63.8.8,0,0,0,.63.31v-.15a3.85,3.85,0,0,0,.62.78l-.46-.47h.15c.16.16.47.47.47.63v.16c0,.15,0,.15.16.15-.16,0-.16,0-.16-.15a.83.83,0,0,1,.63.47h.31a1.23,1.23,0,0,0,.63.62h-.15c-.16.16-.32,0-.16-.15l.47.47c-.16,0-.16,0-.16-.16a.42.42,0,0,1,.48.47l-.16.16c0,.16,0,.16.16.16v-.16c0,.16.15.16.31.16.47.15.63.31.63.62-.16-.15-.16-.15.15-.15a1.47,1.47,0,0,0,.63.94c-.15.16-.31,0-.31-.16.16.16.31.47.47.63h.15a17.29,17.29,0,0,0,2.67,2c-.15,0-.15,0-.31-.15a1.21,1.21,0,0,1,.79.31v.16c-.16,0-.16,0-.32-.16a1.61,1.61,0,0,0,.79.63,2.08,2.08,0,0,0,1.1.94c.15.16.15,0,.31-.16,0,.16,0,.16.16.32v.15c-.16,0-.16,0-.16-.15l.32.31h.15c0,.16,0,.16.16.31a1.21,1.21,0,0,0,1.26.32l-.16.16c0,.15,0,.15.16.15h-.16c0-.15,0-.15.16-.31l.31.31h0c.16.16.16.16.31.16a.47.47,0,0,1,0,.63.34.34,0,0,1-.31-.32,17.88,17.88,0,0,1-3.3-1.88,1.2,1.2,0,0,0,.94.78c-.15.32-.15.48-.31.32a6.55,6.55,0,0,1-2.36-1.73,15.07,15.07,0,0,0,3.15,2.36c-.48-.16-.63-.32-.48-.63.16.16.48.31.63.47v-.47c-.47.16-.63,0-.78-.47.78.47,1.72,1.1,2.67,1.57a.29.29,0,0,1-.47,0v.16a1.83,1.83,0,0,1-1.11-.32c0-.16,0-.16-.15-.31v.15c-.16,0-.16,0-.16-.15a3.69,3.69,0,0,0,1.42.94c-.16-.16,0-.16.15-.31,0,.15.16.15.32.31h.15c-.15-.16-.15-.16-.15-.31.15-.16.31,0,.47.15s.16.32,0,.32c-.32.47-.63.47-.79-.16a29.45,29.45,0,0,0,3.46,2.67v-.16a1.67,1.67,0,0,1-.79-.47c-.15-.16-.31-.31-.15-.47l1.41.94-.16.32a.58.58,0,0,1,.47.15h.16c.16.32.16.47.16.32a6.42,6.42,0,0,1,1.1.63v-.16c0,.31.15.47.47.31a27,27,0,0,0,3.45,2.83,13.88,13.88,0,0,1-1.57-1.41.3.3,0,0,1,0-.48c0,.16,0,.16.16.16l-.47-.47v.16h.15c0,.15,0,.15.16.31a3.74,3.74,0,0,1-1.41-.94c.16.16.47.16.78.31-.16-.15-.16-.15-.16-.31V687c0,.16,0,.16.16.16.16.31.16.31.32,0,0,.16.15.16.31.16a2.65,2.65,0,0,0,.63,1.1c-.16,0-.16-.16-.16-.32l.16-.16c.78.79,1.73,1.57,2.51,2.36-.78-.79-1.73-1.57-2.51-2.51v-.16a2.49,2.49,0,0,1-.94-.47c-.16-.31-.32-.47-.16-.63a3.4,3.4,0,0,0,.79.63h.15c0,.16,0,.16.16.31-.63-.47-1.1-.94-1.42-1.1-.46-.31-.62-.47-.46-.62a15.44,15.44,0,0,1,2.51,2c-.16,0-.16,0-.16-.16l.31.31h-.15c0-.15,0-.15.15-.31a3.4,3.4,0,0,1,.48.79l-.16.15c-.16,0-.16,0-.16-.15,0,.15,0,.15.16.15v-.15a4.32,4.32,0,0,0,.94.78,1.53,1.53,0,0,1-.78-.63v-.15a21.92,21.92,0,0,0,2.19,1.72c-.15,0-.15,0-.15-.15-.16,0-.32-.16-.47-.32a3.85,3.85,0,0,1-1.42-1.73l-.15.16a3.56,3.56,0,0,1-1.26-1.41,1.63,1.63,0,0,1-1.26-.79v-.15a3,3,0,0,1-1.41-.63v-.32c0,.16,0,.16.16.16-.47,0-.79,0-1-.16a.3.3,0,0,1,0-.47c-.47-.15-.78-.15-.94-.31h.16c-.31,0-.47,0-.47-.16-.16,0-.16,0,0-.16-.16,0-.16,0-.32-.15h.16l-.16.15h-.31c0-.15,0-.15.16-.31-.63-.16-1.1-.31-1.26-.78-.16,0-.31,0-.31-.16s-.32-.32-.48-.32a2.52,2.52,0,0,1-.94-.62c-.15.15-.31,0-.47-.32h.16l-.16.16c-.15.16-.31,0-.15-.16a2.76,2.76,0,0,1-.79-.31c.16.15.16,0,.16-.16q-.48.24-.48,0c-.15-.16-.15-.16,0-.31l-.15.15c-.16,0-.16,0-.16-.15v-.16h-.15c-.16.16-.32,0-.16-.16h.16a.61.61,0,0,0-.48-.15q-.22,0,0-.48c-.15.16-.47,0-.63-.15h.32a3.45,3.45,0,0,1-.78-.47l.46.47a1.84,1.84,0,0,1-1.09-.79h.15l-.31-.31a1,1,0,0,1-.94-.47c-.16-.16,0-.16.15-.32a.34.34,0,0,0,.32.32,1.19,1.19,0,0,0-.63-.32,1,1,0,0,1-.78-.78l-.16.16a1,1,0,0,1-.79-.95h-.31a.73.73,0,0,1-.47-.78h-.16a3.1,3.1,0,0,0-.79-.47,2,2,0,0,0-.94-1.1c-.15-.16-.47-.47-.63-.63a6.83,6.83,0,0,1-1.41-1.57,2.09,2.09,0,0,1-1.26-.94c-.15.15-.31,0-.46-.16a.42.42,0,0,1-.48-.47A5.46,5.46,0,0,0,187.76,669.07Zm-.31,8h.15v.31a13.28,13.28,0,0,0,2.2,2v.48a5.51,5.51,0,0,0,1.57,1.09,3,3,0,0,1-1.41-1.41c-.31-.31-.47-.47-.31-.63l-.16.16a2.41,2.41,0,0,1-1.26-1.26c-.31,0-.47-.15-.63-.47,0-.15.16-.15.32-.15A.56.56,0,0,1,187.45,677.08Zm2.35-12.25a4.34,4.34,0,0,0-2,1.1,4.49,4.49,0,0,0,1.41-.32H189c.15,0,.15,0,.31-.15a.86.86,0,0,0,.94-.63V665a1.48,1.48,0,0,0,.79-.47A2.92,2.92,0,0,0,189.8,664.83Zm-1.41,8.95c1.88,1.73,3.61,3.46,5.5,5a2.29,2.29,0,0,1-.48-.63c.16,0,.32.16.48.31a.46.46,0,0,0,.62,0,1,1,0,0,1-1.1-.63c0,.16,0,.16.16.16l-.16.16a1,1,0,0,1-.94-.79h.47c-.16,0-.16,0-.16-.15h.32c0,.15,0,.15.16,0h-.48c0,.15-.15.31-.31.15a6.53,6.53,0,0,1-2-1.73v-.31A10.16,10.16,0,0,1,188.39,673.78Zm2-1.88c-.16,0-.32,0-.16.15a3.4,3.4,0,0,0,.79.48c-.16.15-.16.15,0,.31h.31c-.15,0-.15-.16-.15-.31,0,.15,0,.15.15.31,0,.16,0,.16.16.16v-.16a1,1,0,0,1,.47.94c.16,0,.16,0,.16-.16.15.16.31.16.62.32h-.31c0,.16.16.31.47.47l.16-.16a25.58,25.58,0,0,0,2,2.2c-.16.16,0,.32.16.16a1.75,1.75,0,0,0,1.1.78c-.32-.15-.63-.15-.79-.47l-.15.16c-.16,0-.16,0-.16-.16l.16-.15c-.16,0-.16,0-.16-.16a.57.57,0,0,0-.16.47,1.68,1.68,0,0,1-1.1-.94c0,.15,0,.15.16.15l.15-.15c-.15-.16-.15-.16-.31-.16h-.15a3.4,3.4,0,0,1-.48-.79c-.15,0-.15,0,0-.15a9.94,9.94,0,0,1-1.25-1.26c-.16.16-.16.16-.16,0l-.16-.16c0,.16-.16.16-.31-.15a.56.56,0,0,0-.16-.47c-.15.15-.47,0-.63-.16l.32-.16a2,2,0,0,1-.63-.47c-.32-.16-.47-.16-.63-.31l.16-.16a3.32,3.32,0,0,0,.78.47C190.59,672.05,190.59,672.05,190.43,671.9Zm1.25,10.2c0,.16,0,.16.16.32v.16c.16.15.32.15.63.31l-1.41-.94a22.26,22.26,0,0,0,2,1.88h.16a7.07,7.07,0,0,0,1.72,1.26,1.78,1.78,0,0,1-1.25-.47h-.16a2,2,0,0,0,.78.78c-.46-.16-.78-.31-.94-.78,0-.16,0-.16.16-.32-.16-.15-.31-.15-.47-.31a1.19,1.19,0,0,1-.63-.32h.31a1.82,1.82,0,0,1-1.1-.31c-.15-.16-.15-.16-.15-.31.15.15.15,0,.15-.16-.15,0,0,0,.16-.16a1.92,1.92,0,0,1-.62-.47c-.16.16-.16.16-.16.32h.16c-.32,0-.48,0-.48-.16l.32-.16c-.32,0-.47,0-.47-.16l.15-.15c-.47-.16-.78-.32-.78-.79l.47.63A1.29,1.29,0,0,1,191.68,682.1Zm.16-4.55c0,.47.47.79.94.94h-.31c0,.16,0,.16.16.16s.15,0,.31-.16c.16.16.16.47.32.63h.15a.69.69,0,0,1,.16.79c-.16-.16-.16-.48-.31-.63v.63c-.16,0-.16-.16-.16-.32v.32c0,.15.16.31.31.15-.15,0-.15,0-.15-.15.15-.32.15-.48.31-.32,0,.16.16.16.32-.16v.16a.58.58,0,0,0,.15.47h.16c.15.16.15.16.15.32h.16c0,.15.16.15.47.31.16.16.16.31.32.31a2.28,2.28,0,0,0-.63-.62c-.16-.16-.32-.16-.16-.32l-.16.16A36.22,36.22,0,0,1,191.84,677.55Zm3.3,8.48c-.47-.16-.94-.47-1.41-.63a1.57,1.57,0,0,0,.78.63c-.16-.16-.47-.16-.62-.31-.16.15-.16.15-.32.15s-.16-.15-.31-.31a.47.47,0,0,0,.63.16.34.34,0,0,1-.32-.32h.16l-.32-.31v.31l-.31-.31c-.16-.16-.47-.16-.63-.32v-.15a.57.57,0,0,1-.47-.16h.78a1.42,1.42,0,0,1,.95.94C194.2,685.56,194.67,685.87,195.14,686Zm-2-11.62a3.55,3.55,0,0,1,.47.78c-.16.32-.16.47,0,.32,0-.16,0-.16.16-.32,0,.16.16.16.31.16a2.49,2.49,0,0,0,.47.94h-.16a2.29,2.29,0,0,0,.63.48c-.31-.16-.31-.32-.15-.48,0,.16,0,.16.15.16Zm1.88-1.1c-.15,0-.15-.16-.15-.31a3.28,3.28,0,0,0,.63.78l-.32-.31v.15a1.21,1.21,0,0,0,.63.63c0-.15,0-.15-.16-.31l.31.31c-.15,0-.31,0-.15.16,0,.16,0,.16.15.16l.16-.16c-.16.31,0,.47.32.47a1,1,0,0,1,.63.16h-.32c.16.15.16.31.32.31l.62.63c-.15,0-.15-.16-.31-.32a1.2,1.2,0,0,0,.31.63c0-.15,0-.15.16-.15,0,.15,0,.15.16.15,0-.15,0-.15-.16-.15,0,.47.16.63.63.78,0-.15,0-.15.31-.15l.47.47a.58.58,0,0,1-.47-.16c0,.16,0,.16.16.16-.16,0-.16,0-.32-.16h-.15a1.88,1.88,0,0,1-.79-.79,34.17,34.17,0,0,1-3.3-3.29c0,.15.16.31.48.47Zm.63,13v.32a.73.73,0,0,0,.79.47,2.14,2.14,0,0,1-1.26-.79H195c.16.16.32.16.63.16-.15-.16-.31-.16-.47-.31a5.61,5.61,0,0,1,1.26.78A3.16,3.16,0,0,1,195.61,686.34Zm-.31-9.1a6.51,6.51,0,0,0,2.51,2c-.16.15-.31,0-.16-.16-.15,0-.15,0,0-.16h.16c-.16-.15-.31-.15-.47-.31.16.16.16.16.31.16l-.15.15c-.32,0-.47-.15-.47-.31s0-.16.15-.16c-.15,0-.15,0-.15-.15-.16-.16-.48-.32-.63-.16-.16,0-.16,0-.16-.16C195.77,677.86,195.46,677.71,195.3,677.24Zm.31-4.87.47.47a.57.57,0,0,1-.47-.16c1.73,1.42,3.3,3,5,4.4a.69.69,0,0,0,.78.16,1.09,1.09,0,0,0,.79.62,16.19,16.19,0,0,1-1.73-1.25h.16c.63.47,1.41.94,2.2,1.41a25.55,25.55,0,0,1-5.5-4.55,24.4,24.4,0,0,0,1.88,2.19,5.48,5.48,0,0,1-2.19-2c-.16-.15-.48-.31-.63-.47V673c.15.15.47.15.63.31A5.43,5.43,0,0,1,195.61,672.37Zm.16,7.69c0,.16.15.16.31.32s.16.15.16.31a.92.92,0,0,0,.79.31,1,1,0,0,0,.94.79h-.32a.57.57,0,0,1,.16-.47.33.33,0,0,1-.31-.32A3.05,3.05,0,0,1,195.77,680.06Zm.94,5.66c1.1.78,2.36,1.72,3.77,2.67A18.09,18.09,0,0,1,196.71,685.72Zm2.67,3.29a8.42,8.42,0,0,1-1.26-.94,1.24,1.24,0,0,0-.15.63c-.16,0-.16,0-.32-.16H198v-.15c-.16,0-.16-.16-.16-.32a2.28,2.28,0,0,1-.63-.47c-.15.16-.15.16,0,.31l.47.48a6.26,6.26,0,0,1-.94-.79c0,.16,0,.16.16.16.16-.16,0-.32-.16-.47.16.15.32.31.63.15-.16-.15-.31-.15-.47-.31.16,0,.16,0,.31.16A22,22,0,0,1,199.38,689Zm-1.57-8c1.1.79,2.35,1.58,3.61,2.36-.15.16-.15.31-.31.31s-.32-.15-.32-.47a2.65,2.65,0,0,0-.94-.47c-.15-.15-.31-.15-.47-.31v.47a1.18,1.18,0,0,0,.78.31,2.81,2.81,0,0,1,1.11.79,1.57,1.57,0,0,1,.78.63h.16a.58.58,0,0,0,.47.15c0,.16,0,.16.16.16-.16.16-.16.31,0,.16v-.16a9.41,9.41,0,0,0,2.67,1.73,1.15,1.15,0,0,1-.63-.32h.31a22.28,22.28,0,0,1-2.35-1.72l-.16.15c-.16-.15-.16-.15,0-.31a2.16,2.16,0,0,1-1.1-.63c-.16,0-.31-.16-.16-.31a14.84,14.84,0,0,1,2.2,1.25,2.77,2.77,0,0,1-1.73-1.25h-.16A43.14,43.14,0,0,1,197.81,681Zm.47,6.29-.16.15c-.15,0-.15,0-.15-.15,0,.15,0,.15.15.15v.16c-.15.16-.31,0-.15-.16l.31.32c0-.16.16-.16.31-.16v.31a9.88,9.88,0,0,0,1.89,1.42c-.47-.16-.63-.16-.78-.32a.29.29,0,0,1,0-.47l.46.47h.32c.16.32.47.47.63.63l-.16.16a3.55,3.55,0,0,0,.78.63c-.15,0-.15,0-.15-.16-.16-.16-.16-.16,0-.31l.47.47c-.16-.16-.16-.32-.32-.47a2.49,2.49,0,0,1,.79.31,2.28,2.28,0,0,1-.63-.47l-.16.16C200.64,689,199.38,688.07,198.28,687.29Zm-.31-12.1a23.8,23.8,0,0,0,3.92,3.15c1,.62,1.42.94,1.57.78,0,.16,0,.31.16.31A29.29,29.29,0,0,1,198,675.19Zm2.51.47a17.2,17.2,0,0,0,3.92,2.68c.32.15.48.31.48.62l.15-.15c0,.15.16.31.32.47v-.16l.47.47v-.16a.61.61,0,0,0,.15.48,81.42,81.42,0,0,1-7.22-5.5v-.16c-.31-.15-.31-.31-.47-.47a10.42,10.42,0,0,0,1.88,1.88Zm-2.2,11.78a1.26,1.26,0,0,0,.47.32h.16c.16.15.16.31.31.47,0,.16,0,0,.16-.16a6.26,6.26,0,0,0,1.57,1.26,3.44,3.44,0,0,1-.94-.63A16.19,16.19,0,0,1,198.28,687.44Zm.16-4.86c.15.15.47.31.63.47h.15c.16.31.16.47.32.62a18.31,18.31,0,0,1,2,1.26,1,1,0,0,0,.94.16h-.47c0-.16,0-.16.16-.32l-.16.16c-.16-.16-.47-.31-.63-.63a2.57,2.57,0,0,1-1.88-1.25l-.16.15C199.07,683.05,198.75,682.73,198.44,682.58Zm.94-5c.16.47.32.63.78.47-.15-.16-.31-.16-.31-.31-.15,0-.15,0,0-.16,0,.31.16.47.31.47l.32-.16c-.16.48,0,.79.63.79-.16,0-.16,0-.16-.16a.56.56,0,0,1,.47.16v.16c-.15,0-.15,0-.15-.16-.16.16-.16.16,0,.16,0,.15,0,.15.15.15a6.6,6.6,0,0,1-2.35-1.72c0,.15.15.15.31,0-.16,0-.16,0-.16-.16l.48.31C199.54,677.55,199.54,677.55,199.38,677.55Zm3.61,2.36.47.47.16-.16-.16.16c0,.15,0,.15.16.15l.16-.15v.31c-.16,0-.16,0-.16-.16-.16.16-.16.16-.16.32h.32a2.78,2.78,0,0,1-1.1-.79l.16-.15c-.16-.16-.48-.32-.63-.48a.79.79,0,0,0,.31.63,2.6,2.6,0,0,1-.94-.94c0,.16,0,.16.15,0V679c-.15.16,0,.32.16.47A1.41,1.41,0,0,1,203,679.91Zm0,5.81c0,.15,0,.15.16.15a1.29,1.29,0,0,1,.63.63v-.16a.7.7,0,0,1,.94.32.39.39,0,0,1-.63-.16.57.57,0,0,1,.47.16h-.16c.16.16.48.31.63.47-.15,0-.15,0-.15-.16h.31c-.16-.15-.31-.15-.31-.31,0,.16,0,.16.15.31h-.15a.52.52,0,0,1-.16-.31h.16a2.55,2.55,0,0,0-1.1-.63l-.16.16C203.46,685.87,203.31,685.72,203,685.72Zm.47,4.86c.16.16.48.47.63.63l3,2.51Zm.48-7.53c.31.31.62.47.78.62s.16.16.16,0c0,.16,0,.16.15.16V684c-.15.16-.31,0-.47-.16v-.16a1.22,1.22,0,0,1-.78-.15c.47.31.94.78,1.25.94.16-.16.16-.31.32-.47.16.16.16.16.31.16a1.09,1.09,0,0,0,.79.62c.15.16.31.32.31.47a.58.58,0,0,1,.16-.47,1.24,1.24,0,0,0,.31.63.94.94,0,0,1,.16-.63,1.19,1.19,0,0,0,.78.32,3.37,3.37,0,0,0-1.09.47.29.29,0,0,0,.47,0,.46.46,0,0,0,.62.16,1.21,1.21,0,0,1-.62.15c.15.16.31.16.47.32a.58.58,0,0,0,.47-.16c0,.16,0,.31.16.16s.15,0,.15.15c-.15.16-.15.16-.15,0a3.09,3.09,0,0,0,.78.63c-.16-.15-.16-.31,0-.63.16.16.32.32.47.32l-.15.16c-.16.15-.16,0-.16-.16a.33.33,0,0,0,.31.31c-.15,0-.15,0-.15-.15a1.19,1.19,0,0,0,.62.15c-.16-.15-.31-.15-.47-.31.16,0,.31-.16.47-.32l.32.32-.94-.47-.16-.16c-.16-.16-.16-.16,0-.31l-.16.15c-.16,0-.16-.15-.16-.31v.31a.33.33,0,0,1-.31-.31c0,.16,0,.16.16.16H209c-.31-.16-.31-.32-.16-.63a1,1,0,0,0-.94-.16v-.16c-.31-.15-.47-.31-.63-.31-.15-.16-.31-.16-.15-.16-.16,0-.32,0-.32-.15-.16-.32-.47-.32-.94-.48a.84.84,0,0,0-.47-.62c0,.15.16.31.31.47,0,.15,0,.31-.15.15,0,.16.15.32.31.48l-.16.15c-.15,0-.15,0-.15-.15A.59.59,0,0,0,205,684c-.15-.16-.15-.32-.31-.47s-.16-.16,0-.16a.34.34,0,0,1-.32-.31v.31C204.09,683.36,203.94,683.2,203.94,683.05Zm1.72,4.39a.6.6,0,0,1-.47-.15c.16.31.32.47.47.47l.31-.32a2.18,2.18,0,0,1,.63.47v-.15c0,.15,0,.15.16.15l-.16.16c-.15,0-.15,0-.31-.16a1.88,1.88,0,0,0,.79.79v-.16c0,.16,0,.16.15.16a1.82,1.82,0,0,0,1.1.31h-.47a.5.5,0,0,0-.31-.15c-.16-.16-.16-.16,0-.32-.16,0-.16,0-.16-.15,0,.15,0,.15.16.15-.32.16-.47.16-.47,0-.16-.15,0-.15.15-.15a3.66,3.66,0,0,0-1.41-.95H206c-.15.32-.31.32-.46,0Zm2.2-5a1.05,1.05,0,0,0,1.26.47c-.16-.16-.47-.16-.63-.31v-.16c0,.16,0,.16.16.16a2.42,2.42,0,0,0,1.1.62c.15.16.31.16.46.32h-.31c.47.31.94.78,1.42,1.1a7.65,7.65,0,0,1-1.57-1l.15-.15a.66.66,0,0,1-.94-.47c-.47-.16-.94-.32-1.1-.79-.31-.16-.63-.47-.94-.63a6.26,6.26,0,0,0,1.41.79C208,682.26,207.86,682.26,207.86,682.42Zm.63,3v.16l1.41.94c-.31-.16-.63-.16-.78-.31,0,.15,0,.15.15.15-.47-.31-1.1-.62-1.72-.94.15.16.31.16.62.16a.79.79,0,0,1-.62-.32c.15.16.47.16.94,0-.16-.15-.16-.15-.16-.31-.16.16-.16,0-.16-.16l.48.47C208.8,685.4,208.65,685.56,208.49,685.4Z" transform="translate(-70.86 -6.54)"/>
  </g>
</svg>
