<svg fill="none" height="40" viewBox="0 0 156 40" width="156" xmlns="http://www.w3.org/2000/svg" xmlns:xlink="http://www.w3.org/1999/xlink">
  <linearGradient id="a">
    <stop offset="0" stop-color="#4cc2c4"></stop>
    <stop offset="1" stop-color="#04908a"></stop>
  </linearGradient>
  <linearGradient id="b" gradientUnits="userSpaceOnUse" x1="10.3198" x2="27.667" xlink:href="#a" y1="18.956" y2="18.956"></linearGradient>
  <linearGradient id="c" gradientUnits="userSpaceOnUse" x1="16.3125" x2="18.6502" xlink:href="#a" y1="21.5495" y2="21.5495"></linearGradient>
  <linearGradient id="d" gradientUnits="userSpaceOnUse" x1="-.000977" x2="37.97" xlink:href="#a" y1="19.5122" y2="19.5122"></linearGradient>
  <clipPath id="e">
    <path d="m0 0h156v40h-156z"></path>
  </clipPath>
  <g clip-path="url(#e)">
    <path d="m19.8211 28.9846c.8054.011 1.6105-.0376 2.4085-.1452.9082-.1167 1.791-.3792 2.613-.7772.7424-.3641 1.3828-.9021 1.8649-1.5669.4644-.6775.7628-1.452.8716-2.2624.0788-.552.1047-1.1101.0774-1.6669-.0088-.6083-.0623-1.2151-.1603-1.8157-.2082-1.1185-.7795-1.872-1.7488-2.3042l-.2672-.1162-.1253-.0545-.2193-.0944c-.0077-.0033-.0146-.0084-.02-.0148-.0054-.0065-.0091-.0141-.0109-.0223-.0018-.0081-.0016-.0166.0006-.0247.0021-.008.0062-.0155.0119-.0217l.1548-.1816c.0595-.0658.1341-.1168.2174-.1489l.0332-.0145c.3216-.1511.6064-.3688.8347-.6383.2284-.2695.395-.5844.4884-.9232.1247-.512.1865-1.0369.1843-1.5634l.011-.2505c.0148-.2887 0-.5901-.0129-.8807v-.0508c-.0174-.3753-.0749-.7477-.1713-1.1112-.3115-1.1875-1.0762-2.079-2.2722-2.64735-1.1027-.50589-2.307-.76035-3.5233-.74445-2.0473-.01998-4.1296-.01816-6.1419-.01453h-2.5228c-.3042-.00444-.6057.05757-.8827.18157-.8034.37223-1.1941.95686-1.1941 1.78666v16.6158c.001.3883.158.7604.4367 1.035.2786.2746.6563.4293 1.0504.4303 2.8139.0036 5.4509.0036 8.0142.0072zm-6.4939-16.9789c.0365-.0343.0796-.0612.1267-.079.0472-.0177.0974-.0261.1479-.0245h5.8397c.6942-.0228 1.3854.101 2.027.3632.8532.3631 1.3711.9696 1.5369 1.7739.0445.247.0758.4961.094.7463v.0599l.0221.2324c.0399.3162.0547.6349.0442.9533.0028.3229-.0928.6392-.2746.9079-.1517.1974-.3576.348-.5933.4339l-.7758.3178-.8514.3486c-.0944.0396-.1959.0599-.2985.0599s-.2041-.0203-.2985-.0599l-.5897-.227c-.1843-.0726-.3888-.147-.5823-.2233-.078-.0333-.1652-.0391-.247-.0163-.4756.1203-.9264.3212-1.3323.5937-.0548.0392-.1071.0816-.1566.1271-.01.0081-.0167.0194-.0188.032-.0022.0125.0003.0254.0071.0362.0067.0109.0172.0189.0295.0228.0123.0038.0256.0031.0375-.002l.0571-.02c.2396-.0872.4883-.1816.7187-.2833.1715-.091.3674-.1278.5609-.1054s.3753.103.5208.2307c.82.6392 1.4742 1.1821 2.0473 1.705.0092.0062.0201.0096.0313.0096s.0221-.0034.0313-.0096c.2193-.1198.4441-.2342.6616-.345l.2377-.1216c.107-.0623.2256-.1026.3488-.1185s.2484-.0071.368.0259c.1746.05.3242.1619.4202.3141.2029.3359.3286.7114.3685 1.1003v.0509c.1019.563.1408 1.1353.1161 1.7067-.0976 1.2493-.6376 2.2152-1.6069 2.8743-.2446.1514-.5111.2653-.7905.3378-.105.0326-.2045.0635-.3004.0998-.5628.1962-1.1574.2891-1.7543.2742h-.0645c-1.6456-.0127-3.3169 0-4.9367 0h-.6266c-.0535.0035-.1073-.0037-.1579-.0211-.0507-.0175-.0973-.0449-.1369-.0806-.036-.0402-.0634-.0871-.0808-.1379s-.0244-.1046-.0206-.158c0-1.4526 0-2.9052 0-4.3324v-1.1239c-.0162-.0601-.0139-.1236.0068-.1824s.0587-.1101.1093-.1474c.0505-.0373.1112-.0589.1743-.0619.063-.003.1256.0126.1795.0449.6634.1816 1.1978.3631 1.6788.5211.0813.0265.1672.0364.2525.0291.0071-.0002.0141-.0019.0205-.005.0063-.0032.0119-.0077.0163-.0132.142-.1382.3033-.2556.4791-.3486.0314-.0182.0627-.0363.0922-.0563.1057-.0675.2333-.0938.3576-.0736.1244.0201.2367.0852.315.1825l.0184.02c.034.0344.0642.0721.0903.1126.006.0091.0147.0162.0249.0204s.0214.0053.0322.0032h.0129c.1216-.0342.2517-.0229.3653.0317.1137.0547.2028.1488.2502.2643.0369.0798.059.1034.1843.078.1125-.0273.2313-.0126.3335.0414.1021.054.1802.1434.2193.251.024.0562.0313.0708.1327.0635.0934-.0142.189-.0049.2778.0268.0889.0317.1683.0849.2308.1548.059.0796.0968.1724.11.2701s.0013.1971-.0345.2891c-.0221.0763-.0442.158-.0681.2506h.0129l.0626.0236c.0205.006.0415.0102.0627.0127.0126.0023.0257-.0002.0366-.0069s.0189-.0172.0223-.0294c-.001-.0133.0023-.0267.0092-.0381.0085-.1015.0563-.1958.1335-.2634.0772-.0677.1779-.1034.2812-.0998.081 0 .0958 0 .1105-.1071.0024-.0477.0143-.0945.035-.1377.0208-.0431.0499-.0819.0859-.1139.0359-.0321.0779-.0568.1236-.0728s.0941-.023.1425-.0206c.0958 0 .1014-.0182.1198-.098.016-.0863.0552-.1666.1136-.2328.0583-.0661.1337-.1155.2181-.1431.0523-.0161.1014-.0407.1456-.0726.0081-.0064.0141-.0149.0174-.0246.0033-.0096.0036-.02.001-.0299-.0162-.0529-.0404-.1031-.0719-.1489-.1102-.1531-.2438-.2885-.3962-.4013-.0552-.0454-.1124-.0944-.1677-.1434-.4858-.4311-.9965-.8342-1.5294-1.2075-.054-.0456-.1206-.0742-.1913-.082-.0707-.0077-.1421.0056-.2049.0385l-.4054.1815c-.1254.0545-.2507.1072-.3686.1634-.1739.0747-.3639.1052-.5528.089-.0958-.0045-.1888-.033-.2703-.0828-.0814-.0498-.1487-.1192-.1953-.2017-.0467-.0825-.0712-.1754-.0713-.2698-.0002-.0945.0242-.1874.0706-.27.0055-.0086.0083-.0185.0081-.0285-.0001-.0101-.0032-.0199-.0088-.0283-.0056-.0085-.0136-.0151-.0229-.0192-.0094-.0041-.0197-.0054-.0298-.0039-.4081.041-.8205-.008-1.207-.1435-.4423-.1452-.8993-.2796-1.3415-.4085l-.3354-.0981c-.0891-.0171-.1687-.066-.2234-.1374-.0548-.0714-.0809-.1602-.0733-.2493v-4.8244c-.0059-.0508-.0013-.1023.0136-.1513s.0397-.0945.073-.1338z" fill="url(#b)"></path>
    <path d="m18.6502 21.7858v-.0109h-.035c-.1191.0387-.2488.0305-.3619-.023-.113-.0535-.2006-.1481-.2444-.2639l-.0147-.0291c-.0053-.0096-.0134-.0175-.0232-.0226-.0099-.0052-.021-.0074-.0321-.0064h-.0534c-.1134.033-.2351.0238-.3421-.0257s-.1918-.136-.2384-.243c-.0102-.0214-.0219-.042-.035-.0618-.0055-.0079-.0129-.0142-.0217-.0183-.0087-.0042-.0184-.006-.0281-.0053-.0153-.001-.0307-.001-.046 0-.0561.0194-.1156.0275-.175.024-.0593-.0035-.1173-.0187-.1707-.0445-.0533-.0259-.1009-.0619-.14-.1061-.039-.0442-.0688-.0956-.0874-.1512v-.0109l-.0129.0109c-.1455.107-.2437.265-.2746.4412-.0015.0182-.0015.0364 0 .0545-.0006.0133.0037.0264.0122.0368.0085.0103.0205.0173.0339.0195h.0553c.081-.0004.1612.0169.2347.0504.0736.0336.1388.0827.1909.1439.0343.0462.0793.0838.1312.1097.0518.0259.1092.0393.1674.0392.0765.0014.1517.0195.2203.0531.0685.0336.1286.0818.1758.1411.0336.0448.0772.0813.1273.1068.0502.0255.1056.0393.1621.0403.0807.0027.16.0215.2331.0552.0732.0337.1387.0816.1925.1409.0277.0254.0535.0509.0811.0726.0103.0095.0238.0148.0378.0148s.0275-.0053.0378-.0148c.1343-.1429.2194-.324.2432-.5174z" fill="url(#c)"></path>
    <path d="m37.9625 23.8213v-14.78189c.0049-1.26402-.4035-2.49599-1.1647-3.51344-.623-.82271-1.4029-1.51779-2.296-2.04633-.6507-.37406-1.3425-.67377-2.0621-.89334-.3723-.14404-.7532-.26532-1.1407-.36314l-.0423-.0109-11.1101-2.09898c-.829-.1472883-1.6777-.150975-2.508-.010895l-11.09339 2.111695-.05713.01271c-.15601.0332-.30986.07565-.46069.1271-.09596.01334-.19039.03584-.28194.06718-.7707.26521-1.5117.60777-2.21131 1.02226l-.1548.0926c-.89551.5274-1.67745 1.22261-2.30161 2.04633-.651386.89731-1.0193545 1.96418-1.0577433 3.06677-.0092138.13073-.01289935.26146-.01289935.39038v14.78189c-.04232605.9997.08217985 1.9996.36855265 2.9596.619498 2.1755 2.06447 4.0329 4.03565 5.1875 2.79731 1.6614 8.63151 4.7209 11.86191 6.4078l.0387.0199c.5806.2814 1.2024.4713 1.8427.5629.2922.0432.5872.0651.8827.0654.9249.0021 1.8362-.2198 2.6536-.6464 3.2303-1.6778 9.0645-4.7445 11.8618-6.4059 1.9712-1.1546 3.4162-3.012 4.0357-5.1876.2886-.9609.415-1.962.3741-2.9632zm-7.5554-17.84503c.6966.19479 1.3625.48318 1.9792.85703.45.26405.8442.61114 1.1609 1.02225.3428.47391.5012.86792.5012 1.24015v14.9435c.011.5919-.0723 1.1819-.2469 1.7485-.3577 1.2124-1.1726 2.2441-2.2776 2.8834-2.3035 1.369-6.8883 3.8003-10.3379 5.6051l-.0995.0436-.0166.0164c-.594.3184-1.2543.4984-1.9299.5261-.6757.0277-1.3488-.0976-1.9676-.3664l-.3962-.2088c-3.4515-1.8048-8.051-4.2433-10.35998-5.616-1.10084-.6414-1.91159-1.6728-2.2666-2.8834-.17533-.567-.25867-1.1577-.24693-1.7504.00275-.0453.00275-.0908 0-.1361v-14.86179c-.00508-.4458.13865-.8809.40909-1.23833.31681-.41083.7102-.75839 1.1591-1.02407l.0645-.03813c.57282-.32813 1.18508-.58433 1.82249-.76261l10.52033-1.9973c.6365-.08605 1.2819-.08605 1.9183 0z" fill="url(#d)"></path>
    <g fill="#00a7a0">
      <path d="m55.3072 17.2885c.7187.2287 1.3766.4266 1.9239.8533.3588.2726.6573.6145.8772 1.0048s.3566.8207.4016 1.2649c.4515 3.813-1.5129 5.8975-5.0583 5.9102-2.5504.0091-5.1027-.0145-7.653.0145-.5363 0-.6671-.1561-.6653-.6627.0166-5.3146.0111-10.6311.0184-15.94575 0-.28507-.1234-.67908.4073-.67 3.0277.0581 6.0608-.16887 9.0811.11983 2.1303.20337 3.317 1.22922 3.645 2.92882.3888 2.0082-.3999 3.7422-2.1615 4.7445-.2488.1398-.505.2723-.8164.4376zm-6.8772.3631v5.2656c0 .3141-.0663.621.4515.6101 1.4871-.029 2.9761.0127 4.4632-.0345.9213-.0272 1.4447-.5247 1.6585-1.4108.4496-1.8484-.5529-3.1576-2.5467-3.3228-1.5719-.1289-1.5498-.1307-1.559-1.498 0-.4775.1308-.6954.6228-.7826.4943-.095.976-.2455 1.4355-.4484.9085-.3886 1.618-.9824 1.8797-1.9974.3501-1.3363-.1843-2.1044-1.5811-2.148-1.3968-.0435-2.8158 0-4.2236-.0399-.5031-.0145-.621.1434-.6137.6192.0277 1.7303.0111 3.4571.0129 5.1857z"></path>
      <path d="m83.4294 17.6358v-7.85669c0-.35043-.1105-.74989.5142-.72629 2.6812.07626 5.3679-.13436 8.0455.12166 4.2494.40672 6.5989 2.70902 6.9583 6.89982.1842 2.1298.0129 4.2451-.9214 6.2225-1.3287 2.7944-3.7832 3.8638-6.7095 3.9946-2.4399.1144-4.8889 0-7.3342.0417-.5787 0-.5529-.2887-.5529-.6827zm3.282.029v5.2656c0 .3269-.0369.6119.4662.5974 1.325-.0345 2.6591.0472 3.9785-.0544 2.0455-.158 3.4516-1.2293 4.1094-3.1721.4777-1.4491.5885-2.9913.3225-4.4921-.3686-2.2661-1.6861-3.4645-4.0099-3.8131-1.4742-.2233-2.965-.0762-4.4484-.1325-.4662-.0182-.4201.2633-.4201.5556-.0025 1.7455-.0037 3.4941-.0037 5.2456z"></path>
      <path d="m66.2029 17.6607c0-2.6147.0202-5.2311-.0166-7.84759 0-.63551.1843-.7844.8053-.7735 2.027.03813 4.0375-.03087 6.0534.02905 1.6198.04902 3.2359.18157 4.7488.89152 2.0473.97142 3.2175 2.57832 3.6855 4.72092.4745 2.1406.3812 4.3656-.2708 6.4604-1.0025 3.2683-3.5989 5.1058-7.2789 5.1675-2.3625.04-4.7267 0-7.0891.0218-.5529 0-.6634-.1688-.6597-.6664.0202-2.6673.011-5.3364.011-8.0055zm3.2819.0218v5.2656c0 .3468 0 .5938.4865.581 1.2734-.0363 2.5541.0509 3.8182-.0508 1.8428-.1471 3.2764-.9732 4.0172-2.7236.6726-1.5924.7463-3.2193.4791-4.9243-.2745-1.7558-1.1369-2.9197-2.8341-3.5243-1.8428-.6573-3.7593-.3631-5.6444-.4249-.4496-.0181-.3133.3378-.3151.5647-.0147 1.734-.0092 3.4844-.0074 5.2366z"></path>
      <path d="m121.987 13.6248v10.7528c0 1.9428 0 1.9428-1.964 1.9428-.184-.0125-.369-.0125-.553 0-.505.0708-.621-.1507-.619-.6191.017-5.3431.017-10.6862 0-16.0293 0-.47209.135-.69361.63-.62098.027.00363.053.00363.08 0 1.805-.30867 2.972.34499 4.017 1.91198 2.211 3.321 4.69 6.4749 7.059 9.6942.153.2088.316.4121.509.6627.234-.2905.146-.5792.147-.8389 0-3.5624.019-7.1249 0-10.68553 0-.57377.133-.80981.75-.75534.61.03995 1.222.03995 1.832 0 .404-.01634.553.09986.553.52474-.011 5.42173-.011 10.84353 0 16.26533 0 .3758-.123.532-.501.483-.053-.0082-.106-.0082-.159 0-1.876.3395-3.057-.3777-4.113-1.9973-2.228-3.4082-4.717-6.6474-7.102-9.9539-.129-.1779-.282-.3595-.566-.7372z"></path>
      <path d="m154.018 17.6204c.041 1.2294-.109 2.4578-.446 3.6424-.737 2.6074-2.478 4.2161-5.117 4.8589-1.996.4941-4.084.4979-6.081.0109-2.669-.6501-4.423-2.3169-5.23-4.8916-.702-2.1822-.776-4.5135-.214-6.7346.737-2.9197 2.624-4.65731 5.565-5.28373 1.746-.37055 3.549-.39216 5.304-.06355 3.488.64276 5.574 2.79618 6.057 6.26608.127.7248.181 1.46.162 2.1952zm-14.027.0472c0 .2887-.015.5774 0 .8643.168 3.0868 1.872 4.9025 4.751 5.1004 3.213.2143 5.159-1.1639 5.712-4.0818.099-.4875.154-.9827.164-1.4798.041-3.37-.921-6.1117-5.036-6.3278-2.949-.1543-4.988 1.3545-5.482 4.207-.092.5679-.128 1.1431-.109 1.7177z"></path>
      <path d="m99.2686 26.3209 2.2664-5.2656c1.625-3.7749 3.258-7.548 4.867-11.33017.21-.49751.462-.74082 1.041-.68453.921.08897 2.046-.33591 2.716.16704.631.47028.802 1.54156 1.161 2.36046 2.06 4.6725 4.119 9.3443 6.175 14.0156.092.2124.185.4267.308.739-1.106 0-2.13-.0163-3.153 0-.396.0091-.479-.2415-.593-.5102-.507-1.2075-1.036-2.4059-1.517-3.6224-.173-.4321-.407-.5865-.881-.5774-1.461.0309-2.922 0-4.384.0182-.611 0-1.056-.0236-.552-.7717.081-.1217.066-.2996.125-.4412.661-1.6342.663-1.6342 2.504-1.6342 1.731 0 1.732 0 1.054-1.5978-.643-1.5144-1.29-3.025-2.016-4.7209-.202.4702-.343.7825-.473 1.0894-1.659 4.0255-3.336 8.0491-4.976 12.0855-.217.5447-.494.7009-1.048.6718-.835-.0236-1.679.0091-2.6244.0091z"></path>
      <path d="m63.5832 17.7986c0 2.5928-.0148 5.1857.0129 7.7786 0 .5447-.0701.8298-.7187.7517-.8329-.0981-1.9257.345-2.4435-.1816-.4791-.483-.1309-1.547-.1327-2.3604 0-4.6356.0147-9.2712-.0184-13.90672 0-.71177.2082-.90786.8974-.84976.7611.069 1.7856-.23786 2.2297.14344.5105.44122.1548 1.47434.164 2.24784.0222 2.1208 0 4.2434 0 6.3642z"></path>
    </g>
  </g>
</svg>