<svg xmlns="http://www.w3.org/2000/svg" id="Layer_1" data-name="Layer 1" viewBox="0 0 359.54 103.61">
    <defs>
        <style>.cls-1{fill:rgba(244,244,243,1);}.cls-2{fill:rgba(240,86,90,1);}</style>
    </defs>
    <path class="cls-1" d="M203.23,79.05l0,.09a3,3,0,0,1,.09.56H183.69c-.35-.74-.7-1.55-1-2.41a32.78,32.78,0,0,1-1.1-3.37c-4.15,8.81-31.39,11.15-31.39-6a13.08,13.08,0,0,1,2.28-7.5c5.78-7.74,23.72-2.24,27.24-7.84a6.32,6.32,0,0,0,1-3.8,4.29,4.29,0,0,0-1.94-3.25,3.62,3.62,0,0,0-1.7-.4,3.75,3.75,0,0,0-1.71.46c-1.62.91-2.44,3.11-2.16,5.56H152.3c.95-14,18.07-17.59,30.88-15.82C211.07,39.32,198.56,65.29,203.23,79.05Zm-22-19.8a12.46,12.46,0,0,1-2.94,1.67c-1.41.56-2.6.72-3.73,1.88a3.62,3.62,0,0,0-.61.75,4.55,4.55,0,0,0,.94,5.36,4.33,4.33,0,0,0,4.35.89,4.19,4.19,0,0,0,1.94-1.52C181.18,65.27,181.19,62.26,181.21,59.25Z" />
    <path class="cls-1" d="M211.07,36.53c7.3,0,47.91.11,45.12.11-6.52,10.5-13.52,22.9-17.27,29.73l14.74,0V79.77c-51.19,0-47.73-.07-48-.07l18.6-29.55-13.39,0Q211,43.36,211.07,36.53Z" />
    <path class="cls-1" d="M102.16,36.53c7.29,0,47.9.11,45.12.11-6.52,10.5-13.53,22.9-17.27,29.73l14.74,0V79.77c-51.2,0-47.73-.07-48-.07l18.61-29.55-13.39,0Q102.07,43.36,102.16,36.53Z" />
    <path class="cls-1" d="M261.71,36.53c7.3,0,47.91.11,45.12.11-6.52,10.5-13.52,22.9-17.27,29.73l14.74,0V79.77c-51.19,0-47.73-.07-48-.07l18.6-29.55-13.39,0Q261.63,43.36,261.71,36.53Z" />
    <path class="cls-1" d="M311.65,100V86.6l4.5-.12a7.42,7.42,0,0,0,6.34-3.72,7.29,7.29,0,0,0,.67-4.36,6.36,6.36,0,0,0-.23-.89c-.6-1.82-6.11-18.33-13.67-40.94l19.58-.14q2.54,10.91,5.08,21.79,2.76-10.78,5.5-21.57l20.12,0c-3,10-5.67,18.78-10.49,34.74-4,13.09-6.29,21.26-13.91,25.7a22.87,22.87,0,0,1-11.45,2.93Z" />
    <path class="cls-2" d="M85.77,80.38l-2.4,0a.22.22,0,0,0-.21,0h-.43c-.22-.18-.49,0-.73,0l-1.69-.06-1.69-.07-3.39-.18L74.31,80a.36.36,0,0,0-.46.08c-1,0-2,0-3-.06s-2,0-3-.08c-.16-.08-.28,0-.38.16h0l-1.6,0c-.16-.18-.3-.06-.44,0l-1.77-.16L96,45.08l-7.89-12-.62-1.58a13.64,13.64,0,0,0-1.65-4.21l-.76.1h0l-.44.05-.2.07L84.07,27l-7.52,2.69-.59.15-5.33,1.35-1.46.31a.86.86,0,0,0-.7.28l-9.36,2.63a.62.62,0,0,0-.57.34h0l-2.5.72c-.3-.1-.48.08-.69.24l-3.78.93L50.12,37h0l-.28.19h0a3.4,3.4,0,0,1-.94.28L63.46,20.5l-1.28-2.16a1.76,1.76,0,0,0,.4-.53,1.77,1.77,0,0,1,.75-.91c0-1.1-.91-1.29-1.66-1.64l0-.24a.56.56,0,0,0,.59-.47L61,13.18,60,6.45l-.45-1.93a21.33,21.33,0,0,0-1-4.4L58,.05h0l-.29,0L57,.12h0C56.69,0,56.5.06,56.4.43c-.33-.62-.68-.24-1-.21-1.2.1-2.39.23-3.58.36L50,.79,48.24,1l-1,.07a.4.4,0,0,0-.47.16q-3.13.56-6.25,1.16c-.19,0-.3.06-.38.24h0L38.48,3c-.19-.13-.32,0-.45.13l-2.52.41-1,.18h0l-.18.14h0c-.48.25-1.1,0-1.52.51a1.71,1.71,0,0,0-1.22.31l-.82,0-1.51.38-1.66.66-2.47.46c-.21-.13-.33.13-.51.11-.31.13-.62.28-.94.38l-3.06.9a21.62,21.62,0,0,0-2.91,1.12h0A2,2,0,0,1,16,9.29q-.09-.06-.12.06l-.53.32a3.71,3.71,0,0,1-.53.26,1.89,1.89,0,0,1-1.18.12.88.88,0,0,0-.28,0c-.37,0-.61.36-.86.67s-.54.58-1,.39c-.06,0,0,.2.05.4-.24-.47-.51-.53-.82-.26l-.06.14a1.46,1.46,0,0,0-.6-.45,2.67,2.67,0,0,0-.89,0,1.2,1.2,0,0,0-.74.47c-.12-.05-.21,0-.29.12a1.12,1.12,0,0,0-.11.53c0,.38.09.76.12,1.14,0,.12,0,.24.05.37.05.4.15.8.21,1.2l-.31.09a21.7,21.7,0,0,1-.32-3.13c-.76.25-.34,1.27-.4,2a3.41,3.41,0,0,0,0,1.35h0l1,4.74a1.06,1.06,0,0,0,.17.9l0,0,2.12,10,8.53-1.21,5.66-.8a1.17,1.17,0,0,0-.1.26,3.18,3.18,0,0,0-1.2,1.32l-.88.72-1.49,1.63-1.48,2-2.52,2.49c-.31,0-.29.4-.51.53-.27.38-.53.78-.83,1.14C15,40,14,41.11,13,42.27c-.48.57-.95,1.15-1.4,1.75l-.67.9q-.33.46-.63.93h0A3.9,3.9,0,0,1,8.62,48a.13.13,0,0,0-.11.18A6.2,6.2,0,0,1,6.26,51a1.53,1.53,0,0,0-.33.29A2.4,2.4,0,0,0,5.3,52.8a1.63,1.63,0,0,1-.94,1.4c-.08,0,.15.18.34.35a.81.81,0,0,0-1.18.59.86.86,0,0,1,0,.22,1.94,1.94,0,0,0-1,.2,3.42,3.42,0,0,0-1.69,2.3.49.49,0,0,0-.28.46A1.28,1.28,0,0,0,.79,59c.3.34.67.62,1,.94a3.26,3.26,0,0,0,.33.31c.45.39,1,.7,1.41,1.11a7,7,0,0,0,1.14.82,1.49,1.49,0,0,0,.67.88l.06.09A18.39,18.39,0,0,1,.23,58.94c-.76,1.16.55,1.61,1,2.34a3.63,3.63,0,0,0,2.46,1.93,4.51,4.51,0,0,1,1.4.95A6.38,6.38,0,0,0,6.9,65.42a3.14,3.14,0,0,0,.68.88l6.48,9.43L43.22,65.3l-.89.86-1.64,1.62a39.78,39.78,0,0,0-3.08,3.42h0a3.8,3.8,0,0,1-.78,1.17,4.62,4.62,0,0,1-1.13.86c-.1,0-.14.07-.13.17A6.49,6.49,0,0,1,33,76.09a1.93,1.93,0,0,0-.36.28c-1,.69-.47,2.38-1.86,2.86-.09,0,.13.19.3.37-.58-.27-1-.06-1.24.53a.74.74,0,0,1,0,.21,2.17,2.17,0,0,0-1.07.13,6.59,6.59,0,0,0-1.21.93,2.58,2.58,0,0,0-.7,1.29.53.53,0,0,0-.33.45,1.13,1.13,0,0,0,.21.66c.27.37.61.67.9,1l.31.33c.41.42.91.77,1.31,1.22l.17.16.5,1a17.25,17.25,0,0,1-3.76-3.82c-.87,1.12.4,1.66.81,2.44a3.57,3.57,0,0,0,2.3,2.12,4.36,4.36,0,0,1,1.33,1,3.7,3.7,0,0,0,.42.46l3,6.1c0,1,0,2,.09,3,0,.38-.06.85.23,1a1.85,1.85,0,0,1,0,.23c.31.47.63.78,1,.1h0a.08.08,0,0,0,.07,0,.41.41,0,0,0,.09.31,2.29,2.29,0,0,0,.87.29l1.34,2.74L61.7,100l.24,0c.9-.1,1.87.25,2.71-.43h0a.51.51,0,0,0,.45.33l1.75,0,1.75,0c.59,0,1.17,0,1.75-.06s1.17-.06,1.75-.12a.65.65,0,0,0,.67-.39L73,99h.16a.57.57,0,0,0,.25-.08c.1.42.22.77.56.17a.42.42,0,0,0,.25.37,14,14,0,0,0,3,.16c1,0,2-.1,3-.06.6,0,1.27.24,1.8-.36l.29.13,1.88-.2h0c.61.54,1.1-.35,1.68-.08.51-.8.07-1.56-.2-2.33l.14-.13c.17.2.35.24.54.06l0-.43.69-.11Zm-26.08-71s0,0,0,0v0Zm-10.32-7-.69.34C48.78,2.3,49.08,2.35,49.37,2.39ZM42.69,4h0Z" />
</svg>