<svg xmlns="http://www.w3.org/2000/svg" x="0px" y="0px" width="48" height="48" viewBox="0 0 172 172" style=" fill:#000000;">
    <g fill="none" fill-rule="nonzero" stroke="none" stroke-width="1" stroke-linecap="butt" stroke-linejoin="miter" stroke-miterlimit="10" stroke-dasharray="" stroke-dashoffset="0" font-family="none" font-weight="none" font-size="none" text-anchor="none" style="mix-blend-mode: normal">
        <path d="M0,172v-172h172v172z" fill="none"></path>
        <g fill="#000000">
            <path d="M86,14.33333c-39.517,0 -71.66667,32.14967 -71.66667,71.66667c0,39.517 32.14967,71.66667 71.66667,71.66667c39.517,0 71.66667,-32.14967 71.66667,-71.66667c0,-39.517 -32.14967,-71.66667 -71.66667,-71.66667zM86,35.83333c27.66333,0 50.16667,22.50333 50.16667,50.16667v5.375c0,10.86467 -8.84008,19.70833 -19.70833,19.70833c-6.31742,0 -11.94269,-3.00575 -15.55111,-7.64258c-4.2355,4.70133 -10.14856,7.64258 -16.69889,7.64258c-12.84267,0 -23.29167,-11.25525 -23.29167,-25.08333c0,-13.82808 10.449,-25.08333 23.29167,-25.08333c4.69058,0 9.05447,1.51424 12.71663,4.09424c0.57692,-2.3435 2.67378,-4.09424 5.20003,-4.09424c2.97058,0 5.375,2.408 5.375,5.375v25.08333c0,4.94142 4.0205,8.95833 8.95833,8.95833c4.93783,0 8.95833,-4.01692 8.95833,-8.95833v-5.375c0,-21.73292 -17.68375,-39.41667 -39.41667,-39.41667c-21.73292,0 -39.41667,17.68375 -39.41667,39.41667c0,21.73292 17.68375,39.41667 39.41667,39.41667c4.76942,0 9.43217,-0.83945 13.85042,-2.49854c2.76992,-1.04992 5.88255,0.36875 6.92171,3.14942c1.04275,2.77708 -0.36533,5.87196 -3.14241,6.91471c-5.633,2.11058 -11.56672,3.18441 -17.62972,3.18441c-27.66333,0 -50.16667,-22.50333 -50.16667,-50.16667c0,-27.66333 22.50333,-50.16667 50.16667,-50.16667zM84.20833,71.66667c-6.92657,0 -12.54167,6.41725 -12.54167,14.33333c0,7.91608 5.6151,14.33333 12.54167,14.33333c6.92657,0 12.54167,-6.41725 12.54167,-14.33333c0,-7.91608 -5.6151,-14.33333 -12.54167,-14.33333z"></path>
        </g>
    </g>
</svg>